solid Battery bracket_2
   facet normal -1.000000e+00 0.000000e+00 0.000000e+00
      outer loop
         vertex 8.500000e+00 9.000001e+00 5.050000e+01
         vertex 8.500000e+00 1.500000e+01 5.050000e+01
         vertex 8.500000e+00 9.000001e+00 4.450000e+01
      endloop
   endfacet
   facet normal -1.000000e+00 0.000000e+00 0.000000e+00
      outer loop
         vertex 8.500000e+00 9.000001e+00 4.450000e+01
         vertex 8.500000e+00 1.500000e+01 5.050000e+01
         vertex 8.500000e+00 1.500000e+01 4.450000e+01
      endloop
   endfacet
   facet normal 0.000000e+00 -1.000000e+00 0.000000e+00
      outer loop
         vertex 1.600000e+01 0.000000e+00 6.570000e+01
         vertex 1.600000e+01 0.000000e+00 7.240000e+01
         vertex 1.350000e+01 0.000000e+00 6.570000e+01
      endloop
   endfacet
   facet normal 0.000000e+00 -1.000000e+00 0.000000e+00
      outer loop
         vertex 1.350000e+01 0.000000e+00 6.570000e+01
         vertex 1.600000e+01 0.000000e+00 7.240000e+01
         vertex 1.350000e+01 0.000000e+00 7.240000e+01
      endloop
   endfacet
   facet normal 0.000000e+00 0.000000e+00 -1.000000e+00
      outer loop
         vertex 1.600000e+01 0.000000e+00 6.570000e+01
         vertex 1.350000e+01 0.000000e+00 6.570000e+01
         vertex 1.600000e+01 1.500000e+01 6.570000e+01
      endloop
   endfacet
   facet normal 0.000000e+00 0.000000e+00 -1.000000e+00
      outer loop
         vertex 1.600000e+01 1.500000e+01 6.570000e+01
         vertex 1.350000e+01 0.000000e+00 6.570000e+01
         vertex 1.350000e+01 9.000001e+00 6.570000e+01
      endloop
   endfacet
   facet normal -0.000000e+00 0.000000e+00 -1.000000e+00
      outer loop
         vertex 1.600000e+01 1.500000e+01 6.570000e+01
         vertex 1.350000e+01 9.000001e+00 6.570000e+01
         vertex 1.350000e+01 1.500000e+01 6.570000e+01
      endloop
   endfacet
   facet normal 1.000000e+00 0.000000e+00 0.000000e+00
      outer loop
         vertex 1.600000e+01 0.000000e+00 6.570000e+01
         vertex 1.600000e+01 1.500000e+01 6.570000e+01
         vertex 1.600000e+01 0.000000e+00 7.240000e+01
      endloop
   endfacet
   facet normal 1.000000e+00 -0.000000e+00 0.000000e+00
      outer loop
         vertex 1.600000e+01 0.000000e+00 7.240000e+01
         vertex 1.600000e+01 1.500000e+01 6.570000e+01
         vertex 1.600000e+01 1.500000e+01 7.240000e+01
      endloop
   endfacet
   facet normal 0.000000e+00 0.000000e+00 1.000000e+00
      outer loop
         vertex 8.500000e+00 9.000001e+00 5.050000e+01
         vertex 9.500000e+00 9.000001e+00 5.050000e+01
         vertex 8.500000e+00 1.500000e+01 5.050000e+01
      endloop
   endfacet
   facet normal -0.000000e+00 0.000000e+00 1.000000e+00
      outer loop
         vertex 8.500000e+00 1.500000e+01 5.050000e+01
         vertex 9.500000e+00 9.000001e+00 5.050000e+01
         vertex 9.500000e+00 1.500000e+01 5.050000e+01
      endloop
   endfacet
   facet normal -1.000000e+00 0.000000e+00 0.000000e+00
      outer loop
         vertex 9.500000e+00 1.500000e+01 5.050000e+01
         vertex 9.500000e+00 9.000001e+00 5.050000e+01
         vertex 9.500000e+00 1.500000e+01 7.240000e+01
      endloop
   endfacet
   facet normal -1.000000e+00 -0.000000e+00 0.000000e+00
      outer loop
         vertex 9.500000e+00 1.500000e+01 7.240000e+01
         vertex 9.500000e+00 9.000001e+00 5.050000e+01
         vertex 9.500000e+00 9.000001e+00 7.240000e+01
      endloop
   endfacet
   facet normal 0.000000e+00 0.000000e+00 1.000000e+00
      outer loop
         vertex 1.350000e+01 0.000000e+00 7.240000e+01
         vertex 1.600000e+01 0.000000e+00 7.240000e+01
         vertex 1.350000e+01 9.000001e+00 7.240000e+01
      endloop
   endfacet
   facet normal -0.000000e+00 0.000000e+00 1.000000e+00
      outer loop
         vertex 1.350000e+01 9.000001e+00 7.240000e+01
         vertex 1.600000e+01 0.000000e+00 7.240000e+01
         vertex 1.600000e+01 1.500000e+01 7.240000e+01
      endloop
   endfacet
   facet normal 0.000000e+00 -0.000000e+00 1.000000e+00
      outer loop
         vertex 1.350000e+01 9.000001e+00 7.240000e+01
         vertex 1.600000e+01 1.500000e+01 7.240000e+01
         vertex 9.500000e+00 9.000001e+00 7.240000e+01
      endloop
   endfacet
   facet normal 0.000000e+00 0.000000e+00 1.000000e+00
      outer loop
         vertex 9.500000e+00 9.000001e+00 7.240000e+01
         vertex 1.600000e+01 1.500000e+01 7.240000e+01
         vertex 9.500000e+00 1.500000e+01 7.240000e+01
      endloop
   endfacet
   facet normal -1.000000e+00 0.000000e+00 0.000000e+00
      outer loop
         vertex 1.350000e+01 9.000001e+00 6.570000e+01
         vertex 1.350000e+01 0.000000e+00 6.570000e+01
         vertex 1.350000e+01 9.000001e+00 7.240000e+01
      endloop
   endfacet
   facet normal -1.000000e+00 -0.000000e+00 0.000000e+00
      outer loop
         vertex 1.350000e+01 9.000001e+00 7.240000e+01
         vertex 1.350000e+01 0.000000e+00 6.570000e+01
         vertex 1.350000e+01 0.000000e+00 7.240000e+01
      endloop
   endfacet
   facet normal 1.000000e+00 0.000000e+00 0.000000e+00
      outer loop
         vertex 1.350000e+01 9.000001e+00 4.450000e+01
         vertex 1.350000e+01 1.500000e+01 4.450000e+01
         vertex 1.350000e+01 9.000001e+00 6.570000e+01
      endloop
   endfacet
   facet normal 1.000000e+00 -0.000000e+00 0.000000e+00
      outer loop
         vertex 1.350000e+01 9.000001e+00 6.570000e+01
         vertex 1.350000e+01 1.500000e+01 4.450000e+01
         vertex 1.350000e+01 1.500000e+01 6.570000e+01
      endloop
   endfacet
   facet normal -0.000000e+00 -0.000000e+00 -1.000000e+00
      outer loop
         vertex 1.350000e+01 1.500000e+01 4.450000e+01
         vertex 1.350000e+01 9.000001e+00 4.450000e+01
         vertex 8.500000e+00 1.500000e+01 4.450000e+01
      endloop
   endfacet
   facet normal 0.000000e+00 0.000000e+00 -1.000000e+00
      outer loop
         vertex 8.500000e+00 1.500000e+01 4.450000e+01
         vertex 1.350000e+01 9.000001e+00 4.450000e+01
         vertex 8.500000e+00 9.000001e+00 4.450000e+01
      endloop
   endfacet
   facet normal 0.000000e+00 -1.000000e+00 0.000000e+00
      outer loop
         vertex 8.500000e+00 9.000001e+00 5.050000e+01
         vertex 8.500000e+00 9.000001e+00 4.450000e+01
         vertex 9.500000e+00 9.000001e+00 5.050000e+01
      endloop
   endfacet
   facet normal 0.000000e+00 -1.000000e+00 -0.000000e+00
      outer loop
         vertex 9.500000e+00 9.000001e+00 5.050000e+01
         vertex 8.500000e+00 9.000001e+00 4.450000e+01
         vertex 1.350000e+01 9.000001e+00 4.450000e+01
      endloop
   endfacet
   facet normal 0.000000e+00 -1.000000e+00 0.000000e+00
      outer loop
         vertex 9.500000e+00 9.000001e+00 5.050000e+01
         vertex 1.350000e+01 9.000001e+00 4.450000e+01
         vertex 9.500000e+00 9.000001e+00 7.240000e+01
      endloop
   endfacet
   facet normal 0.000000e+00 -1.000000e+00 0.000000e+00
      outer loop
         vertex 9.500000e+00 9.000001e+00 7.240000e+01
         vertex 1.350000e+01 9.000001e+00 4.450000e+01
         vertex 1.350000e+01 9.000001e+00 6.570000e+01
      endloop
   endfacet
   facet normal 0.000000e+00 -1.000000e+00 0.000000e+00
      outer loop
         vertex 9.500000e+00 9.000001e+00 7.240000e+01
         vertex 1.350000e+01 9.000001e+00 6.570000e+01
         vertex 1.350000e+01 9.000001e+00 7.240000e+01
      endloop
   endfacet
   facet normal 0.000000e+00 1.000000e+00 0.000000e+00
      outer loop
         vertex 8.500000e+00 1.500000e+01 4.450000e+01
         vertex 8.500000e+00 1.500000e+01 5.050000e+01
         vertex 1.350000e+01 1.500000e+01 4.450000e+01
      endloop
   endfacet
   facet normal 0.000000e+00 1.000000e+00 0.000000e+00
      outer loop
         vertex 1.350000e+01 1.500000e+01 4.450000e+01
         vertex 8.500000e+00 1.500000e+01 5.050000e+01
         vertex 9.500000e+00 1.500000e+01 5.050000e+01
      endloop
   endfacet
   facet normal 0.000000e+00 1.000000e+00 -0.000000e+00
      outer loop
         vertex 1.350000e+01 1.500000e+01 4.450000e+01
         vertex 9.500000e+00 1.500000e+01 5.050000e+01
         vertex 1.350000e+01 1.500000e+01 6.570000e+01
      endloop
   endfacet
   facet normal 0.000000e+00 1.000000e+00 0.000000e+00
      outer loop
         vertex 1.350000e+01 1.500000e+01 6.570000e+01
         vertex 9.500000e+00 1.500000e+01 5.050000e+01
         vertex 9.500000e+00 1.500000e+01 7.240000e+01
      endloop
   endfacet
   facet normal 0.000000e+00 1.000000e+00 -0.000000e+00
      outer loop
         vertex 1.350000e+01 1.500000e+01 6.570000e+01
         vertex 9.500000e+00 1.500000e+01 7.240000e+01
         vertex 1.600000e+01 1.500000e+01 6.570000e+01
      endloop
   endfacet
   facet normal 0.000000e+00 1.000000e+00 -0.000000e+00
      outer loop
         vertex 1.600000e+01 1.500000e+01 6.570000e+01
         vertex 9.500000e+00 1.500000e+01 7.240000e+01
         vertex 1.600000e+01 1.500000e+01 7.240000e+01
      endloop
   endfacet
endsolid