solid Battery bracket_1
   facet normal -1.000000e+00 0.000000e+00 0.000000e+00
      outer loop
         vertex 8.500000e+00 9.000001e+00 6.000001e+00
         vertex 8.500000e+00 1.500000e+01 6.000001e+00
         vertex 8.500000e+00 9.000001e+00 0.000000e+00
      endloop
   endfacet
   facet normal -1.000000e+00 0.000000e+00 0.000000e+00
      outer loop
         vertex 8.500000e+00 9.000001e+00 0.000000e+00
         vertex 8.500000e+00 1.500000e+01 6.000001e+00
         vertex 8.500000e+00 1.500000e+01 0.000000e+00
      endloop
   endfacet
   facet normal 0.000000e+00 -1.000000e+00 0.000000e+00
      outer loop
         vertex 1.600000e+01 0.000000e+00 0.000000e+00
         vertex 1.600000e+01 0.000000e+00 6.000001e+00
         vertex 1.350000e+01 0.000000e+00 0.000000e+00
      endloop
   endfacet
   facet normal 0.000000e+00 -1.000000e+00 0.000000e+00
      outer loop
         vertex 1.350000e+01 0.000000e+00 0.000000e+00
         vertex 1.600000e+01 0.000000e+00 6.000001e+00
         vertex 1.350000e+01 0.000000e+00 6.000001e+00
      endloop
   endfacet
   facet normal -1.000000e+00 0.000000e+00 0.000000e+00
      outer loop
         vertex 1.350000e+01 9.000001e+00 0.000000e+00
         vertex 1.350000e+01 0.000000e+00 0.000000e+00
         vertex 1.350000e+01 9.000001e+00 6.000001e+00
      endloop
   endfacet
   facet normal -1.000000e+00 -0.000000e+00 0.000000e+00
      outer loop
         vertex 1.350000e+01 9.000001e+00 6.000001e+00
         vertex 1.350000e+01 0.000000e+00 0.000000e+00
         vertex 1.350000e+01 0.000000e+00 6.000001e+00
      endloop
   endfacet
   facet normal 0.000000e+00 0.000000e+00 -1.000000e+00
      outer loop
         vertex 8.500000e+00 9.000001e+00 0.000000e+00
         vertex 8.500000e+00 1.500000e+01 0.000000e+00
         vertex 1.350000e+01 9.000001e+00 0.000000e+00
      endloop
   endfacet
   facet normal 0.000000e+00 0.000000e+00 -1.000000e+00
      outer loop
         vertex 1.350000e+01 9.000001e+00 0.000000e+00
         vertex 8.500000e+00 1.500000e+01 0.000000e+00
         vertex 1.600000e+01 1.500000e+01 0.000000e+00
      endloop
   endfacet
   facet normal 0.000000e+00 0.000000e+00 -1.000000e+00
      outer loop
         vertex 1.350000e+01 9.000001e+00 0.000000e+00
         vertex 1.600000e+01 1.500000e+01 0.000000e+00
         vertex 1.350000e+01 0.000000e+00 0.000000e+00
      endloop
   endfacet
   facet normal 0.000000e+00 0.000000e+00 -1.000000e+00
      outer loop
         vertex 1.350000e+01 0.000000e+00 0.000000e+00
         vertex 1.600000e+01 1.500000e+01 0.000000e+00
         vertex 1.600000e+01 0.000000e+00 0.000000e+00
      endloop
   endfacet
   facet normal 1.000000e+00 0.000000e+00 0.000000e+00
      outer loop
         vertex 1.600000e+01 0.000000e+00 0.000000e+00
         vertex 1.600000e+01 1.500000e+01 0.000000e+00
         vertex 1.600000e+01 0.000000e+00 6.000001e+00
      endloop
   endfacet
   facet normal 1.000000e+00 -0.000000e+00 0.000000e+00
      outer loop
         vertex 1.600000e+01 0.000000e+00 6.000001e+00
         vertex 1.600000e+01 1.500000e+01 0.000000e+00
         vertex 1.600000e+01 1.500000e+01 6.000001e+00
      endloop
   endfacet
   facet normal 0.000000e+00 0.000000e+00 1.000000e+00
      outer loop
         vertex 1.350000e+01 0.000000e+00 6.000001e+00
         vertex 1.600000e+01 0.000000e+00 6.000001e+00
         vertex 1.350000e+01 9.000001e+00 6.000001e+00
      endloop
   endfacet
   facet normal -0.000000e+00 0.000000e+00 1.000000e+00
      outer loop
         vertex 1.350000e+01 9.000001e+00 6.000001e+00
         vertex 1.600000e+01 0.000000e+00 6.000001e+00
         vertex 1.600000e+01 1.500000e+01 6.000001e+00
      endloop
   endfacet
   facet normal 0.000000e+00 -0.000000e+00 1.000000e+00
      outer loop
         vertex 1.350000e+01 9.000001e+00 6.000001e+00
         vertex 1.600000e+01 1.500000e+01 6.000001e+00
         vertex 8.500000e+00 9.000001e+00 6.000001e+00
      endloop
   endfacet
   facet normal 0.000000e+00 0.000000e+00 1.000000e+00
      outer loop
         vertex 8.500000e+00 9.000001e+00 6.000001e+00
         vertex 1.600000e+01 1.500000e+01 6.000001e+00
         vertex 8.500000e+00 1.500000e+01 6.000001e+00
      endloop
   endfacet
   facet normal 0.000000e+00 1.000000e+00 0.000000e+00
      outer loop
         vertex 1.600000e+01 1.500000e+01 6.000001e+00
         vertex 1.600000e+01 1.500000e+01 0.000000e+00
         vertex 8.500000e+00 1.500000e+01 6.000001e+00
      endloop
   endfacet
   facet normal 0.000000e+00 1.000000e+00 0.000000e+00
      outer loop
         vertex 8.500000e+00 1.500000e+01 6.000001e+00
         vertex 1.600000e+01 1.500000e+01 0.000000e+00
         vertex 8.500000e+00 1.500000e+01 0.000000e+00
      endloop
   endfacet
   facet normal 0.000000e+00 -1.000000e+00 0.000000e+00
      outer loop
         vertex 1.350000e+01 9.000001e+00 0.000000e+00
         vertex 1.350000e+01 9.000001e+00 6.000001e+00
         vertex 8.500000e+00 9.000001e+00 0.000000e+00
      endloop
   endfacet
   facet normal 0.000000e+00 -1.000000e+00 0.000000e+00
      outer loop
         vertex 8.500000e+00 9.000001e+00 0.000000e+00
         vertex 1.350000e+01 9.000001e+00 6.000001e+00
         vertex 8.500000e+00 9.000001e+00 6.000001e+00
      endloop
   endfacet
endsolid