solid motor bracket
   facet normal -0.000000e+00 0.000000e+00 -1.000000e+00
      outer loop
         vertex 1.960000e+01 3.500000e+00 9.300001e+00
         vertex 1.760000e+01 0.000000e+00 9.300001e+00
         vertex 1.000000e+00 3.500000e+00 9.300001e+00
      endloop
   endfacet
   facet normal 0.000000e+00 0.000000e+00 -1.000000e+00
      outer loop
         vertex 1.000000e+00 3.500000e+00 9.300001e+00
         vertex 1.760000e+01 0.000000e+00 9.300001e+00
         vertex 3.000000e+00 0.000000e+00 9.300001e+00
      endloop
   endfacet
   facet normal 1.000000e+00 0.000000e+00 0.000000e+00
      outer loop
         vertex 3.350000e+00 1.300000e+00 3.610000e+01
         vertex 3.350000e+00 1.300000e+00 1.080000e+01
         vertex 3.350000e+00 1.434245e+00 3.610000e+01
      endloop
   endfacet
   facet normal 1.000000e+00 0.000000e+00 0.000000e+00
      outer loop
         vertex 3.350000e+00 1.434245e+00 3.610000e+01
         vertex 3.350000e+00 1.300000e+00 1.080000e+01
         vertex 3.350000e+00 1.434245e+00 1.080000e+01
      endloop
   endfacet
   facet normal 0.000000e+00 1.000000e+00 -0.000000e+00
      outer loop
         vertex 7.564155e-01 5.300000e+00 1.080000e+01
         vertex 0.000000e+00 5.300000e+00 1.080000e+01
         vertex 7.564155e-01 5.300000e+00 3.610000e+01
      endloop
   endfacet
   facet normal 0.000000e+00 1.000000e+00 0.000000e+00
      outer loop
         vertex 7.564155e-01 5.300000e+00 3.610000e+01
         vertex 0.000000e+00 5.300000e+00 1.080000e+01
         vertex 0.000000e+00 5.300000e+00 3.610000e+01
      endloop
   endfacet
   facet normal -1.000000e+00 0.000000e+00 0.000000e+00
      outer loop
         vertex 1.725000e+01 1.434245e+00 1.080000e+01
         vertex 1.725000e+01 1.300000e+00 1.080000e+01
         vertex 1.725000e+01 1.434245e+00 3.610000e+01
      endloop
   endfacet
   facet normal -1.000000e+00 -0.000000e+00 0.000000e+00
      outer loop
         vertex 1.725000e+01 1.434245e+00 3.610000e+01
         vertex 1.725000e+01 1.300000e+00 1.080000e+01
         vertex 1.725000e+01 1.300000e+00 3.610000e+01
      endloop
   endfacet
   facet normal -0.000000e+00 1.000000e+00 0.000000e+00
      outer loop
         vertex 1.984358e+01 5.300000e+00 3.610000e+01
         vertex 2.060000e+01 5.300000e+00 3.610000e+01
         vertex 1.984358e+01 5.300000e+00 1.080000e+01
      endloop
   endfacet
   facet normal 0.000000e+00 1.000000e+00 0.000000e+00
      outer loop
         vertex 1.984358e+01 5.300000e+00 1.080000e+01
         vertex 2.060000e+01 5.300000e+00 3.610000e+01
         vertex 2.060000e+01 5.300000e+00 1.080000e+01
      endloop
   endfacet
   facet normal 0.000000e+00 0.000000e+00 -1.000000e+00
      outer loop
         vertex 7.564155e-01 5.300000e+00 3.610000e+01
         vertex 0.000000e+00 5.300000e+00 3.610000e+01
         vertex 0.000000e+00 1.520000e+01 3.610000e+01
      endloop
   endfacet
   facet normal 0.000000e+00 0.000000e+00 -1.000000e+00
      outer loop
         vertex 9.497661e+00 1.389437e+01 3.610000e+01
         vertex 2.000000e+00 1.720000e+01 3.610000e+01
         vertex 1.030000e+01 1.400000e+01 3.610000e+01
      endloop
   endfacet
   facet normal 0.000000e+00 0.000000e+00 -1.000000e+00
      outer loop
         vertex 1.030000e+01 1.400000e+01 3.610000e+01
         vertex 2.000000e+00 1.720000e+01 3.610000e+01
         vertex 1.860000e+01 1.720000e+01 3.610000e+01
      endloop
   endfacet
   facet normal 0.000000e+00 0.000000e+00 -1.000000e+00
      outer loop
         vertex 1.030000e+01 1.400000e+01 3.610000e+01
         vertex 1.860000e+01 1.720000e+01 3.610000e+01
         vertex 1.110234e+01 1.389437e+01 3.610000e+01
      endloop
   endfacet
   facet normal 0.000000e+00 0.000000e+00 -1.000000e+00
      outer loop
         vertex 1.725000e+01 1.300000e+00 3.610000e+01
         vertex 9.497661e+00 3.605630e+00 3.610000e+01
         vertex 1.725000e+01 1.434245e+00 3.610000e+01
      endloop
   endfacet
   facet normal 0.000000e+00 0.000000e+00 -1.000000e+00
      outer loop
         vertex 1.725000e+01 1.434245e+00 3.610000e+01
         vertex 9.497661e+00 3.605630e+00 3.610000e+01
         vertex 1.030000e+01 3.500000e+00 3.610000e+01
      endloop
   endfacet
   facet normal 0.000000e+00 0.000000e+00 -1.000000e+00
      outer loop
         vertex 1.725000e+01 1.434245e+00 3.610000e+01
         vertex 1.030000e+01 3.500000e+00 3.610000e+01
         vertex 1.110234e+01 3.605630e+00 3.610000e+01
      endloop
   endfacet
   facet normal 0.000000e+00 0.000000e+00 -1.000000e+00
      outer loop
         vertex 1.725000e+01 1.300000e+00 3.610000e+01
         vertex 3.350000e+00 1.300000e+00 3.610000e+01
         vertex 9.497661e+00 3.605630e+00 3.610000e+01
      endloop
   endfacet
   facet normal 0.000000e+00 0.000000e+00 -1.000000e+00
      outer loop
         vertex 9.497661e+00 3.605630e+00 3.610000e+01
         vertex 3.350000e+00 1.300000e+00 3.610000e+01
         vertex 3.350000e+00 1.434245e+00 3.610000e+01
      endloop
   endfacet
   facet normal -0.000000e+00 0.000000e+00 -1.000000e+00
      outer loop
         vertex 9.497661e+00 3.605630e+00 3.610000e+01
         vertex 3.350000e+00 1.434245e+00 3.610000e+01
         vertex 8.750000e+00 3.915322e+00 3.610000e+01
      endloop
   endfacet
   facet normal -0.000000e+00 0.000000e+00 -1.000000e+00
      outer loop
         vertex 8.750000e+00 3.915322e+00 3.610000e+01
         vertex 3.350000e+00 1.434245e+00 3.610000e+01
         vertex 8.107969e+00 4.407969e+00 3.610000e+01
      endloop
   endfacet
   facet normal 0.000000e+00 0.000000e+00 -1.000000e+00
      outer loop
         vertex 2.060000e+01 5.300000e+00 3.610000e+01
         vertex 1.984358e+01 5.300000e+00 3.610000e+01
         vertex 2.060000e+01 1.520000e+01 3.610000e+01
      endloop
   endfacet
   facet normal 0.000000e+00 0.000000e+00 -1.000000e+00
      outer loop
         vertex 2.060000e+01 1.520000e+01 3.610000e+01
         vertex 1.984358e+01 5.300000e+00 3.610000e+01
         vertex 1.249203e+01 1.309203e+01 3.610000e+01
      endloop
   endfacet
   facet normal -0.000000e+00 0.000000e+00 -1.000000e+00
      outer loop
         vertex 2.060000e+01 1.520000e+01 3.610000e+01
         vertex 1.249203e+01 1.309203e+01 3.610000e+01
         vertex 1.860000e+01 1.720000e+01 3.610000e+01
      endloop
   endfacet
   facet normal 0.000000e+00 0.000000e+00 -1.000000e+00
      outer loop
         vertex 1.860000e+01 1.720000e+01 3.610000e+01
         vertex 1.249203e+01 1.309203e+01 3.610000e+01
         vertex 1.185000e+01 1.358468e+01 3.610000e+01
      endloop
   endfacet
   facet normal 0.000000e+00 0.000000e+00 -1.000000e+00
      outer loop
         vertex 1.860000e+01 1.720000e+01 3.610000e+01
         vertex 1.185000e+01 1.358468e+01 3.610000e+01
         vertex 1.110234e+01 1.389437e+01 3.610000e+01
      endloop
   endfacet
   facet normal 0.000000e+00 0.000000e+00 -1.000000e+00
      outer loop
         vertex 1.340000e+01 1.090000e+01 3.610000e+01
         vertex 1.329437e+01 1.170234e+01 3.610000e+01
         vertex 1.984358e+01 5.300000e+00 3.610000e+01
      endloop
   endfacet
   facet normal 0.000000e+00 0.000000e+00 -1.000000e+00
      outer loop
         vertex 1.984358e+01 5.300000e+00 3.610000e+01
         vertex 1.329437e+01 1.170234e+01 3.610000e+01
         vertex 1.298468e+01 1.245000e+01 3.610000e+01
      endloop
   endfacet
   facet normal 0.000000e+00 0.000000e+00 -1.000000e+00
      outer loop
         vertex 1.984358e+01 5.300000e+00 3.610000e+01
         vertex 1.298468e+01 1.245000e+01 3.610000e+01
         vertex 1.249203e+01 1.309203e+01 3.610000e+01
      endloop
   endfacet
   facet normal -0.000000e+00 0.000000e+00 -1.000000e+00
      outer loop
         vertex 8.107969e+00 4.407969e+00 3.610000e+01
         vertex 3.350000e+00 1.434245e+00 3.610000e+01
         vertex 7.615322e+00 5.050000e+00 3.610000e+01
      endloop
   endfacet
   facet normal 0.000000e+00 0.000000e+00 -1.000000e+00
      outer loop
         vertex 7.615322e+00 5.050000e+00 3.610000e+01
         vertex 3.350000e+00 1.434245e+00 3.610000e+01
         vertex 2.290331e+00 2.584528e+00 3.610000e+01
      endloop
   endfacet
   facet normal -0.000000e+00 0.000000e+00 -1.000000e+00
      outer loop
         vertex 7.615322e+00 5.050000e+00 3.610000e+01
         vertex 2.290331e+00 2.584528e+00 3.610000e+01
         vertex 7.305630e+00 5.797661e+00 3.610000e+01
      endloop
   endfacet
   facet normal 0.000000e+00 0.000000e+00 -1.000000e+00
      outer loop
         vertex 7.305630e+00 5.797661e+00 3.610000e+01
         vertex 2.290331e+00 2.584528e+00 3.610000e+01
         vertex 1.418974e+00 3.883291e+00 3.610000e+01
      endloop
   endfacet
   facet normal -0.000000e+00 0.000000e+00 -1.000000e+00
      outer loop
         vertex 7.305630e+00 5.797661e+00 3.610000e+01
         vertex 1.418974e+00 3.883291e+00 3.610000e+01
         vertex 7.200000e+00 6.600000e+00 3.610000e+01
      endloop
   endfacet
   facet normal 0.000000e+00 0.000000e+00 -1.000000e+00
      outer loop
         vertex 7.200000e+00 6.600000e+00 3.610000e+01
         vertex 1.418974e+00 3.883291e+00 3.610000e+01
         vertex 7.564155e-01 5.300000e+00 3.610000e+01
      endloop
   endfacet
   facet normal -0.000000e+00 0.000000e+00 -1.000000e+00
      outer loop
         vertex 7.200000e+00 6.600000e+00 3.610000e+01
         vertex 7.564155e-01 5.300000e+00 3.610000e+01
         vertex 7.200000e+00 1.090000e+01 3.610000e+01
      endloop
   endfacet
   facet normal -0.000000e+00 0.000000e+00 -1.000000e+00
      outer loop
         vertex 7.200000e+00 1.090000e+01 3.610000e+01
         vertex 7.564155e-01 5.300000e+00 3.610000e+01
         vertex 0.000000e+00 1.520000e+01 3.610000e+01
      endloop
   endfacet
   facet normal 0.000000e+00 0.000000e+00 -1.000000e+00
      outer loop
         vertex 7.200000e+00 1.090000e+01 3.610000e+01
         vertex 0.000000e+00 1.520000e+01 3.610000e+01
         vertex 7.305630e+00 1.170234e+01 3.610000e+01
      endloop
   endfacet
   facet normal -0.000000e+00 0.000000e+00 -1.000000e+00
      outer loop
         vertex 9.497661e+00 1.389437e+01 3.610000e+01
         vertex 8.750000e+00 1.358468e+01 3.610000e+01
         vertex 2.000000e+00 1.720000e+01 3.610000e+01
      endloop
   endfacet
   facet normal 0.000000e+00 0.000000e+00 -1.000000e+00
      outer loop
         vertex 2.000000e+00 1.720000e+01 3.610000e+01
         vertex 8.750000e+00 1.358468e+01 3.610000e+01
         vertex 8.107969e+00 1.309203e+01 3.610000e+01
      endloop
   endfacet
   facet normal 0.000000e+00 -0.000000e+00 -1.000000e+00
      outer loop
         vertex 2.000000e+00 1.720000e+01 3.610000e+01
         vertex 8.107969e+00 1.309203e+01 3.610000e+01
         vertex 0.000000e+00 1.520000e+01 3.610000e+01
      endloop
   endfacet
   facet normal 0.000000e+00 0.000000e+00 -1.000000e+00
      outer loop
         vertex 0.000000e+00 1.520000e+01 3.610000e+01
         vertex 8.107969e+00 1.309203e+01 3.610000e+01
         vertex 7.615322e+00 1.245000e+01 3.610000e+01
      endloop
   endfacet
   facet normal 0.000000e+00 0.000000e+00 -1.000000e+00
      outer loop
         vertex 0.000000e+00 1.520000e+01 3.610000e+01
         vertex 7.615322e+00 1.245000e+01 3.610000e+01
         vertex 7.305630e+00 1.170234e+01 3.610000e+01
      endloop
   endfacet
   facet normal 0.000000e+00 0.000000e+00 -1.000000e+00
      outer loop
         vertex 1.110234e+01 3.605630e+00 3.610000e+01
         vertex 1.185000e+01 3.915322e+00 3.610000e+01
         vertex 1.725000e+01 1.434245e+00 3.610000e+01
      endloop
   endfacet
   facet normal 0.000000e+00 0.000000e+00 -1.000000e+00
      outer loop
         vertex 1.725000e+01 1.434245e+00 3.610000e+01
         vertex 1.185000e+01 3.915322e+00 3.610000e+01
         vertex 1.249203e+01 4.407969e+00 3.610000e+01
      endloop
   endfacet
   facet normal 0.000000e+00 0.000000e+00 -1.000000e+00
      outer loop
         vertex 1.725000e+01 1.434245e+00 3.610000e+01
         vertex 1.249203e+01 4.407969e+00 3.610000e+01
         vertex 1.830967e+01 2.584528e+00 3.610000e+01
      endloop
   endfacet
   facet normal 0.000000e+00 0.000000e+00 -1.000000e+00
      outer loop
         vertex 1.830967e+01 2.584528e+00 3.610000e+01
         vertex 1.249203e+01 4.407969e+00 3.610000e+01
         vertex 1.298468e+01 5.050000e+00 3.610000e+01
      endloop
   endfacet
   facet normal 0.000000e+00 0.000000e+00 -1.000000e+00
      outer loop
         vertex 1.830967e+01 2.584528e+00 3.610000e+01
         vertex 1.298468e+01 5.050000e+00 3.610000e+01
         vertex 1.918103e+01 3.883291e+00 3.610000e+01
      endloop
   endfacet
   facet normal 0.000000e+00 0.000000e+00 -1.000000e+00
      outer loop
         vertex 1.918103e+01 3.883291e+00 3.610000e+01
         vertex 1.298468e+01 5.050000e+00 3.610000e+01
         vertex 1.329437e+01 5.797661e+00 3.610000e+01
      endloop
   endfacet
   facet normal 0.000000e+00 0.000000e+00 -1.000000e+00
      outer loop
         vertex 1.918103e+01 3.883291e+00 3.610000e+01
         vertex 1.329437e+01 5.797661e+00 3.610000e+01
         vertex 1.984358e+01 5.300000e+00 3.610000e+01
      endloop
   endfacet
   facet normal 0.000000e+00 0.000000e+00 -1.000000e+00
      outer loop
         vertex 1.984358e+01 5.300000e+00 3.610000e+01
         vertex 1.329437e+01 5.797661e+00 3.610000e+01
         vertex 1.340000e+01 6.600000e+00 3.610000e+01
      endloop
   endfacet
   facet normal 0.000000e+00 0.000000e+00 -1.000000e+00
      outer loop
         vertex 1.984358e+01 5.300000e+00 3.610000e+01
         vertex 1.340000e+01 6.600000e+00 3.610000e+01
         vertex 1.340000e+01 1.090000e+01 3.610000e+01
      endloop
   endfacet
   facet normal 0.000000e+00 1.000000e+00 0.000000e+00
      outer loop
         vertex 3.350000e+00 1.300000e+00 1.080000e+01
         vertex 3.350000e+00 1.300000e+00 3.610000e+01
         vertex 1.725000e+01 1.300000e+00 1.080000e+01
      endloop
   endfacet
   facet normal 0.000000e+00 1.000000e+00 -0.000000e+00
      outer loop
         vertex 1.725000e+01 1.300000e+00 1.080000e+01
         vertex 3.350000e+00 1.300000e+00 3.610000e+01
         vertex 1.725000e+01 1.300000e+00 3.610000e+01
      endloop
   endfacet
   facet normal 0.000000e+00 0.000000e+00 1.000000e+00
      outer loop
         vertex 1.895332e+01 3.500000e+00 1.080000e+01
         vertex 1.646677e+00 3.500000e+00 1.080000e+01
         vertex 1.830967e+01 2.584528e+00 1.080000e+01
      endloop
   endfacet
   facet normal 0.000000e+00 0.000000e+00 1.000000e+00
      outer loop
         vertex 1.830967e+01 2.584528e+00 1.080000e+01
         vertex 1.646677e+00 3.500000e+00 1.080000e+01
         vertex 1.725000e+01 1.434245e+00 1.080000e+01
      endloop
   endfacet
   facet normal 0.000000e+00 0.000000e+00 1.000000e+00
      outer loop
         vertex 3.350000e+00 1.300000e+00 1.080000e+01
         vertex 1.725000e+01 1.300000e+00 1.080000e+01
         vertex 3.350000e+00 1.434245e+00 1.080000e+01
      endloop
   endfacet
   facet normal -0.000000e+00 0.000000e+00 1.000000e+00
      outer loop
         vertex 3.350000e+00 1.434245e+00 1.080000e+01
         vertex 1.725000e+01 1.300000e+00 1.080000e+01
         vertex 1.725000e+01 1.434245e+00 1.080000e+01
      endloop
   endfacet
   facet normal 0.000000e+00 -0.000000e+00 1.000000e+00
      outer loop
         vertex 3.350000e+00 1.434245e+00 1.080000e+01
         vertex 1.725000e+01 1.434245e+00 1.080000e+01
         vertex 2.290331e+00 2.584528e+00 1.080000e+01
      endloop
   endfacet
   facet normal -0.000000e+00 -0.000000e+00 1.000000e+00
      outer loop
         vertex 2.290331e+00 2.584528e+00 1.080000e+01
         vertex 1.725000e+01 1.434245e+00 1.080000e+01
         vertex 1.646677e+00 3.500000e+00 1.080000e+01
      endloop
   endfacet
   facet normal 0.000000e+00 0.000000e+00 1.000000e+00
      outer loop
         vertex 1.329437e+01 5.797661e+00 3.860000e+01
         vertex 1.298468e+01 5.050000e+00 3.860000e+01
         vertex 2.060000e+01 0.000000e+00 3.860000e+01
      endloop
   endfacet
   facet normal 0.000000e+00 0.000000e+00 1.000000e+00
      outer loop
         vertex 2.060000e+01 0.000000e+00 3.860000e+01
         vertex 1.298468e+01 5.050000e+00 3.860000e+01
         vertex 1.249203e+01 4.407969e+00 3.860000e+01
      endloop
   endfacet
   facet normal 0.000000e+00 0.000000e+00 1.000000e+00
      outer loop
         vertex 2.060000e+01 0.000000e+00 3.860000e+01
         vertex 1.249203e+01 4.407969e+00 3.860000e+01
         vertex 1.185000e+01 3.915322e+00 3.860000e+01
      endloop
   endfacet
   facet normal 0.000000e+00 -0.000000e+00 1.000000e+00
      outer loop
         vertex 1.298468e+01 1.245000e+01 3.860000e+01
         vertex 2.060000e+01 1.520000e+01 3.860000e+01
         vertex 1.249203e+01 1.309203e+01 3.860000e+01
      endloop
   endfacet
   facet normal 0.000000e+00 0.000000e+00 1.000000e+00
      outer loop
         vertex 1.249203e+01 1.309203e+01 3.860000e+01
         vertex 2.060000e+01 1.520000e+01 3.860000e+01
         vertex 1.860000e+01 1.720000e+01 3.860000e+01
      endloop
   endfacet
   facet normal 0.000000e+00 -0.000000e+00 1.000000e+00
      outer loop
         vertex 1.249203e+01 1.309203e+01 3.860000e+01
         vertex 1.860000e+01 1.720000e+01 3.860000e+01
         vertex 1.185000e+01 1.358468e+01 3.860000e+01
      endloop
   endfacet
   facet normal -0.000000e+00 0.000000e+00 1.000000e+00
      outer loop
         vertex 1.298468e+01 1.245000e+01 3.860000e+01
         vertex 1.329437e+01 1.170234e+01 3.860000e+01
         vertex 2.060000e+01 1.520000e+01 3.860000e+01
      endloop
   endfacet
   facet normal 0.000000e+00 0.000000e+00 1.000000e+00
      outer loop
         vertex 2.060000e+01 1.520000e+01 3.860000e+01
         vertex 1.329437e+01 1.170234e+01 3.860000e+01
         vertex 1.340000e+01 1.090000e+01 3.860000e+01
      endloop
   endfacet
   facet normal 0.000000e+00 0.000000e+00 1.000000e+00
      outer loop
         vertex 2.060000e+01 1.520000e+01 3.860000e+01
         vertex 1.340000e+01 1.090000e+01 3.860000e+01
         vertex 2.060000e+01 0.000000e+00 3.860000e+01
      endloop
   endfacet
   facet normal 0.000000e+00 0.000000e+00 1.000000e+00
      outer loop
         vertex 2.060000e+01 0.000000e+00 3.860000e+01
         vertex 1.340000e+01 1.090000e+01 3.860000e+01
         vertex 1.340000e+01 6.600000e+00 3.860000e+01
      endloop
   endfacet
   facet normal 0.000000e+00 0.000000e+00 1.000000e+00
      outer loop
         vertex 2.060000e+01 0.000000e+00 3.860000e+01
         vertex 1.340000e+01 6.600000e+00 3.860000e+01
         vertex 1.329437e+01 5.797661e+00 3.860000e+01
      endloop
   endfacet
   facet normal 0.000000e+00 0.000000e+00 1.000000e+00
      outer loop
         vertex 8.750000e+00 3.915322e+00 3.860000e+01
         vertex 8.107969e+00 4.407969e+00 3.860000e+01
         vertex 0.000000e+00 0.000000e+00 3.860000e+01
      endloop
   endfacet
   facet normal 0.000000e+00 0.000000e+00 1.000000e+00
      outer loop
         vertex 0.000000e+00 0.000000e+00 3.860000e+01
         vertex 8.107969e+00 4.407969e+00 3.860000e+01
         vertex 7.615322e+00 5.050000e+00 3.860000e+01
      endloop
   endfacet
   facet normal 0.000000e+00 0.000000e+00 1.000000e+00
      outer loop
         vertex 1.185000e+01 3.915322e+00 3.860000e+01
         vertex 1.110234e+01 3.605630e+00 3.860000e+01
         vertex 2.060000e+01 0.000000e+00 3.860000e+01
      endloop
   endfacet
   facet normal 0.000000e+00 0.000000e+00 1.000000e+00
      outer loop
         vertex 2.060000e+01 0.000000e+00 3.860000e+01
         vertex 1.110234e+01 3.605630e+00 3.860000e+01
         vertex 1.030000e+01 3.500000e+00 3.860000e+01
      endloop
   endfacet
   facet normal 0.000000e+00 0.000000e+00 1.000000e+00
      outer loop
         vertex 2.060000e+01 0.000000e+00 3.860000e+01
         vertex 1.030000e+01 3.500000e+00 3.860000e+01
         vertex 0.000000e+00 0.000000e+00 3.860000e+01
      endloop
   endfacet
   facet normal 0.000000e+00 0.000000e+00 1.000000e+00
      outer loop
         vertex 0.000000e+00 0.000000e+00 3.860000e+01
         vertex 1.030000e+01 3.500000e+00 3.860000e+01
         vertex 9.497661e+00 3.605630e+00 3.860000e+01
      endloop
   endfacet
   facet normal 0.000000e+00 0.000000e+00 1.000000e+00
      outer loop
         vertex 0.000000e+00 0.000000e+00 3.860000e+01
         vertex 9.497661e+00 3.605630e+00 3.860000e+01
         vertex 8.750000e+00 3.915322e+00 3.860000e+01
      endloop
   endfacet
   facet normal 0.000000e+00 0.000000e+00 1.000000e+00
      outer loop
         vertex 7.615322e+00 5.050000e+00 3.860000e+01
         vertex 7.305630e+00 5.797661e+00 3.860000e+01
         vertex 0.000000e+00 0.000000e+00 3.860000e+01
      endloop
   endfacet
   facet normal 0.000000e+00 0.000000e+00 1.000000e+00
      outer loop
         vertex 0.000000e+00 0.000000e+00 3.860000e+01
         vertex 7.305630e+00 5.797661e+00 3.860000e+01
         vertex 7.200000e+00 6.600000e+00 3.860000e+01
      endloop
   endfacet
   facet normal 0.000000e+00 0.000000e+00 1.000000e+00
      outer loop
         vertex 0.000000e+00 0.000000e+00 3.860000e+01
         vertex 7.200000e+00 6.600000e+00 3.860000e+01
         vertex 0.000000e+00 1.520000e+01 3.860000e+01
      endloop
   endfacet
   facet normal 0.000000e+00 0.000000e+00 1.000000e+00
      outer loop
         vertex 0.000000e+00 1.520000e+01 3.860000e+01
         vertex 7.200000e+00 6.600000e+00 3.860000e+01
         vertex 7.200000e+00 1.090000e+01 3.860000e+01
      endloop
   endfacet
   facet normal 0.000000e+00 -0.000000e+00 1.000000e+00
      outer loop
         vertex 7.200000e+00 1.090000e+01 3.860000e+01
         vertex 7.305630e+00 1.170234e+01 3.860000e+01
         vertex 0.000000e+00 1.520000e+01 3.860000e+01
      endloop
   endfacet
   facet normal 0.000000e+00 0.000000e+00 1.000000e+00
      outer loop
         vertex 0.000000e+00 1.520000e+01 3.860000e+01
         vertex 7.305630e+00 1.170234e+01 3.860000e+01
         vertex 7.615322e+00 1.245000e+01 3.860000e+01
      endloop
   endfacet
   facet normal -0.000000e+00 0.000000e+00 1.000000e+00
      outer loop
         vertex 0.000000e+00 1.520000e+01 3.860000e+01
         vertex 7.615322e+00 1.245000e+01 3.860000e+01
         vertex 2.000000e+00 1.720000e+01 3.860000e+01
      endloop
   endfacet
   facet normal 0.000000e+00 0.000000e+00 1.000000e+00
      outer loop
         vertex 2.000000e+00 1.720000e+01 3.860000e+01
         vertex 7.615322e+00 1.245000e+01 3.860000e+01
         vertex 8.107969e+00 1.309203e+01 3.860000e+01
      endloop
   endfacet
   facet normal 0.000000e+00 0.000000e+00 1.000000e+00
      outer loop
         vertex 2.000000e+00 1.720000e+01 3.860000e+01
         vertex 8.107969e+00 1.309203e+01 3.860000e+01
         vertex 8.750000e+00 1.358468e+01 3.860000e+01
      endloop
   endfacet
   facet normal 0.000000e+00 -0.000000e+00 1.000000e+00
      outer loop
         vertex 8.750000e+00 1.358468e+01 3.860000e+01
         vertex 9.497661e+00 1.389437e+01 3.860000e+01
         vertex 2.000000e+00 1.720000e+01 3.860000e+01
      endloop
   endfacet
   facet normal 0.000000e+00 0.000000e+00 1.000000e+00
      outer loop
         vertex 2.000000e+00 1.720000e+01 3.860000e+01
         vertex 9.497661e+00 1.389437e+01 3.860000e+01
         vertex 1.030000e+01 1.400000e+01 3.860000e+01
      endloop
   endfacet
   facet normal -0.000000e+00 0.000000e+00 1.000000e+00
      outer loop
         vertex 2.000000e+00 1.720000e+01 3.860000e+01
         vertex 1.030000e+01 1.400000e+01 3.860000e+01
         vertex 1.860000e+01 1.720000e+01 3.860000e+01
      endloop
   endfacet
   facet normal 0.000000e+00 0.000000e+00 1.000000e+00
      outer loop
         vertex 1.860000e+01 1.720000e+01 3.860000e+01
         vertex 1.030000e+01 1.400000e+01 3.860000e+01
         vertex 1.110234e+01 1.389437e+01 3.860000e+01
      endloop
   endfacet
   facet normal 0.000000e+00 0.000000e+00 1.000000e+00
      outer loop
         vertex 1.860000e+01 1.720000e+01 3.860000e+01
         vertex 1.110234e+01 1.389437e+01 3.860000e+01
         vertex 1.185000e+01 1.358468e+01 3.860000e+01
      endloop
   endfacet
   facet normal 1.000000e+00 0.000000e+00 0.000000e+00
      outer loop
         vertex 2.060000e+01 0.000000e+00 3.860000e+01
         vertex 2.060000e+01 0.000000e+00 0.000000e+00
         vertex 2.060000e+01 3.500000e+00 1.080000e+01
      endloop
   endfacet
   facet normal 1.000000e+00 0.000000e+00 0.000000e+00
      outer loop
         vertex 2.060000e+01 3.500000e+00 1.080000e+01
         vertex 2.060000e+01 0.000000e+00 0.000000e+00
         vertex 2.060000e+01 3.500000e+00 0.000000e+00
      endloop
   endfacet
   facet normal 1.000000e+00 0.000000e+00 -0.000000e+00
      outer loop
         vertex 2.060000e+01 1.520000e+01 3.610000e+01
         vertex 2.060000e+01 1.520000e+01 3.860000e+01
         vertex 2.060000e+01 5.300000e+00 3.610000e+01
      endloop
   endfacet
   facet normal 1.000000e+00 0.000000e+00 -0.000000e+00
      outer loop
         vertex 2.060000e+01 5.300000e+00 3.610000e+01
         vertex 2.060000e+01 1.520000e+01 3.860000e+01
         vertex 2.060000e+01 0.000000e+00 3.860000e+01
      endloop
   endfacet
   facet normal 1.000000e+00 0.000000e+00 0.000000e+00
      outer loop
         vertex 2.060000e+01 5.300000e+00 3.610000e+01
         vertex 2.060000e+01 0.000000e+00 3.860000e+01
         vertex 2.060000e+01 5.300000e+00 1.080000e+01
      endloop
   endfacet
   facet normal 1.000000e+00 0.000000e+00 0.000000e+00
      outer loop
         vertex 2.060000e+01 5.300000e+00 1.080000e+01
         vertex 2.060000e+01 0.000000e+00 3.860000e+01
         vertex 2.060000e+01 3.500000e+00 1.080000e+01
      endloop
   endfacet
   facet normal -0.000000e+00 1.000000e+00 0.000000e+00
      outer loop
         vertex 2.000000e+00 1.720000e+01 3.860000e+01
         vertex 1.860000e+01 1.720000e+01 3.860000e+01
         vertex 2.000000e+00 1.720000e+01 3.610000e+01
      endloop
   endfacet
   facet normal 0.000000e+00 1.000000e+00 0.000000e+00
      outer loop
         vertex 2.000000e+00 1.720000e+01 3.610000e+01
         vertex 1.860000e+01 1.720000e+01 3.860000e+01
         vertex 1.860000e+01 1.720000e+01 3.610000e+01
      endloop
   endfacet
   facet normal -1.000000e+00 -0.000000e+00 -0.000000e+00
      outer loop
         vertex 0.000000e+00 1.520000e+01 3.860000e+01
         vertex 0.000000e+00 1.520000e+01 3.610000e+01
         vertex 0.000000e+00 0.000000e+00 3.860000e+01
      endloop
   endfacet
   facet normal -1.000000e+00 0.000000e+00 0.000000e+00
      outer loop
         vertex 0.000000e+00 0.000000e+00 3.860000e+01
         vertex 0.000000e+00 1.520000e+01 3.610000e+01
         vertex 0.000000e+00 5.300000e+00 3.610000e+01
      endloop
   endfacet
   facet normal -1.000000e+00 0.000000e+00 0.000000e+00
      outer loop
         vertex 0.000000e+00 3.500000e+00 0.000000e+00
         vertex 0.000000e+00 0.000000e+00 0.000000e+00
         vertex 0.000000e+00 3.500000e+00 1.080000e+01
      endloop
   endfacet
   facet normal -1.000000e+00 -0.000000e+00 0.000000e+00
      outer loop
         vertex 0.000000e+00 3.500000e+00 1.080000e+01
         vertex 0.000000e+00 0.000000e+00 0.000000e+00
         vertex 0.000000e+00 0.000000e+00 3.860000e+01
      endloop
   endfacet
   facet normal -1.000000e+00 0.000000e+00 0.000000e+00
      outer loop
         vertex 0.000000e+00 3.500000e+00 1.080000e+01
         vertex 0.000000e+00 0.000000e+00 3.860000e+01
         vertex 0.000000e+00 5.300000e+00 1.080000e+01
      endloop
   endfacet
   facet normal -1.000000e+00 0.000000e+00 0.000000e+00
      outer loop
         vertex 0.000000e+00 5.300000e+00 1.080000e+01
         vertex 0.000000e+00 0.000000e+00 3.860000e+01
         vertex 0.000000e+00 5.300000e+00 3.610000e+01
      endloop
   endfacet
   facet normal 0.000000e+00 -1.000000e+00 0.000000e+00
      outer loop
         vertex 4.500000e+00 0.000000e+00 0.000000e+00
         vertex 4.500000e+00 0.000000e+00 2.000000e+00
         vertex 0.000000e+00 0.000000e+00 0.000000e+00
      endloop
   endfacet
   facet normal 0.000000e+00 -1.000000e+00 0.000000e+00
      outer loop
         vertex 0.000000e+00 0.000000e+00 0.000000e+00
         vertex 4.500000e+00 0.000000e+00 2.000000e+00
         vertex 3.000000e+00 0.000000e+00 2.000000e+00
      endloop
   endfacet
   facet normal 0.000000e+00 -1.000000e+00 0.000000e+00
      outer loop
         vertex 0.000000e+00 0.000000e+00 0.000000e+00
         vertex 3.000000e+00 0.000000e+00 2.000000e+00
         vertex 3.000000e+00 0.000000e+00 9.300001e+00
      endloop
   endfacet
   facet normal 0.000000e+00 -1.000000e+00 0.000000e+00
      outer loop
         vertex 1.610000e+01 0.000000e+00 2.000000e+00
         vertex 1.610000e+01 0.000000e+00 0.000000e+00
         vertex 1.760000e+01 0.000000e+00 2.000000e+00
      endloop
   endfacet
   facet normal 0.000000e+00 -1.000000e+00 -0.000000e+00
      outer loop
         vertex 1.760000e+01 0.000000e+00 2.000000e+00
         vertex 1.610000e+01 0.000000e+00 0.000000e+00
         vertex 2.060000e+01 0.000000e+00 0.000000e+00
      endloop
   endfacet
   facet normal 0.000000e+00 -1.000000e+00 0.000000e+00
      outer loop
         vertex 1.760000e+01 0.000000e+00 2.000000e+00
         vertex 2.060000e+01 0.000000e+00 0.000000e+00
         vertex 1.760000e+01 0.000000e+00 9.300001e+00
      endloop
   endfacet
   facet normal 0.000000e+00 -1.000000e+00 0.000000e+00
      outer loop
         vertex 1.760000e+01 0.000000e+00 9.300001e+00
         vertex 2.060000e+01 0.000000e+00 0.000000e+00
         vertex 2.060000e+01 0.000000e+00 3.860000e+01
      endloop
   endfacet
   facet normal 0.000000e+00 -1.000000e+00 0.000000e+00
      outer loop
         vertex 1.760000e+01 0.000000e+00 9.300001e+00
         vertex 2.060000e+01 0.000000e+00 3.860000e+01
         vertex 3.000000e+00 0.000000e+00 9.300001e+00
      endloop
   endfacet
   facet normal 0.000000e+00 -1.000000e+00 0.000000e+00
      outer loop
         vertex 3.000000e+00 0.000000e+00 9.300001e+00
         vertex 2.060000e+01 0.000000e+00 3.860000e+01
         vertex 0.000000e+00 0.000000e+00 3.860000e+01
      endloop
   endfacet
   facet normal -0.000000e+00 -1.000000e+00 0.000000e+00
      outer loop
         vertex 3.000000e+00 0.000000e+00 9.300001e+00
         vertex 0.000000e+00 0.000000e+00 3.860000e+01
         vertex 0.000000e+00 0.000000e+00 0.000000e+00
      endloop
   endfacet
   facet normal 9.914448e-01 -1.305264e-01 0.000000e+00
      outer loop
         vertex 7.200000e+00 1.090000e+01 3.860000e+01
         vertex 7.200000e+00 1.090000e+01 3.610000e+01
         vertex 7.305630e+00 1.170234e+01 3.860000e+01
      endloop
   endfacet
   facet normal 9.914448e-01 -1.305264e-01 0.000000e+00
      outer loop
         vertex 7.305630e+00 1.170234e+01 3.860000e+01
         vertex 7.200000e+00 1.090000e+01 3.610000e+01
         vertex 7.305630e+00 1.170234e+01 3.610000e+01
      endloop
   endfacet
   facet normal 9.238795e-01 -3.826835e-01 0.000000e+00
      outer loop
         vertex 7.305630e+00 1.170234e+01 3.860000e+01
         vertex 7.305630e+00 1.170234e+01 3.610000e+01
         vertex 7.615322e+00 1.245000e+01 3.860000e+01
      endloop
   endfacet
   facet normal 9.238795e-01 -3.826835e-01 0.000000e+00
      outer loop
         vertex 7.615322e+00 1.245000e+01 3.860000e+01
         vertex 7.305630e+00 1.170234e+01 3.610000e+01
         vertex 7.615322e+00 1.245000e+01 3.610000e+01
      endloop
   endfacet
   facet normal 7.933534e-01 -6.087613e-01 0.000000e+00
      outer loop
         vertex 7.615322e+00 1.245000e+01 3.860000e+01
         vertex 7.615322e+00 1.245000e+01 3.610000e+01
         vertex 8.107969e+00 1.309203e+01 3.860000e+01
      endloop
   endfacet
   facet normal 7.933534e-01 -6.087613e-01 0.000000e+00
      outer loop
         vertex 8.107969e+00 1.309203e+01 3.860000e+01
         vertex 7.615322e+00 1.245000e+01 3.610000e+01
         vertex 8.107969e+00 1.309203e+01 3.610000e+01
      endloop
   endfacet
   facet normal 6.087614e-01 -7.933534e-01 0.000000e+00
      outer loop
         vertex 8.107969e+00 1.309203e+01 3.860000e+01
         vertex 8.107969e+00 1.309203e+01 3.610000e+01
         vertex 8.750000e+00 1.358468e+01 3.860000e+01
      endloop
   endfacet
   facet normal 6.087614e-01 -7.933534e-01 0.000000e+00
      outer loop
         vertex 8.750000e+00 1.358468e+01 3.860000e+01
         vertex 8.107969e+00 1.309203e+01 3.610000e+01
         vertex 8.750000e+00 1.358468e+01 3.610000e+01
      endloop
   endfacet
   facet normal 3.826834e-01 -9.238795e-01 0.000000e+00
      outer loop
         vertex 8.750000e+00 1.358468e+01 3.860000e+01
         vertex 8.750000e+00 1.358468e+01 3.610000e+01
         vertex 9.497661e+00 1.389437e+01 3.860000e+01
      endloop
   endfacet
   facet normal 3.826834e-01 -9.238795e-01 0.000000e+00
      outer loop
         vertex 9.497661e+00 1.389437e+01 3.860000e+01
         vertex 8.750000e+00 1.358468e+01 3.610000e+01
         vertex 9.497661e+00 1.389437e+01 3.610000e+01
      endloop
   endfacet
   facet normal 1.305264e-01 -9.914448e-01 0.000000e+00
      outer loop
         vertex 9.497661e+00 1.389437e+01 3.860000e+01
         vertex 9.497661e+00 1.389437e+01 3.610000e+01
         vertex 1.030000e+01 1.400000e+01 3.860000e+01
      endloop
   endfacet
   facet normal 1.305264e-01 -9.914448e-01 0.000000e+00
      outer loop
         vertex 1.030000e+01 1.400000e+01 3.860000e+01
         vertex 9.497661e+00 1.389437e+01 3.610000e+01
         vertex 1.030000e+01 1.400000e+01 3.610000e+01
      endloop
   endfacet
   facet normal -1.305264e-01 -9.914448e-01 -0.000000e+00
      outer loop
         vertex 1.030000e+01 1.400000e+01 3.860000e+01
         vertex 1.030000e+01 1.400000e+01 3.610000e+01
         vertex 1.110234e+01 1.389437e+01 3.860000e+01
      endloop
   endfacet
   facet normal -1.305264e-01 -9.914448e-01 -0.000000e+00
      outer loop
         vertex 1.110234e+01 1.389437e+01 3.860000e+01
         vertex 1.030000e+01 1.400000e+01 3.610000e+01
         vertex 1.110234e+01 1.389437e+01 3.610000e+01
      endloop
   endfacet
   facet normal -3.826834e-01 -9.238795e-01 -0.000000e+00
      outer loop
         vertex 1.110234e+01 1.389437e+01 3.860000e+01
         vertex 1.110234e+01 1.389437e+01 3.610000e+01
         vertex 1.185000e+01 1.358468e+01 3.860000e+01
      endloop
   endfacet
   facet normal -3.826834e-01 -9.238795e-01 -0.000000e+00
      outer loop
         vertex 1.185000e+01 1.358468e+01 3.860000e+01
         vertex 1.110234e+01 1.389437e+01 3.610000e+01
         vertex 1.185000e+01 1.358468e+01 3.610000e+01
      endloop
   endfacet
   facet normal -6.087614e-01 -7.933534e-01 -0.000000e+00
      outer loop
         vertex 1.185000e+01 1.358468e+01 3.860000e+01
         vertex 1.185000e+01 1.358468e+01 3.610000e+01
         vertex 1.249203e+01 1.309203e+01 3.860000e+01
      endloop
   endfacet
   facet normal -6.087614e-01 -7.933534e-01 -0.000000e+00
      outer loop
         vertex 1.249203e+01 1.309203e+01 3.860000e+01
         vertex 1.185000e+01 1.358468e+01 3.610000e+01
         vertex 1.249203e+01 1.309203e+01 3.610000e+01
      endloop
   endfacet
   facet normal -7.933534e-01 -6.087613e-01 -0.000000e+00
      outer loop
         vertex 1.249203e+01 1.309203e+01 3.860000e+01
         vertex 1.249203e+01 1.309203e+01 3.610000e+01
         vertex 1.298468e+01 1.245000e+01 3.860000e+01
      endloop
   endfacet
   facet normal -7.933534e-01 -6.087613e-01 -0.000000e+00
      outer loop
         vertex 1.298468e+01 1.245000e+01 3.860000e+01
         vertex 1.249203e+01 1.309203e+01 3.610000e+01
         vertex 1.298468e+01 1.245000e+01 3.610000e+01
      endloop
   endfacet
   facet normal -9.238795e-01 -3.826835e-01 -0.000000e+00
      outer loop
         vertex 1.298468e+01 1.245000e+01 3.860000e+01
         vertex 1.298468e+01 1.245000e+01 3.610000e+01
         vertex 1.329437e+01 1.170234e+01 3.860000e+01
      endloop
   endfacet
   facet normal -9.238795e-01 -3.826835e-01 -0.000000e+00
      outer loop
         vertex 1.329437e+01 1.170234e+01 3.860000e+01
         vertex 1.298468e+01 1.245000e+01 3.610000e+01
         vertex 1.329437e+01 1.170234e+01 3.610000e+01
      endloop
   endfacet
   facet normal -9.914448e-01 -1.305264e-01 -0.000000e+00
      outer loop
         vertex 1.329437e+01 1.170234e+01 3.860000e+01
         vertex 1.329437e+01 1.170234e+01 3.610000e+01
         vertex 1.340000e+01 1.090000e+01 3.860000e+01
      endloop
   endfacet
   facet normal -9.914448e-01 -1.305264e-01 -0.000000e+00
      outer loop
         vertex 1.340000e+01 1.090000e+01 3.860000e+01
         vertex 1.329437e+01 1.170234e+01 3.610000e+01
         vertex 1.340000e+01 1.090000e+01 3.610000e+01
      endloop
   endfacet
   facet normal 1.000000e+00 0.000000e+00 0.000000e+00
      outer loop
         vertex 7.200000e+00 1.090000e+01 3.860000e+01
         vertex 7.200000e+00 6.600000e+00 3.860000e+01
         vertex 7.200000e+00 1.090000e+01 3.610000e+01
      endloop
   endfacet
   facet normal 1.000000e+00 0.000000e+00 0.000000e+00
      outer loop
         vertex 7.200000e+00 1.090000e+01 3.610000e+01
         vertex 7.200000e+00 6.600000e+00 3.860000e+01
         vertex 7.200000e+00 6.600000e+00 3.610000e+01
      endloop
   endfacet
   facet normal -9.914448e-01 1.305264e-01 0.000000e+00
      outer loop
         vertex 1.340000e+01 6.600000e+00 3.860000e+01
         vertex 1.340000e+01 6.600000e+00 3.610000e+01
         vertex 1.329437e+01 5.797661e+00 3.860000e+01
      endloop
   endfacet
   facet normal -9.914448e-01 1.305264e-01 0.000000e+00
      outer loop
         vertex 1.329437e+01 5.797661e+00 3.860000e+01
         vertex 1.340000e+01 6.600000e+00 3.610000e+01
         vertex 1.329437e+01 5.797661e+00 3.610000e+01
      endloop
   endfacet
   facet normal -9.238795e-01 3.826835e-01 0.000000e+00
      outer loop
         vertex 1.329437e+01 5.797661e+00 3.860000e+01
         vertex 1.329437e+01 5.797661e+00 3.610000e+01
         vertex 1.298468e+01 5.050000e+00 3.860000e+01
      endloop
   endfacet
   facet normal -9.238795e-01 3.826835e-01 0.000000e+00
      outer loop
         vertex 1.298468e+01 5.050000e+00 3.860000e+01
         vertex 1.329437e+01 5.797661e+00 3.610000e+01
         vertex 1.298468e+01 5.050000e+00 3.610000e+01
      endloop
   endfacet
   facet normal -7.933534e-01 6.087613e-01 0.000000e+00
      outer loop
         vertex 1.298468e+01 5.050000e+00 3.860000e+01
         vertex 1.298468e+01 5.050000e+00 3.610000e+01
         vertex 1.249203e+01 4.407969e+00 3.860000e+01
      endloop
   endfacet
   facet normal -7.933534e-01 6.087613e-01 0.000000e+00
      outer loop
         vertex 1.249203e+01 4.407969e+00 3.860000e+01
         vertex 1.298468e+01 5.050000e+00 3.610000e+01
         vertex 1.249203e+01 4.407969e+00 3.610000e+01
      endloop
   endfacet
   facet normal -6.087614e-01 7.933534e-01 0.000000e+00
      outer loop
         vertex 1.249203e+01 4.407969e+00 3.860000e+01
         vertex 1.249203e+01 4.407969e+00 3.610000e+01
         vertex 1.185000e+01 3.915322e+00 3.860000e+01
      endloop
   endfacet
   facet normal -6.087614e-01 7.933534e-01 0.000000e+00
      outer loop
         vertex 1.185000e+01 3.915322e+00 3.860000e+01
         vertex 1.249203e+01 4.407969e+00 3.610000e+01
         vertex 1.185000e+01 3.915322e+00 3.610000e+01
      endloop
   endfacet
   facet normal -3.826834e-01 9.238795e-01 0.000000e+00
      outer loop
         vertex 1.185000e+01 3.915322e+00 3.860000e+01
         vertex 1.185000e+01 3.915322e+00 3.610000e+01
         vertex 1.110234e+01 3.605630e+00 3.860000e+01
      endloop
   endfacet
   facet normal -3.826834e-01 9.238795e-01 0.000000e+00
      outer loop
         vertex 1.110234e+01 3.605630e+00 3.860000e+01
         vertex 1.185000e+01 3.915322e+00 3.610000e+01
         vertex 1.110234e+01 3.605630e+00 3.610000e+01
      endloop
   endfacet
   facet normal -1.305264e-01 9.914448e-01 0.000000e+00
      outer loop
         vertex 1.110234e+01 3.605630e+00 3.860000e+01
         vertex 1.110234e+01 3.605630e+00 3.610000e+01
         vertex 1.030000e+01 3.500000e+00 3.860000e+01
      endloop
   endfacet
   facet normal -1.305264e-01 9.914448e-01 0.000000e+00
      outer loop
         vertex 1.030000e+01 3.500000e+00 3.860000e+01
         vertex 1.110234e+01 3.605630e+00 3.610000e+01
         vertex 1.030000e+01 3.500000e+00 3.610000e+01
      endloop
   endfacet
   facet normal 1.305264e-01 9.914448e-01 0.000000e+00
      outer loop
         vertex 1.030000e+01 3.500000e+00 3.860000e+01
         vertex 1.030000e+01 3.500000e+00 3.610000e+01
         vertex 9.497661e+00 3.605630e+00 3.860000e+01
      endloop
   endfacet
   facet normal 1.305264e-01 9.914448e-01 0.000000e+00
      outer loop
         vertex 9.497661e+00 3.605630e+00 3.860000e+01
         vertex 1.030000e+01 3.500000e+00 3.610000e+01
         vertex 9.497661e+00 3.605630e+00 3.610000e+01
      endloop
   endfacet
   facet normal 3.826834e-01 9.238795e-01 0.000000e+00
      outer loop
         vertex 9.497661e+00 3.605630e+00 3.860000e+01
         vertex 9.497661e+00 3.605630e+00 3.610000e+01
         vertex 8.750000e+00 3.915322e+00 3.860000e+01
      endloop
   endfacet
   facet normal 3.826834e-01 9.238795e-01 0.000000e+00
      outer loop
         vertex 8.750000e+00 3.915322e+00 3.860000e+01
         vertex 9.497661e+00 3.605630e+00 3.610000e+01
         vertex 8.750000e+00 3.915322e+00 3.610000e+01
      endloop
   endfacet
   facet normal 6.087614e-01 7.933534e-01 0.000000e+00
      outer loop
         vertex 8.750000e+00 3.915322e+00 3.860000e+01
         vertex 8.750000e+00 3.915322e+00 3.610000e+01
         vertex 8.107969e+00 4.407969e+00 3.860000e+01
      endloop
   endfacet
   facet normal 6.087614e-01 7.933534e-01 0.000000e+00
      outer loop
         vertex 8.107969e+00 4.407969e+00 3.860000e+01
         vertex 8.750000e+00 3.915322e+00 3.610000e+01
         vertex 8.107969e+00 4.407969e+00 3.610000e+01
      endloop
   endfacet
   facet normal 7.933534e-01 6.087613e-01 0.000000e+00
      outer loop
         vertex 8.107969e+00 4.407969e+00 3.860000e+01
         vertex 8.107969e+00 4.407969e+00 3.610000e+01
         vertex 7.615322e+00 5.050000e+00 3.860000e+01
      endloop
   endfacet
   facet normal 7.933534e-01 6.087613e-01 0.000000e+00
      outer loop
         vertex 7.615322e+00 5.050000e+00 3.860000e+01
         vertex 8.107969e+00 4.407969e+00 3.610000e+01
         vertex 7.615322e+00 5.050000e+00 3.610000e+01
      endloop
   endfacet
   facet normal 9.238795e-01 3.826835e-01 0.000000e+00
      outer loop
         vertex 7.615322e+00 5.050000e+00 3.860000e+01
         vertex 7.615322e+00 5.050000e+00 3.610000e+01
         vertex 7.305630e+00 5.797661e+00 3.860000e+01
      endloop
   endfacet
   facet normal 9.238795e-01 3.826835e-01 0.000000e+00
      outer loop
         vertex 7.305630e+00 5.797661e+00 3.860000e+01
         vertex 7.615322e+00 5.050000e+00 3.610000e+01
         vertex 7.305630e+00 5.797661e+00 3.610000e+01
      endloop
   endfacet
   facet normal 9.914448e-01 1.305264e-01 0.000000e+00
      outer loop
         vertex 7.305630e+00 5.797661e+00 3.860000e+01
         vertex 7.305630e+00 5.797661e+00 3.610000e+01
         vertex 7.200000e+00 6.600000e+00 3.860000e+01
      endloop
   endfacet
   facet normal 9.914448e-01 1.305264e-01 0.000000e+00
      outer loop
         vertex 7.200000e+00 6.600000e+00 3.860000e+01
         vertex 7.305630e+00 5.797661e+00 3.610000e+01
         vertex 7.200000e+00 6.600000e+00 3.610000e+01
      endloop
   endfacet
   facet normal -1.000000e+00 0.000000e+00 0.000000e+00
      outer loop
         vertex 1.340000e+01 6.600000e+00 3.860000e+01
         vertex 1.340000e+01 1.090000e+01 3.860000e+01
         vertex 1.340000e+01 6.600000e+00 3.610000e+01
      endloop
   endfacet
   facet normal -1.000000e+00 0.000000e+00 0.000000e+00
      outer loop
         vertex 1.340000e+01 6.600000e+00 3.610000e+01
         vertex 1.340000e+01 1.090000e+01 3.860000e+01
         vertex 1.340000e+01 1.090000e+01 3.610000e+01
      endloop
   endfacet
   facet normal 0.000000e+00 1.000000e+00 0.000000e+00
      outer loop
         vertex 4.500000e+00 3.500000e+00 2.000000e+00
         vertex 4.500000e+00 3.500000e+00 0.000000e+00
         vertex 1.000000e+00 3.500000e+00 2.000000e+00
      endloop
   endfacet
   facet normal 0.000000e+00 1.000000e+00 0.000000e+00
      outer loop
         vertex 1.000000e+00 3.500000e+00 2.000000e+00
         vertex 4.500000e+00 3.500000e+00 0.000000e+00
         vertex 0.000000e+00 3.500000e+00 0.000000e+00
      endloop
   endfacet
   facet normal 0.000000e+00 1.000000e+00 -0.000000e+00
      outer loop
         vertex 1.000000e+00 3.500000e+00 2.000000e+00
         vertex 0.000000e+00 3.500000e+00 0.000000e+00
         vertex 1.000000e+00 3.500000e+00 9.300001e+00
      endloop
   endfacet
   facet normal 0.000000e+00 1.000000e+00 0.000000e+00
      outer loop
         vertex 1.000000e+00 3.500000e+00 9.300001e+00
         vertex 0.000000e+00 3.500000e+00 0.000000e+00
         vertex 0.000000e+00 3.500000e+00 1.080000e+01
      endloop
   endfacet
   facet normal 0.000000e+00 1.000000e+00 0.000000e+00
      outer loop
         vertex 1.610000e+01 3.500000e+00 0.000000e+00
         vertex 1.610000e+01 3.500000e+00 2.000000e+00
         vertex 2.060000e+01 3.500000e+00 0.000000e+00
      endloop
   endfacet
   facet normal 0.000000e+00 1.000000e+00 0.000000e+00
      outer loop
         vertex 2.060000e+01 3.500000e+00 0.000000e+00
         vertex 1.610000e+01 3.500000e+00 2.000000e+00
         vertex 1.960000e+01 3.500000e+00 2.000000e+00
      endloop
   endfacet
   facet normal 0.000000e+00 1.000000e+00 -0.000000e+00
      outer loop
         vertex 2.060000e+01 3.500000e+00 0.000000e+00
         vertex 1.960000e+01 3.500000e+00 2.000000e+00
         vertex 2.060000e+01 3.500000e+00 1.080000e+01
      endloop
   endfacet
   facet normal 0.000000e+00 1.000000e+00 0.000000e+00
      outer loop
         vertex 2.060000e+01 3.500000e+00 1.080000e+01
         vertex 1.960000e+01 3.500000e+00 2.000000e+00
         vertex 1.960000e+01 3.500000e+00 9.300001e+00
      endloop
   endfacet
   facet normal 0.000000e+00 1.000000e+00 0.000000e+00
      outer loop
         vertex 2.060000e+01 3.500000e+00 1.080000e+01
         vertex 1.960000e+01 3.500000e+00 9.300001e+00
         vertex 1.895332e+01 3.500000e+00 1.080000e+01
      endloop
   endfacet
   facet normal 0.000000e+00 1.000000e+00 0.000000e+00
      outer loop
         vertex 1.895332e+01 3.500000e+00 1.080000e+01
         vertex 1.960000e+01 3.500000e+00 9.300001e+00
         vertex 1.000000e+00 3.500000e+00 9.300001e+00
      endloop
   endfacet
   facet normal 0.000000e+00 1.000000e+00 0.000000e+00
      outer loop
         vertex 1.895332e+01 3.500000e+00 1.080000e+01
         vertex 1.000000e+00 3.500000e+00 9.300001e+00
         vertex 1.646677e+00 3.500000e+00 1.080000e+01
      endloop
   endfacet
   facet normal 0.000000e+00 1.000000e+00 0.000000e+00
      outer loop
         vertex 1.646677e+00 3.500000e+00 1.080000e+01
         vertex 1.000000e+00 3.500000e+00 9.300001e+00
         vertex 0.000000e+00 3.500000e+00 1.080000e+01
      endloop
   endfacet
   facet normal 0.000000e+00 0.000000e+00 -1.000000e+00
      outer loop
         vertex 0.000000e+00 5.300000e+00 1.080000e+01
         vertex 7.564155e-01 5.300000e+00 1.080000e+01
         vertex 0.000000e+00 3.500000e+00 1.080000e+01
      endloop
   endfacet
   facet normal 0.000000e+00 0.000000e+00 -1.000000e+00
      outer loop
         vertex 0.000000e+00 3.500000e+00 1.080000e+01
         vertex 7.564155e-01 5.300000e+00 1.080000e+01
         vertex 1.418974e+00 3.883291e+00 1.080000e+01
      endloop
   endfacet
   facet normal 0.000000e+00 0.000000e+00 -1.000000e+00
      outer loop
         vertex 0.000000e+00 3.500000e+00 1.080000e+01
         vertex 1.418974e+00 3.883291e+00 1.080000e+01
         vertex 1.646677e+00 3.500000e+00 1.080000e+01
      endloop
   endfacet
   facet normal 0.000000e+00 -0.000000e+00 -1.000000e+00
      outer loop
         vertex 1.984358e+01 5.300000e+00 1.080000e+01
         vertex 2.060000e+01 5.300000e+00 1.080000e+01
         vertex 1.918103e+01 3.883291e+00 1.080000e+01
      endloop
   endfacet
   facet normal 0.000000e+00 0.000000e+00 -1.000000e+00
      outer loop
         vertex 1.918103e+01 3.883291e+00 1.080000e+01
         vertex 2.060000e+01 5.300000e+00 1.080000e+01
         vertex 2.060000e+01 3.500000e+00 1.080000e+01
      endloop
   endfacet
   facet normal 0.000000e+00 -0.000000e+00 -1.000000e+00
      outer loop
         vertex 1.918103e+01 3.883291e+00 1.080000e+01
         vertex 2.060000e+01 3.500000e+00 1.080000e+01
         vertex 1.895332e+01 3.500000e+00 1.080000e+01
      endloop
   endfacet
   facet normal -7.354818e-01 6.775445e-01 0.000000e+00
      outer loop
         vertex 1.725000e+01 1.434245e+00 1.080000e+01
         vertex 1.725000e+01 1.434245e+00 3.610000e+01
         vertex 1.830967e+01 2.584528e+00 1.080000e+01
      endloop
   endfacet
   facet normal -7.354818e-01 6.775445e-01 0.000000e+00
      outer loop
         vertex 1.830967e+01 2.584528e+00 1.080000e+01
         vertex 1.725000e+01 1.434245e+00 3.610000e+01
         vertex 1.830967e+01 2.584528e+00 3.610000e+01
      endloop
   endfacet
   facet normal -8.180450e-01 5.751542e-01 0.000000e+00
      outer loop
         vertex 1.830967e+01 2.584528e+00 1.080000e+01
         vertex 1.830967e+01 2.584528e+00 3.610000e+01
         vertex 1.895332e+01 3.500000e+00 1.080000e+01
      endloop
   endfacet
   facet normal -8.304190e-01 5.571385e-01 -9.666964e-04
      outer loop
         vertex 1.895332e+01 3.500000e+00 1.080000e+01
         vertex 1.830967e+01 2.584528e+00 3.610000e+01
         vertex 1.918103e+01 3.883291e+00 3.610000e+01
      endloop
   endfacet
   facet normal -9.058330e-01 4.236349e-01 0.000000e+00
      outer loop
         vertex 1.984358e+01 5.300000e+00 3.610000e+01
         vertex 1.984358e+01 5.300000e+00 1.080000e+01
         vertex 1.918103e+01 3.883291e+00 3.610000e+01
      endloop
   endfacet
   facet normal -9.058330e-01 4.236349e-01 0.000000e+00
      outer loop
         vertex 1.918103e+01 3.883291e+00 3.610000e+01
         vertex 1.984358e+01 5.300000e+00 1.080000e+01
         vertex 1.918103e+01 3.883291e+00 1.080000e+01
      endloop
   endfacet
   facet normal -8.597328e-01 5.107440e-01 0.000000e+00
      outer loop
         vertex 1.918103e+01 3.883291e+00 3.610000e+01
         vertex 1.918103e+01 3.883291e+00 1.080000e+01
         vertex 1.895332e+01 3.500000e+00 1.080000e+01
      endloop
   endfacet
   facet normal 9.058330e-01 4.236349e-01 -0.000000e+00
      outer loop
         vertex 7.564155e-01 5.300000e+00 1.080000e+01
         vertex 7.564155e-01 5.300000e+00 3.610000e+01
         vertex 1.418974e+00 3.883291e+00 1.080000e+01
      endloop
   endfacet
   facet normal 9.058330e-01 4.236349e-01 -0.000000e+00
      outer loop
         vertex 1.418974e+00 3.883291e+00 1.080000e+01
         vertex 7.564155e-01 5.300000e+00 3.610000e+01
         vertex 1.418974e+00 3.883291e+00 3.610000e+01
      endloop
   endfacet
   facet normal 8.597328e-01 5.107440e-01 -0.000000e+00
      outer loop
         vertex 1.418974e+00 3.883291e+00 1.080000e+01
         vertex 1.418974e+00 3.883291e+00 3.610000e+01
         vertex 1.646677e+00 3.500000e+00 1.080000e+01
      endloop
   endfacet
   facet normal 8.304190e-01 5.571385e-01 -9.666964e-04
      outer loop
         vertex 1.646677e+00 3.500000e+00 1.080000e+01
         vertex 1.418974e+00 3.883291e+00 3.610000e+01
         vertex 2.290331e+00 2.584528e+00 3.610000e+01
      endloop
   endfacet
   facet normal 7.354818e-01 6.775445e-01 0.000000e+00
      outer loop
         vertex 3.350000e+00 1.434245e+00 3.610000e+01
         vertex 3.350000e+00 1.434245e+00 1.080000e+01
         vertex 2.290331e+00 2.584528e+00 3.610000e+01
      endloop
   endfacet
   facet normal 7.354818e-01 6.775445e-01 0.000000e+00
      outer loop
         vertex 2.290331e+00 2.584528e+00 3.610000e+01
         vertex 3.350000e+00 1.434245e+00 1.080000e+01
         vertex 2.290331e+00 2.584528e+00 1.080000e+01
      endloop
   endfacet
   facet normal 8.180450e-01 5.751542e-01 0.000000e+00
      outer loop
         vertex 2.290331e+00 2.584528e+00 3.610000e+01
         vertex 2.290331e+00 2.584528e+00 1.080000e+01
         vertex 1.646677e+00 3.500000e+00 1.080000e+01
      endloop
   endfacet
   facet normal -7.071068e-01 7.071068e-01 0.000000e+00
      outer loop
         vertex 2.000000e+00 1.720000e+01 3.610000e+01
         vertex 0.000000e+00 1.520000e+01 3.610000e+01
         vertex 2.000000e+00 1.720000e+01 3.860000e+01
      endloop
   endfacet
   facet normal -7.071068e-01 7.071068e-01 0.000000e+00
      outer loop
         vertex 2.000000e+00 1.720000e+01 3.860000e+01
         vertex 0.000000e+00 1.520000e+01 3.610000e+01
         vertex 0.000000e+00 1.520000e+01 3.860000e+01
      endloop
   endfacet
   facet normal 7.071068e-01 7.071068e-01 -0.000000e+00
      outer loop
         vertex 2.060000e+01 1.520000e+01 3.610000e+01
         vertex 1.860000e+01 1.720000e+01 3.610000e+01
         vertex 2.060000e+01 1.520000e+01 3.860000e+01
      endloop
   endfacet
   facet normal 7.071068e-01 7.071068e-01 0.000000e+00
      outer loop
         vertex 2.060000e+01 1.520000e+01 3.860000e+01
         vertex 1.860000e+01 1.720000e+01 3.610000e+01
         vertex 1.860000e+01 1.720000e+01 3.860000e+01
      endloop
   endfacet
   facet normal -8.682432e-01 4.961389e-01 0.000000e+00
      outer loop
         vertex 1.760000e+01 0.000000e+00 2.000000e+00
         vertex 1.760000e+01 0.000000e+00 9.300001e+00
         vertex 1.960000e+01 3.500000e+00 2.000000e+00
      endloop
   endfacet
   facet normal -8.682432e-01 4.961389e-01 0.000000e+00
      outer loop
         vertex 1.960000e+01 3.500000e+00 2.000000e+00
         vertex 1.760000e+01 0.000000e+00 9.300001e+00
         vertex 1.960000e+01 3.500000e+00 9.300001e+00
      endloop
   endfacet
   facet normal 0.000000e+00 0.000000e+00 -1.000000e+00
      outer loop
         vertex 1.610000e+01 3.500000e+00 0.000000e+00
         vertex 2.060000e+01 3.500000e+00 0.000000e+00
         vertex 1.610000e+01 0.000000e+00 0.000000e+00
      endloop
   endfacet
   facet normal 0.000000e+00 0.000000e+00 -1.000000e+00
      outer loop
         vertex 1.610000e+01 0.000000e+00 0.000000e+00
         vertex 2.060000e+01 3.500000e+00 0.000000e+00
         vertex 2.060000e+01 0.000000e+00 0.000000e+00
      endloop
   endfacet
   facet normal 8.682432e-01 4.961389e-01 -0.000000e+00
      outer loop
         vertex 1.000000e+00 3.500000e+00 2.000000e+00
         vertex 1.000000e+00 3.500000e+00 9.300001e+00
         vertex 3.000000e+00 0.000000e+00 2.000000e+00
      endloop
   endfacet
   facet normal 8.682432e-01 4.961389e-01 -0.000000e+00
      outer loop
         vertex 3.000000e+00 0.000000e+00 2.000000e+00
         vertex 1.000000e+00 3.500000e+00 9.300001e+00
         vertex 3.000000e+00 0.000000e+00 9.300001e+00
      endloop
   endfacet
   facet normal 0.000000e+00 0.000000e+00 -1.000000e+00
      outer loop
         vertex 4.500000e+00 0.000000e+00 0.000000e+00
         vertex 0.000000e+00 0.000000e+00 0.000000e+00
         vertex 4.500000e+00 3.500000e+00 0.000000e+00
      endloop
   endfacet
   facet normal -0.000000e+00 0.000000e+00 -1.000000e+00
      outer loop
         vertex 4.500000e+00 3.500000e+00 0.000000e+00
         vertex 0.000000e+00 0.000000e+00 0.000000e+00
         vertex 0.000000e+00 3.500000e+00 0.000000e+00
      endloop
   endfacet
   facet normal -0.000000e+00 0.000000e+00 1.000000e+00
      outer loop
         vertex 1.610000e+01 3.500000e+00 2.000000e+00
         vertex 1.610000e+01 0.000000e+00 2.000000e+00
         vertex 1.960000e+01 3.500000e+00 2.000000e+00
      endloop
   endfacet
   facet normal 0.000000e+00 0.000000e+00 1.000000e+00
      outer loop
         vertex 1.960000e+01 3.500000e+00 2.000000e+00
         vertex 1.610000e+01 0.000000e+00 2.000000e+00
         vertex 1.760000e+01 0.000000e+00 2.000000e+00
      endloop
   endfacet
   facet normal -1.000000e+00 0.000000e+00 0.000000e+00
      outer loop
         vertex 1.610000e+01 0.000000e+00 2.000000e+00
         vertex 1.610000e+01 3.500000e+00 2.000000e+00
         vertex 1.610000e+01 0.000000e+00 0.000000e+00
      endloop
   endfacet
   facet normal -1.000000e+00 0.000000e+00 0.000000e+00
      outer loop
         vertex 1.610000e+01 0.000000e+00 0.000000e+00
         vertex 1.610000e+01 3.500000e+00 2.000000e+00
         vertex 1.610000e+01 3.500000e+00 0.000000e+00
      endloop
   endfacet
   facet normal 0.000000e+00 -0.000000e+00 1.000000e+00
      outer loop
         vertex 4.500000e+00 0.000000e+00 2.000000e+00
         vertex 4.500000e+00 3.500000e+00 2.000000e+00
         vertex 3.000000e+00 0.000000e+00 2.000000e+00
      endloop
   endfacet
   facet normal 0.000000e+00 -0.000000e+00 1.000000e+00
      outer loop
         vertex 3.000000e+00 0.000000e+00 2.000000e+00
         vertex 4.500000e+00 3.500000e+00 2.000000e+00
         vertex 1.000000e+00 3.500000e+00 2.000000e+00
      endloop
   endfacet
   facet normal 1.000000e+00 0.000000e+00 0.000000e+00
      outer loop
         vertex 4.500000e+00 3.500000e+00 2.000000e+00
         vertex 4.500000e+00 0.000000e+00 2.000000e+00
         vertex 4.500000e+00 3.500000e+00 0.000000e+00
      endloop
   endfacet
   facet normal 1.000000e+00 0.000000e+00 0.000000e+00
      outer loop
         vertex 4.500000e+00 3.500000e+00 0.000000e+00
         vertex 4.500000e+00 0.000000e+00 2.000000e+00
         vertex 4.500000e+00 0.000000e+00 0.000000e+00
      endloop
   endfacet
endsolid