solid suspension adjustment 4mm
   facet normal -1.000000e+00 -0.000000e+00 -0.000000e+00
      outer loop
         vertex 5.450000e+00 4.000000e+00 8.672880e+00
         vertex 5.450000e+00 4.000000e+00 7.686335e+00
         vertex 5.450000e+00 0.000000e+00 8.672880e+00
      endloop
   endfacet
   facet normal -1.000000e+00 0.000000e+00 0.000000e+00
      outer loop
         vertex 5.450000e+00 0.000000e+00 8.672880e+00
         vertex 5.450000e+00 4.000000e+00 7.686335e+00
         vertex 5.450000e+00 0.000000e+00 7.686335e+00
      endloop
   endfacet
   facet normal 2.980768e-01 0.000000e+00 9.545419e-01
      outer loop
         vertex 5.450000e+00 4.000000e+00 8.672880e+00
         vertex 5.450000e+00 0.000000e+00 8.672880e+00
         vertex 5.968080e+00 0.000000e+00 8.511098e+00
      endloop
   endfacet
   facet normal 2.980768e-01 0.000000e+00 9.545419e-01
      outer loop
         vertex 5.450000e+00 4.000000e+00 8.672880e+00
         vertex 5.968080e+00 0.000000e+00 8.511098e+00
         vertex 5.968080e+00 4.000000e+00 8.511098e+00
      endloop
   endfacet
   facet normal 4.133298e-01 0.000000e+00 9.105814e-01
      outer loop
         vertex 5.968080e+00 4.000000e+00 8.511098e+00
         vertex 5.968080e+00 0.000000e+00 8.511098e+00
         vertex 6.462300e+00 0.000000e+00 8.286762e+00
      endloop
   endfacet
   facet normal 4.133298e-01 0.000000e+00 9.105814e-01
      outer loop
         vertex 5.968080e+00 4.000000e+00 8.511098e+00
         vertex 6.462300e+00 0.000000e+00 8.286762e+00
         vertex 6.462300e+00 4.000000e+00 8.286762e+00
      endloop
   endfacet
   facet normal 5.222943e-01 0.000000e+00 8.527653e-01
      outer loop
         vertex 6.462300e+00 4.000000e+00 8.286762e+00
         vertex 6.462300e+00 0.000000e+00 8.286762e+00
         vertex 6.925140e+00 0.000000e+00 8.003286e+00
      endloop
   endfacet
   facet normal 5.222943e-01 0.000000e+00 8.527653e-01
      outer loop
         vertex 6.462300e+00 4.000000e+00 8.286762e+00
         vertex 6.925140e+00 0.000000e+00 8.003286e+00
         vertex 6.925140e+00 4.000000e+00 8.003286e+00
      endloop
   endfacet
   facet normal 6.233114e-01 0.000000e+00 7.819737e-01
      outer loop
         vertex 6.925140e+00 4.000000e+00 8.003286e+00
         vertex 6.925140e+00 0.000000e+00 8.003286e+00
         vertex 7.349558e+00 0.000000e+00 7.664982e+00
      endloop
   endfacet
   facet normal 6.233114e-01 0.000000e+00 7.819737e-01
      outer loop
         vertex 6.925140e+00 4.000000e+00 8.003286e+00
         vertex 7.349558e+00 0.000000e+00 7.664982e+00
         vertex 7.349558e+00 4.000000e+00 7.664982e+00
      endloop
   endfacet
   facet normal 7.148444e-01 0.000000e+00 6.992835e-01
      outer loop
         vertex 7.349558e+00 4.000000e+00 7.664982e+00
         vertex 7.349558e+00 0.000000e+00 7.664982e+00
         vertex 7.729096e+00 0.000000e+00 7.276999e+00
      endloop
   endfacet
   facet normal 7.148444e-01 0.000000e+00 6.992835e-01
      outer loop
         vertex 7.349558e+00 4.000000e+00 7.664982e+00
         vertex 7.729096e+00 0.000000e+00 7.276999e+00
         vertex 7.729096e+00 4.000000e+00 7.276999e+00
      endloop
   endfacet
   facet normal 7.955001e-01 0.000000e+00 6.059534e-01
      outer loop
         vertex 7.729096e+00 4.000000e+00 7.276999e+00
         vertex 7.729096e+00 0.000000e+00 7.276999e+00
         vertex 8.057978e+00 0.000000e+00 6.845239e+00
      endloop
   endfacet
   facet normal 7.955001e-01 0.000000e+00 6.059534e-01
      outer loop
         vertex 7.729096e+00 4.000000e+00 7.276999e+00
         vertex 8.057978e+00 0.000000e+00 6.845239e+00
         vertex 8.057978e+00 4.000000e+00 6.845239e+00
      endloop
   endfacet
   facet normal 8.640515e-01 0.000000e+00 5.034034e-01
      outer loop
         vertex 8.057978e+00 4.000000e+00 6.845239e+00
         vertex 8.057978e+00 0.000000e+00 6.845239e+00
         vertex 8.331202e+00 0.000000e+00 6.376273e+00
      endloop
   endfacet
   facet normal 8.640515e-01 0.000000e+00 5.034034e-01
      outer loop
         vertex 8.057978e+00 4.000000e+00 6.845239e+00
         vertex 8.331202e+00 0.000000e+00 6.376273e+00
         vertex 8.331202e+00 4.000000e+00 6.376273e+00
      endloop
   endfacet
   facet normal 9.194562e-01 0.000000e+00 3.931924e-01
      outer loop
         vertex 8.331202e+00 4.000000e+00 6.376273e+00
         vertex 8.331202e+00 0.000000e+00 6.376273e+00
         vertex 8.544608e+00 0.000000e+00 5.877236e+00
      endloop
   endfacet
   facet normal 9.194562e-01 0.000000e+00 3.931924e-01
      outer loop
         vertex 8.331202e+00 4.000000e+00 6.376273e+00
         vertex 8.544608e+00 0.000000e+00 5.877236e+00
         vertex 8.544608e+00 4.000000e+00 5.877236e+00
      endloop
   endfacet
   facet normal 9.608699e-01 0.000000e+00 2.770002e-01
      outer loop
         vertex 8.544608e+00 4.000000e+00 5.877236e+00
         vertex 8.544608e+00 0.000000e+00 5.877236e+00
         vertex 8.694950e+00 0.000000e+00 5.355722e+00
      endloop
   endfacet
   facet normal 9.608699e-01 0.000000e+00 2.770002e-01
      outer loop
         vertex 8.544608e+00 4.000000e+00 5.877236e+00
         vertex 8.694950e+00 0.000000e+00 5.355722e+00
         vertex 8.694950e+00 4.000000e+00 5.355722e+00
      endloop
   endfacet
   facet normal 9.876634e-01 0.000000e+00 1.565920e-01
      outer loop
         vertex 8.694950e+00 4.000000e+00 5.355722e+00
         vertex 8.694950e+00 0.000000e+00 5.355722e+00
         vertex 8.779941e+00 0.000000e+00 4.819666e+00
      endloop
   endfacet
   facet normal 9.876634e-01 0.000000e+00 1.565920e-01
      outer loop
         vertex 8.694950e+00 4.000000e+00 5.355722e+00
         vertex 8.779941e+00 0.000000e+00 4.819666e+00
         vertex 8.779941e+00 4.000000e+00 4.819666e+00
      endloop
   endfacet
   facet normal 9.994285e-01 0.000000e+00 3.380202e-02
      outer loop
         vertex 8.779941e+00 4.000000e+00 4.819666e+00
         vertex 8.779941e+00 0.000000e+00 4.819666e+00
         vertex 8.798287e+00 0.000000e+00 4.277224e+00
      endloop
   endfacet
   facet normal 9.994285e-01 0.000000e+00 3.380202e-02
      outer loop
         vertex 8.779941e+00 4.000000e+00 4.819666e+00
         vertex 8.798287e+00 0.000000e+00 4.277224e+00
         vertex 8.798287e+00 4.000000e+00 4.277224e+00
      endloop
   endfacet
   facet normal 9.959865e-01 0.000000e+00 -8.950354e-02
      outer loop
         vertex 8.798287e+00 4.000000e+00 4.277224e+00
         vertex 8.798287e+00 0.000000e+00 4.277224e+00
         vertex 8.749709e+00 0.000000e+00 3.736650e+00
      endloop
   endfacet
   facet normal 9.959865e-01 0.000000e+00 -8.950354e-02
      outer loop
         vertex 8.798287e+00 4.000000e+00 4.277224e+00
         vertex 8.749709e+00 0.000000e+00 3.736650e+00
         vertex 8.749709e+00 4.000000e+00 3.736650e+00
      endloop
   endfacet
   facet normal 9.773897e-01 0.000000e+00 -2.114458e-01
      outer loop
         vertex 8.749709e+00 4.000000e+00 3.736650e+00
         vertex 8.749709e+00 0.000000e+00 3.736650e+00
         vertex 8.634946e+00 0.000000e+00 3.206169e+00
      endloop
   endfacet
   facet normal 9.773897e-01 0.000000e+00 -2.114458e-01
      outer loop
         vertex 8.749709e+00 4.000000e+00 3.736650e+00
         vertex 8.634946e+00 0.000000e+00 3.206169e+00
         vertex 8.634946e+00 4.000000e+00 3.206169e+00
      endloop
   endfacet
   facet normal 9.439212e-01 0.000000e+00 -3.301708e-01
      outer loop
         vertex 8.634946e+00 4.000000e+00 3.206169e+00
         vertex 8.634946e+00 0.000000e+00 3.206169e+00
         vertex 8.455745e+00 0.000000e+00 2.693854e+00
      endloop
   endfacet
   facet normal 9.439212e-01 0.000000e+00 -3.301708e-01
      outer loop
         vertex 8.634946e+00 4.000000e+00 3.206169e+00
         vertex 8.455745e+00 0.000000e+00 2.693854e+00
         vertex 8.455745e+00 4.000000e+00 2.693854e+00
      endloop
   endfacet
   facet normal 8.960895e-01 0.000000e+00 -4.438734e-01
      outer loop
         vertex 8.455745e+00 4.000000e+00 2.693854e+00
         vertex 8.455745e+00 0.000000e+00 2.693854e+00
         vertex 8.214832e+00 0.000000e+00 2.207499e+00
      endloop
   endfacet
   facet normal 8.960895e-01 0.000000e+00 -4.438734e-01
      outer loop
         vertex 8.455745e+00 4.000000e+00 2.693854e+00
         vertex 8.214832e+00 0.000000e+00 2.207499e+00
         vertex 8.214832e+00 4.000000e+00 2.207499e+00
      endloop
   endfacet
   facet normal 8.346235e-01 0.000000e+00 -5.508209e-01
      outer loop
         vertex 8.214832e+00 4.000000e+00 2.207499e+00
         vertex 8.214832e+00 0.000000e+00 2.207499e+00
         vertex 7.915872e+00 0.000000e+00 1.754506e+00
      endloop
   endfacet
   facet normal 8.346235e-01 0.000000e+00 -5.508209e-01
      outer loop
         vertex 8.214832e+00 4.000000e+00 2.207499e+00
         vertex 7.915872e+00 0.000000e+00 1.754506e+00
         vertex 7.915872e+00 4.000000e+00 1.754506e+00
      endloop
   endfacet
   facet normal 7.604579e-01 0.000000e+00 -6.493873e-01
      outer loop
         vertex 7.915872e+00 4.000000e+00 1.754506e+00
         vertex 7.915872e+00 0.000000e+00 1.754506e+00
         vertex 7.563416e+00 0.000000e+00 1.341765e+00
      endloop
   endfacet
   facet normal 7.604579e-01 0.000000e+00 -6.493873e-01
      outer loop
         vertex 7.915872e+00 4.000000e+00 1.754506e+00
         vertex 7.563416e+00 0.000000e+00 1.341765e+00
         vertex 7.563416e+00 4.000000e+00 1.341765e+00
      endloop
   endfacet
   facet normal 6.747212e-01 0.000000e+00 -7.380727e-01
      outer loop
         vertex 7.563416e+00 4.000000e+00 1.341765e+00
         vertex 7.563416e+00 0.000000e+00 1.341765e+00
         vertex 7.162825e+00 0.000000e+00 9.755590e-01
      endloop
   endfacet
   facet normal 6.747212e-01 0.000000e+00 -7.380727e-01
      outer loop
         vertex 7.563416e+00 4.000000e+00 1.341765e+00
         vertex 7.162825e+00 0.000000e+00 9.755590e-01
         vertex 7.162825e+00 4.000000e+00 9.755590e-01
      endloop
   endfacet
   facet normal 5.787177e-01 0.000000e+00 -8.155279e-01
      outer loop
         vertex 7.162825e+00 4.000000e+00 9.755590e-01
         vertex 7.162825e+00 0.000000e+00 9.755590e-01
         vertex 6.720196e+00 0.000000e+00 6.614586e-01
      endloop
   endfacet
   facet normal 5.787177e-01 0.000000e+00 -8.155279e-01
      outer loop
         vertex 7.162825e+00 4.000000e+00 9.755590e-01
         vertex 6.720196e+00 0.000000e+00 6.614586e-01
         vertex 6.720196e+00 4.000000e+00 6.614586e-01
      endloop
   endfacet
   facet normal 4.739091e-01 0.000000e+00 -8.805738e-01
      outer loop
         vertex 6.720196e+00 4.000000e+00 6.614586e-01
         vertex 6.720196e+00 0.000000e+00 6.614586e-01
         vertex 6.242262e+00 0.000000e+00 4.042434e-01
      endloop
   endfacet
   facet normal 4.739091e-01 0.000000e+00 -8.805738e-01
      outer loop
         vertex 6.720196e+00 4.000000e+00 6.614586e-01
         vertex 6.242262e+00 0.000000e+00 4.042434e-01
         vertex 6.242262e+00 4.000000e+00 4.042434e-01
      endloop
   endfacet
   facet normal 3.618888e-01 0.000000e+00 -9.322213e-01
      outer loop
         vertex 6.242262e+00 4.000000e+00 4.042434e-01
         vertex 6.242262e+00 0.000000e+00 4.042434e-01
         vertex 5.736297e+00 0.000000e+00 2.078274e-01
      endloop
   endfacet
   facet normal 3.618888e-01 0.000000e+00 -9.322213e-01
      outer loop
         vertex 6.242262e+00 4.000000e+00 4.042434e-01
         vertex 5.736297e+00 0.000000e+00 2.078274e-01
         vertex 5.736297e+00 4.000000e+00 2.078274e-01
      endloop
   endfacet
   facet normal 2.443624e-01 0.000000e+00 -9.696840e-01
      outer loop
         vertex 5.736297e+00 4.000000e+00 2.078274e-01
         vertex 5.736297e+00 0.000000e+00 2.078274e-01
         vertex 5.209999e+00 0.000000e+00 7.519918e-02
      endloop
   endfacet
   facet normal 2.443624e-01 0.000000e+00 -9.696840e-01
      outer loop
         vertex 5.736297e+00 4.000000e+00 2.078274e-01
         vertex 5.209999e+00 0.000000e+00 7.519918e-02
         vertex 5.209999e+00 4.000000e+00 7.519918e-02
      endloop
   endfacet
   facet normal 1.231177e-01 0.000000e+00 -9.923921e-01
      outer loop
         vertex 5.209999e+00 4.000000e+00 7.519918e-02
         vertex 5.209999e+00 0.000000e+00 7.519918e-02
         vertex 4.671376e+00 0.000000e+00 8.376781e-03
      endloop
   endfacet
   facet normal 1.231177e-01 0.000000e+00 -9.923921e-01
      outer loop
         vertex 5.209999e+00 4.000000e+00 7.519918e-02
         vertex 4.671376e+00 0.000000e+00 8.376781e-03
         vertex 4.671376e+00 4.000000e+00 8.376781e-03
      endloop
   endfacet
   facet normal 0.000000e+00 -0.000000e+00 -1.000000e+00
      outer loop
         vertex 4.671376e+00 4.000000e+00 8.376781e-03
         vertex 4.671376e+00 0.000000e+00 8.376781e-03
         vertex 4.128624e+00 0.000000e+00 8.376781e-03
      endloop
   endfacet
   facet normal -0.000000e+00 0.000000e+00 -1.000000e+00
      outer loop
         vertex 4.671376e+00 4.000000e+00 8.376781e-03
         vertex 4.128624e+00 0.000000e+00 8.376781e-03
         vertex 4.128624e+00 4.000000e+00 8.376781e-03
      endloop
   endfacet
   facet normal -1.231177e-01 -0.000000e+00 -9.923921e-01
      outer loop
         vertex 4.128624e+00 4.000000e+00 8.376781e-03
         vertex 4.128624e+00 0.000000e+00 8.376781e-03
         vertex 3.590001e+00 0.000000e+00 7.519918e-02
      endloop
   endfacet
   facet normal -1.231177e-01 0.000000e+00 -9.923921e-01
      outer loop
         vertex 4.128624e+00 4.000000e+00 8.376781e-03
         vertex 3.590001e+00 0.000000e+00 7.519918e-02
         vertex 3.590001e+00 4.000000e+00 7.519918e-02
      endloop
   endfacet
   facet normal -2.443624e-01 -0.000000e+00 -9.696840e-01
      outer loop
         vertex 3.590001e+00 4.000000e+00 7.519918e-02
         vertex 3.590001e+00 0.000000e+00 7.519918e-02
         vertex 3.063703e+00 0.000000e+00 2.078274e-01
      endloop
   endfacet
   facet normal -2.443624e-01 0.000000e+00 -9.696840e-01
      outer loop
         vertex 3.590001e+00 4.000000e+00 7.519918e-02
         vertex 3.063703e+00 0.000000e+00 2.078274e-01
         vertex 3.063703e+00 4.000000e+00 2.078274e-01
      endloop
   endfacet
   facet normal -3.618888e-01 -0.000000e+00 -9.322213e-01
      outer loop
         vertex 3.063703e+00 4.000000e+00 2.078274e-01
         vertex 3.063703e+00 0.000000e+00 2.078274e-01
         vertex 2.557738e+00 0.000000e+00 4.042434e-01
      endloop
   endfacet
   facet normal -3.618888e-01 0.000000e+00 -9.322213e-01
      outer loop
         vertex 3.063703e+00 4.000000e+00 2.078274e-01
         vertex 2.557738e+00 0.000000e+00 4.042434e-01
         vertex 2.557738e+00 4.000000e+00 4.042434e-01
      endloop
   endfacet
   facet normal -4.739091e-01 -0.000000e+00 -8.805738e-01
      outer loop
         vertex 2.557738e+00 4.000000e+00 4.042434e-01
         vertex 2.557738e+00 0.000000e+00 4.042434e-01
         vertex 2.079804e+00 0.000000e+00 6.614586e-01
      endloop
   endfacet
   facet normal -4.739091e-01 0.000000e+00 -8.805738e-01
      outer loop
         vertex 2.557738e+00 4.000000e+00 4.042434e-01
         vertex 2.079804e+00 0.000000e+00 6.614586e-01
         vertex 2.079804e+00 4.000000e+00 6.614586e-01
      endloop
   endfacet
   facet normal -5.787177e-01 -0.000000e+00 -8.155279e-01
      outer loop
         vertex 2.079804e+00 4.000000e+00 6.614586e-01
         vertex 2.079804e+00 0.000000e+00 6.614586e-01
         vertex 1.637175e+00 0.000000e+00 9.755590e-01
      endloop
   endfacet
   facet normal -5.787177e-01 0.000000e+00 -8.155279e-01
      outer loop
         vertex 2.079804e+00 4.000000e+00 6.614586e-01
         vertex 1.637175e+00 0.000000e+00 9.755590e-01
         vertex 1.637175e+00 4.000000e+00 9.755590e-01
      endloop
   endfacet
   facet normal -6.747212e-01 -0.000000e+00 -7.380727e-01
      outer loop
         vertex 1.637175e+00 4.000000e+00 9.755590e-01
         vertex 1.637175e+00 0.000000e+00 9.755590e-01
         vertex 1.236584e+00 0.000000e+00 1.341765e+00
      endloop
   endfacet
   facet normal -6.747212e-01 0.000000e+00 -7.380727e-01
      outer loop
         vertex 1.637175e+00 4.000000e+00 9.755590e-01
         vertex 1.236584e+00 0.000000e+00 1.341765e+00
         vertex 1.236584e+00 4.000000e+00 1.341765e+00
      endloop
   endfacet
   facet normal -7.604579e-01 -0.000000e+00 -6.493873e-01
      outer loop
         vertex 1.236584e+00 4.000000e+00 1.341765e+00
         vertex 1.236584e+00 0.000000e+00 1.341765e+00
         vertex 8.841276e-01 0.000000e+00 1.754506e+00
      endloop
   endfacet
   facet normal -7.604579e-01 0.000000e+00 -6.493873e-01
      outer loop
         vertex 1.236584e+00 4.000000e+00 1.341765e+00
         vertex 8.841276e-01 0.000000e+00 1.754506e+00
         vertex 8.841276e-01 4.000000e+00 1.754506e+00
      endloop
   endfacet
   facet normal -8.346235e-01 -0.000000e+00 -5.508209e-01
      outer loop
         vertex 8.841276e-01 4.000000e+00 1.754506e+00
         vertex 8.841276e-01 0.000000e+00 1.754506e+00
         vertex 5.851684e-01 0.000000e+00 2.207499e+00
      endloop
   endfacet
   facet normal -8.346235e-01 0.000000e+00 -5.508209e-01
      outer loop
         vertex 8.841276e-01 4.000000e+00 1.754506e+00
         vertex 5.851684e-01 0.000000e+00 2.207499e+00
         vertex 5.851684e-01 4.000000e+00 2.207499e+00
      endloop
   endfacet
   facet normal -8.960895e-01 -0.000000e+00 -4.438734e-01
      outer loop
         vertex 5.851684e-01 4.000000e+00 2.207499e+00
         vertex 5.851684e-01 0.000000e+00 2.207499e+00
         vertex 3.442550e-01 0.000000e+00 2.693854e+00
      endloop
   endfacet
   facet normal -8.960895e-01 0.000000e+00 -4.438734e-01
      outer loop
         vertex 5.851684e-01 4.000000e+00 2.207499e+00
         vertex 3.442550e-01 0.000000e+00 2.693854e+00
         vertex 3.442550e-01 4.000000e+00 2.693854e+00
      endloop
   endfacet
   facet normal -9.439212e-01 -0.000000e+00 -3.301708e-01
      outer loop
         vertex 3.442550e-01 4.000000e+00 2.693854e+00
         vertex 3.442550e-01 0.000000e+00 2.693854e+00
         vertex 1.650541e-01 0.000000e+00 3.206169e+00
      endloop
   endfacet
   facet normal -9.439212e-01 0.000000e+00 -3.301708e-01
      outer loop
         vertex 3.442550e-01 4.000000e+00 2.693854e+00
         vertex 1.650541e-01 0.000000e+00 3.206169e+00
         vertex 1.650541e-01 4.000000e+00 3.206169e+00
      endloop
   endfacet
   facet normal -9.773897e-01 -0.000000e+00 -2.114458e-01
      outer loop
         vertex 1.650541e-01 4.000000e+00 3.206169e+00
         vertex 1.650541e-01 0.000000e+00 3.206169e+00
         vertex 5.029142e-02 0.000000e+00 3.736650e+00
      endloop
   endfacet
   facet normal -9.773897e-01 0.000000e+00 -2.114458e-01
      outer loop
         vertex 1.650541e-01 4.000000e+00 3.206169e+00
         vertex 5.029142e-02 0.000000e+00 3.736650e+00
         vertex 5.029142e-02 4.000000e+00 3.736650e+00
      endloop
   endfacet
   facet normal -9.959865e-01 -0.000000e+00 -8.950354e-02
      outer loop
         vertex 5.029142e-02 4.000000e+00 3.736650e+00
         vertex 5.029142e-02 0.000000e+00 3.736650e+00
         vertex 1.713168e-03 0.000000e+00 4.277224e+00
      endloop
   endfacet
   facet normal -9.959865e-01 0.000000e+00 -8.950354e-02
      outer loop
         vertex 5.029142e-02 4.000000e+00 3.736650e+00
         vertex 1.713168e-03 0.000000e+00 4.277224e+00
         vertex 1.713168e-03 4.000000e+00 4.277224e+00
      endloop
   endfacet
   facet normal -9.994285e-01 0.000000e+00 3.380202e-02
      outer loop
         vertex 1.713168e-03 4.000000e+00 4.277224e+00
         vertex 1.713168e-03 0.000000e+00 4.277224e+00
         vertex 2.005929e-02 0.000000e+00 4.819666e+00
      endloop
   endfacet
   facet normal -9.994285e-01 0.000000e+00 3.380202e-02
      outer loop
         vertex 1.713168e-03 4.000000e+00 4.277224e+00
         vertex 2.005929e-02 0.000000e+00 4.819666e+00
         vertex 2.005929e-02 4.000000e+00 4.819666e+00
      endloop
   endfacet
   facet normal -9.876634e-01 0.000000e+00 1.565920e-01
      outer loop
         vertex 2.005929e-02 4.000000e+00 4.819666e+00
         vertex 2.005929e-02 0.000000e+00 4.819666e+00
         vertex 1.050499e-01 0.000000e+00 5.355722e+00
      endloop
   endfacet
   facet normal -9.876634e-01 0.000000e+00 1.565920e-01
      outer loop
         vertex 2.005929e-02 4.000000e+00 4.819666e+00
         vertex 1.050499e-01 0.000000e+00 5.355722e+00
         vertex 1.050499e-01 4.000000e+00 5.355722e+00
      endloop
   endfacet
   facet normal -9.608699e-01 0.000000e+00 2.770002e-01
      outer loop
         vertex 1.050499e-01 4.000000e+00 5.355722e+00
         vertex 1.050499e-01 0.000000e+00 5.355722e+00
         vertex 2.553924e-01 0.000000e+00 5.877236e+00
      endloop
   endfacet
   facet normal -9.608699e-01 0.000000e+00 2.770002e-01
      outer loop
         vertex 1.050499e-01 4.000000e+00 5.355722e+00
         vertex 2.553924e-01 0.000000e+00 5.877236e+00
         vertex 2.553924e-01 4.000000e+00 5.877236e+00
      endloop
   endfacet
   facet normal -9.194562e-01 0.000000e+00 3.931924e-01
      outer loop
         vertex 2.553924e-01 4.000000e+00 5.877236e+00
         vertex 2.553924e-01 0.000000e+00 5.877236e+00
         vertex 4.687984e-01 0.000000e+00 6.376273e+00
      endloop
   endfacet
   facet normal -9.194562e-01 0.000000e+00 3.931924e-01
      outer loop
         vertex 2.553924e-01 4.000000e+00 5.877236e+00
         vertex 4.687984e-01 0.000000e+00 6.376273e+00
         vertex 4.687984e-01 4.000000e+00 6.376273e+00
      endloop
   endfacet
   facet normal -8.640515e-01 0.000000e+00 5.034034e-01
      outer loop
         vertex 4.687984e-01 4.000000e+00 6.376273e+00
         vertex 4.687984e-01 0.000000e+00 6.376273e+00
         vertex 7.420217e-01 0.000000e+00 6.845239e+00
      endloop
   endfacet
   facet normal -8.640515e-01 0.000000e+00 5.034034e-01
      outer loop
         vertex 4.687984e-01 4.000000e+00 6.376273e+00
         vertex 7.420217e-01 0.000000e+00 6.845239e+00
         vertex 7.420217e-01 4.000000e+00 6.845239e+00
      endloop
   endfacet
   facet normal -7.955001e-01 0.000000e+00 6.059534e-01
      outer loop
         vertex 7.420217e-01 4.000000e+00 6.845239e+00
         vertex 7.420217e-01 0.000000e+00 6.845239e+00
         vertex 1.070904e+00 0.000000e+00 7.276999e+00
      endloop
   endfacet
   facet normal -7.955001e-01 0.000000e+00 6.059534e-01
      outer loop
         vertex 7.420217e-01 4.000000e+00 6.845239e+00
         vertex 1.070904e+00 0.000000e+00 7.276999e+00
         vertex 1.070904e+00 4.000000e+00 7.276999e+00
      endloop
   endfacet
   facet normal -7.148444e-01 0.000000e+00 6.992835e-01
      outer loop
         vertex 1.070904e+00 4.000000e+00 7.276999e+00
         vertex 1.070904e+00 0.000000e+00 7.276999e+00
         vertex 1.450442e+00 0.000000e+00 7.664982e+00
      endloop
   endfacet
   facet normal -7.148444e-01 0.000000e+00 6.992835e-01
      outer loop
         vertex 1.070904e+00 4.000000e+00 7.276999e+00
         vertex 1.450442e+00 0.000000e+00 7.664982e+00
         vertex 1.450442e+00 4.000000e+00 7.664982e+00
      endloop
   endfacet
   facet normal -6.233114e-01 0.000000e+00 7.819737e-01
      outer loop
         vertex 1.450442e+00 4.000000e+00 7.664982e+00
         vertex 1.450442e+00 0.000000e+00 7.664982e+00
         vertex 1.874860e+00 0.000000e+00 8.003286e+00
      endloop
   endfacet
   facet normal -6.233114e-01 0.000000e+00 7.819737e-01
      outer loop
         vertex 1.450442e+00 4.000000e+00 7.664982e+00
         vertex 1.874860e+00 0.000000e+00 8.003286e+00
         vertex 1.874860e+00 4.000000e+00 8.003286e+00
      endloop
   endfacet
   facet normal -5.222943e-01 0.000000e+00 8.527653e-01
      outer loop
         vertex 1.874860e+00 4.000000e+00 8.003286e+00
         vertex 1.874860e+00 0.000000e+00 8.003286e+00
         vertex 2.337700e+00 0.000000e+00 8.286762e+00
      endloop
   endfacet
   facet normal -5.222943e-01 0.000000e+00 8.527653e-01
      outer loop
         vertex 1.874860e+00 4.000000e+00 8.003286e+00
         vertex 2.337700e+00 0.000000e+00 8.286762e+00
         vertex 2.337700e+00 4.000000e+00 8.286762e+00
      endloop
   endfacet
   facet normal -4.133298e-01 0.000000e+00 9.105814e-01
      outer loop
         vertex 2.337700e+00 4.000000e+00 8.286762e+00
         vertex 2.337700e+00 0.000000e+00 8.286762e+00
         vertex 2.831920e+00 0.000000e+00 8.511098e+00
      endloop
   endfacet
   facet normal -4.133298e-01 0.000000e+00 9.105814e-01
      outer loop
         vertex 2.337700e+00 4.000000e+00 8.286762e+00
         vertex 2.831920e+00 0.000000e+00 8.511098e+00
         vertex 2.831920e+00 4.000000e+00 8.511098e+00
      endloop
   endfacet
   facet normal -2.980768e-01 0.000000e+00 9.545419e-01
      outer loop
         vertex 2.831920e+00 4.000000e+00 8.511098e+00
         vertex 2.831920e+00 0.000000e+00 8.511098e+00
         vertex 3.350000e+00 0.000000e+00 8.672880e+00
      endloop
   endfacet
   facet normal -2.980768e-01 0.000000e+00 9.545419e-01
      outer loop
         vertex 2.831920e+00 4.000000e+00 8.511098e+00
         vertex 3.350000e+00 0.000000e+00 8.672880e+00
         vertex 3.350000e+00 4.000000e+00 8.672880e+00
      endloop
   endfacet
   facet normal 1.000000e+00 0.000000e+00 -0.000000e+00
      outer loop
         vertex 3.350000e+00 4.000000e+00 7.686335e+00
         vertex 3.350000e+00 4.000000e+00 8.672880e+00
         vertex 3.350000e+00 0.000000e+00 7.686335e+00
      endloop
   endfacet
   facet normal 1.000000e+00 0.000000e+00 0.000000e+00
      outer loop
         vertex 3.350000e+00 0.000000e+00 7.686335e+00
         vertex 3.350000e+00 4.000000e+00 8.672880e+00
         vertex 3.350000e+00 0.000000e+00 8.672880e+00
      endloop
   endfacet
   facet normal 3.693741e-01 0.000000e+00 -9.292808e-01
      outer loop
         vertex 3.350000e+00 4.000000e+00 7.686335e+00
         vertex 3.350000e+00 0.000000e+00 7.686335e+00
         vertex 2.907399e+00 4.000000e+00 7.510409e+00
      endloop
   endfacet
   facet normal 3.693741e-01 0.000000e+00 -9.292808e-01
      outer loop
         vertex 2.907399e+00 4.000000e+00 7.510409e+00
         vertex 3.350000e+00 0.000000e+00 7.686335e+00
         vertex 2.907399e+00 0.000000e+00 7.510409e+00
      endloop
   endfacet
   facet normal 4.938378e-01 0.000000e+00 -8.695541e-01
      outer loop
         vertex 2.907399e+00 4.000000e+00 7.510409e+00
         vertex 2.907399e+00 0.000000e+00 7.510409e+00
         vertex 2.493246e+00 4.000000e+00 7.275202e+00
      endloop
   endfacet
   facet normal 4.938378e-01 0.000000e+00 -8.695541e-01
      outer loop
         vertex 2.493246e+00 4.000000e+00 7.275202e+00
         vertex 2.907399e+00 0.000000e+00 7.510409e+00
         vertex 2.493246e+00 0.000000e+00 7.275202e+00
      endloop
   endfacet
   facet normal 6.088903e-01 0.000000e+00 -7.932545e-01
      outer loop
         vertex 2.493246e+00 4.000000e+00 7.275202e+00
         vertex 2.493246e+00 0.000000e+00 7.275202e+00
         vertex 2.115432e+00 4.000000e+00 6.985198e+00
      endloop
   endfacet
   facet normal 6.088903e-01 0.000000e+00 -7.932545e-01
      outer loop
         vertex 2.115432e+00 4.000000e+00 6.985198e+00
         vertex 2.493246e+00 0.000000e+00 7.275202e+00
         vertex 2.115432e+00 0.000000e+00 6.985198e+00
      endloop
   endfacet
   facet normal 7.123380e-01 0.000000e+00 -7.018366e-01
      outer loop
         vertex 2.115432e+00 4.000000e+00 6.985198e+00
         vertex 2.115432e+00 0.000000e+00 6.985198e+00
         vertex 1.781160e+00 4.000000e+00 6.645924e+00
      endloop
   endfacet
   facet normal 7.123380e-01 0.000000e+00 -7.018366e-01
      outer loop
         vertex 1.781160e+00 4.000000e+00 6.645924e+00
         vertex 2.115432e+00 0.000000e+00 6.985198e+00
         vertex 1.781160e+00 0.000000e+00 6.645924e+00
      endloop
   endfacet
   facet normal 8.022093e-01 0.000000e+00 -5.970429e-01
      outer loop
         vertex 1.781160e+00 4.000000e+00 6.645924e+00
         vertex 1.781160e+00 0.000000e+00 6.645924e+00
         vertex 1.496798e+00 4.000000e+00 6.263845e+00
      endloop
   endfacet
   facet normal 8.022093e-01 0.000000e+00 -5.970429e-01
      outer loop
         vertex 1.496798e+00 4.000000e+00 6.263845e+00
         vertex 1.781160e+00 0.000000e+00 6.645924e+00
         vertex 1.496798e+00 0.000000e+00 6.263845e+00
      endloop
   endfacet
   facet normal 8.767919e-01 0.000000e+00 -4.808700e-01
      outer loop
         vertex 1.496798e+00 4.000000e+00 6.263845e+00
         vertex 1.496798e+00 0.000000e+00 6.263845e+00
         vertex 1.267768e+00 4.000000e+00 5.846244e+00
      endloop
   endfacet
   facet normal 8.767919e-01 0.000000e+00 -4.808700e-01
      outer loop
         vertex 1.267768e+00 4.000000e+00 5.846244e+00
         vertex 1.496798e+00 0.000000e+00 6.263845e+00
         vertex 1.267768e+00 0.000000e+00 5.846244e+00
      endloop
   endfacet
   facet normal 9.346638e-01 0.000000e+00 -3.555329e-01
      outer loop
         vertex 1.267768e+00 4.000000e+00 5.846244e+00
         vertex 1.267768e+00 0.000000e+00 5.846244e+00
         vertex 1.098434e+00 4.000000e+00 5.401080e+00
      endloop
   endfacet
   facet normal 9.346638e-01 0.000000e+00 -3.555329e-01
      outer loop
         vertex 1.098434e+00 4.000000e+00 5.401080e+00
         vertex 1.267768e+00 0.000000e+00 5.846244e+00
         vertex 1.098434e+00 0.000000e+00 5.401080e+00
      endloop
   endfacet
   facet normal 9.747225e-01 0.000000e+00 -2.234189e-01
      outer loop
         vertex 1.098434e+00 4.000000e+00 5.401080e+00
         vertex 1.098434e+00 0.000000e+00 5.401080e+00
         vertex 9.920232e-01 4.000000e+00 4.936836e+00
      endloop
   endfacet
   facet normal 9.747225e-01 0.000000e+00 -2.234189e-01
      outer loop
         vertex 9.920232e-01 4.000000e+00 4.936836e+00
         vertex 1.098434e+00 0.000000e+00 5.401080e+00
         vertex 9.920232e-01 0.000000e+00 4.936836e+00
      endloop
   endfacet
   facet normal 9.962041e-01 0.000000e+00 -8.704796e-02
      outer loop
         vertex 9.920232e-01 4.000000e+00 4.936836e+00
         vertex 9.920232e-01 0.000000e+00 4.936836e+00
         vertex 9.505637e-01 4.000000e+00 4.462361e+00
      endloop
   endfacet
   facet normal 9.962041e-01 0.000000e+00 -8.704796e-02
      outer loop
         vertex 9.505637e-01 4.000000e+00 4.462361e+00
         vertex 9.920232e-01 0.000000e+00 4.936836e+00
         vertex 9.505637e-01 0.000000e+00 4.462361e+00
      endloop
   endfacet
   facet normal 9.986995e-01 0.000000e+00 5.098260e-02
      outer loop
         vertex 9.505637e-01 4.000000e+00 4.462361e+00
         vertex 9.505637e-01 0.000000e+00 4.462361e+00
         vertex 9.748458e-01 4.000000e+00 3.986698e+00
      endloop
   endfacet
   facet normal 9.986995e-01 0.000000e+00 5.098260e-02
      outer loop
         vertex 9.748458e-01 4.000000e+00 3.986698e+00
         vertex 9.505637e-01 0.000000e+00 4.462361e+00
         vertex 9.748458e-01 0.000000e+00 3.986698e+00
      endloop
   endfacet
   facet normal 9.821611e-01 0.000000e+00 1.880413e-01
      outer loop
         vertex 9.748458e-01 4.000000e+00 3.986698e+00
         vertex 9.748458e-01 0.000000e+00 3.986698e+00
         vertex 1.064407e+00 4.000000e+00 3.518911e+00
      endloop
   endfacet
   facet normal 9.821611e-01 0.000000e+00 1.880413e-01
      outer loop
         vertex 1.064407e+00 4.000000e+00 3.518911e+00
         vertex 9.748458e-01 0.000000e+00 3.986698e+00
         vertex 1.064407e+00 0.000000e+00 3.518911e+00
      endloop
   endfacet
   facet normal 9.469040e-01 0.000000e+00 3.215164e-01
      outer loop
         vertex 1.064407e+00 4.000000e+00 3.518911e+00
         vertex 1.064407e+00 0.000000e+00 3.518911e+00
         vertex 1.217539e+00 4.000000e+00 3.067917e+00
      endloop
   endfacet
   facet normal 9.469040e-01 0.000000e+00 3.215164e-01
      outer loop
         vertex 1.217539e+00 4.000000e+00 3.067917e+00
         vertex 1.064407e+00 0.000000e+00 3.518911e+00
         vertex 1.217539e+00 0.000000e+00 3.067917e+00
      endloop
   endfacet
   facet normal 8.936003e-01 0.000000e+00 4.488636e-01
      outer loop
         vertex 1.217539e+00 4.000000e+00 3.067917e+00
         vertex 1.217539e+00 0.000000e+00 3.067917e+00
         vertex 1.431325e+00 4.000000e+00 2.642311e+00
      endloop
   endfacet
   facet normal 8.936003e-01 0.000000e+00 4.488636e-01
      outer loop
         vertex 1.431325e+00 4.000000e+00 2.642311e+00
         vertex 1.217539e+00 0.000000e+00 3.067917e+00
         vertex 1.431325e+00 0.000000e+00 2.642311e+00
      endloop
   endfacet
   facet normal 8.232656e-01 0.000000e+00 5.676564e-01
      outer loop
         vertex 1.431325e+00 4.000000e+00 2.642311e+00
         vertex 1.431325e+00 0.000000e+00 2.642311e+00
         vertex 1.701690e+00 4.000000e+00 2.250203e+00
      endloop
   endfacet
   facet normal 8.232656e-01 0.000000e+00 5.676564e-01
      outer loop
         vertex 1.701690e+00 4.000000e+00 2.250203e+00
         vertex 1.431325e+00 0.000000e+00 2.642311e+00
         vertex 1.701690e+00 0.000000e+00 2.250203e+00
      endloop
   endfacet
   facet normal 7.372408e-01 0.000000e+00 6.756301e-01
      outer loop
         vertex 1.701690e+00 4.000000e+00 2.250203e+00
         vertex 1.701690e+00 0.000000e+00 2.250203e+00
         vertex 2.023482e+00 4.000000e+00 1.899068e+00
      endloop
   endfacet
   facet normal 7.372408e-01 0.000000e+00 6.756301e-01
      outer loop
         vertex 2.023482e+00 4.000000e+00 1.899068e+00
         vertex 1.701690e+00 0.000000e+00 2.250203e+00
         vertex 2.023482e+00 0.000000e+00 1.899068e+00
      endloop
   endfacet
   facet normal 6.371653e-01 0.000000e+00 7.707272e-01
      outer loop
         vertex 2.023482e+00 4.000000e+00 1.899068e+00
         vertex 2.023482e+00 0.000000e+00 1.899068e+00
         vertex 2.390566e+00 4.000000e+00 1.595597e+00
      endloop
   endfacet
   facet normal 6.371653e-01 0.000000e+00 7.707272e-01
      outer loop
         vertex 2.390566e+00 4.000000e+00 1.595597e+00
         vertex 2.023482e+00 0.000000e+00 1.899068e+00
         vertex 2.390566e+00 0.000000e+00 1.595597e+00
      endloop
   endfacet
   facet normal 5.249457e-01 0.000000e+00 8.511357e-01
      outer loop
         vertex 2.390566e+00 4.000000e+00 1.595597e+00
         vertex 2.390566e+00 0.000000e+00 1.595597e+00
         vertex 2.795947e+00 4.000000e+00 1.345575e+00
      endloop
   endfacet
   facet normal 5.249457e-01 0.000000e+00 8.511357e-01
      outer loop
         vertex 2.795947e+00 4.000000e+00 1.345575e+00
         vertex 2.390566e+00 0.000000e+00 1.595597e+00
         vertex 2.795947e+00 0.000000e+00 1.345575e+00
      endloop
   endfacet
   facet normal 4.027221e-01 0.000000e+00 9.153223e-01
      outer loop
         vertex 2.795947e+00 4.000000e+00 1.345575e+00
         vertex 2.795947e+00 0.000000e+00 1.345575e+00
         vertex 3.231899e+00 4.000000e+00 1.153765e+00
      endloop
   endfacet
   facet normal 4.027221e-01 0.000000e+00 9.153223e-01
      outer loop
         vertex 3.231899e+00 4.000000e+00 1.153765e+00
         vertex 2.795947e+00 0.000000e+00 1.345575e+00
         vertex 3.231899e+00 0.000000e+00 1.153765e+00
      endloop
   endfacet
   facet normal 2.728225e-01 0.000000e+00 9.620644e-01
      outer loop
         vertex 3.231899e+00 4.000000e+00 1.153765e+00
         vertex 3.231899e+00 0.000000e+00 1.153765e+00
         vertex 3.690114e+00 4.000000e+00 1.023824e+00
      endloop
   endfacet
   facet normal 2.728225e-01 0.000000e+00 9.620644e-01
      outer loop
         vertex 3.690114e+00 4.000000e+00 1.023824e+00
         vertex 3.231899e+00 0.000000e+00 1.153765e+00
         vertex 3.690114e+00 0.000000e+00 1.023824e+00
      endloop
   endfacet
   facet normal 1.377240e-01 0.000000e+00 9.904706e-01
      outer loop
         vertex 3.690114e+00 4.000000e+00 1.023824e+00
         vertex 3.690114e+00 0.000000e+00 1.023824e+00
         vertex 4.161859e+00 4.000000e+00 9.582287e-01
      endloop
   endfacet
   facet normal 1.377240e-01 0.000000e+00 9.904706e-01
      outer loop
         vertex 4.161859e+00 4.000000e+00 9.582287e-01
         vertex 3.690114e+00 0.000000e+00 1.023824e+00
         vertex 4.161859e+00 0.000000e+00 9.582287e-01
      endloop
   endfacet
   facet normal -0.000000e+00 0.000000e+00 1.000000e+00
      outer loop
         vertex 4.161859e+00 4.000000e+00 9.582287e-01
         vertex 4.161859e+00 0.000000e+00 9.582287e-01
         vertex 4.638141e+00 4.000000e+00 9.582287e-01
      endloop
   endfacet
   facet normal 0.000000e+00 0.000000e+00 1.000000e+00
      outer loop
         vertex 4.638141e+00 4.000000e+00 9.582287e-01
         vertex 4.161859e+00 0.000000e+00 9.582287e-01
         vertex 4.638141e+00 0.000000e+00 9.582287e-01
      endloop
   endfacet
   facet normal -1.377240e-01 0.000000e+00 9.904706e-01
      outer loop
         vertex 4.638141e+00 4.000000e+00 9.582287e-01
         vertex 4.638141e+00 0.000000e+00 9.582287e-01
         vertex 5.109886e+00 4.000000e+00 1.023824e+00
      endloop
   endfacet
   facet normal -1.377240e-01 0.000000e+00 9.904706e-01
      outer loop
         vertex 5.109886e+00 4.000000e+00 1.023824e+00
         vertex 4.638141e+00 0.000000e+00 9.582287e-01
         vertex 5.109886e+00 0.000000e+00 1.023824e+00
      endloop
   endfacet
   facet normal -2.728225e-01 0.000000e+00 9.620644e-01
      outer loop
         vertex 5.109886e+00 4.000000e+00 1.023824e+00
         vertex 5.109886e+00 0.000000e+00 1.023824e+00
         vertex 5.568100e+00 4.000000e+00 1.153765e+00
      endloop
   endfacet
   facet normal -2.728225e-01 0.000000e+00 9.620644e-01
      outer loop
         vertex 5.568100e+00 4.000000e+00 1.153765e+00
         vertex 5.109886e+00 0.000000e+00 1.023824e+00
         vertex 5.568100e+00 0.000000e+00 1.153765e+00
      endloop
   endfacet
   facet normal -4.027221e-01 0.000000e+00 9.153223e-01
      outer loop
         vertex 5.568100e+00 4.000000e+00 1.153765e+00
         vertex 5.568100e+00 0.000000e+00 1.153765e+00
         vertex 6.004053e+00 4.000000e+00 1.345575e+00
      endloop
   endfacet
   facet normal -4.027221e-01 0.000000e+00 9.153223e-01
      outer loop
         vertex 6.004053e+00 4.000000e+00 1.345575e+00
         vertex 5.568100e+00 0.000000e+00 1.153765e+00
         vertex 6.004053e+00 0.000000e+00 1.345575e+00
      endloop
   endfacet
   facet normal -5.249457e-01 0.000000e+00 8.511357e-01
      outer loop
         vertex 6.004053e+00 4.000000e+00 1.345575e+00
         vertex 6.004053e+00 0.000000e+00 1.345575e+00
         vertex 6.409434e+00 4.000000e+00 1.595597e+00
      endloop
   endfacet
   facet normal -5.249457e-01 0.000000e+00 8.511357e-01
      outer loop
         vertex 6.409434e+00 4.000000e+00 1.595597e+00
         vertex 6.004053e+00 0.000000e+00 1.345575e+00
         vertex 6.409434e+00 0.000000e+00 1.595597e+00
      endloop
   endfacet
   facet normal -6.371653e-01 0.000000e+00 7.707272e-01
      outer loop
         vertex 6.409434e+00 4.000000e+00 1.595597e+00
         vertex 6.409434e+00 0.000000e+00 1.595597e+00
         vertex 6.776518e+00 4.000000e+00 1.899068e+00
      endloop
   endfacet
   facet normal -6.371653e-01 0.000000e+00 7.707272e-01
      outer loop
         vertex 6.776518e+00 4.000000e+00 1.899068e+00
         vertex 6.409434e+00 0.000000e+00 1.595597e+00
         vertex 6.776518e+00 0.000000e+00 1.899068e+00
      endloop
   endfacet
   facet normal -7.372408e-01 0.000000e+00 6.756301e-01
      outer loop
         vertex 6.776518e+00 4.000000e+00 1.899068e+00
         vertex 6.776518e+00 0.000000e+00 1.899068e+00
         vertex 7.098309e+00 4.000000e+00 2.250203e+00
      endloop
   endfacet
   facet normal -7.372408e-01 0.000000e+00 6.756301e-01
      outer loop
         vertex 7.098309e+00 4.000000e+00 2.250203e+00
         vertex 6.776518e+00 0.000000e+00 1.899068e+00
         vertex 7.098309e+00 0.000000e+00 2.250203e+00
      endloop
   endfacet
   facet normal -8.232656e-01 0.000000e+00 5.676564e-01
      outer loop
         vertex 7.098309e+00 4.000000e+00 2.250203e+00
         vertex 7.098309e+00 0.000000e+00 2.250203e+00
         vertex 7.368675e+00 4.000000e+00 2.642311e+00
      endloop
   endfacet
   facet normal -8.232656e-01 0.000000e+00 5.676564e-01
      outer loop
         vertex 7.368675e+00 4.000000e+00 2.642311e+00
         vertex 7.098309e+00 0.000000e+00 2.250203e+00
         vertex 7.368675e+00 0.000000e+00 2.642311e+00
      endloop
   endfacet
   facet normal -8.936003e-01 0.000000e+00 4.488636e-01
      outer loop
         vertex 7.368675e+00 4.000000e+00 2.642311e+00
         vertex 7.368675e+00 0.000000e+00 2.642311e+00
         vertex 7.582461e+00 4.000000e+00 3.067917e+00
      endloop
   endfacet
   facet normal -8.936003e-01 0.000000e+00 4.488636e-01
      outer loop
         vertex 7.582461e+00 4.000000e+00 3.067917e+00
         vertex 7.368675e+00 0.000000e+00 2.642311e+00
         vertex 7.582461e+00 0.000000e+00 3.067917e+00
      endloop
   endfacet
   facet normal -9.469040e-01 0.000000e+00 3.215164e-01
      outer loop
         vertex 7.582461e+00 4.000000e+00 3.067917e+00
         vertex 7.582461e+00 0.000000e+00 3.067917e+00
         vertex 7.735593e+00 4.000000e+00 3.518911e+00
      endloop
   endfacet
   facet normal -9.469040e-01 0.000000e+00 3.215164e-01
      outer loop
         vertex 7.735593e+00 4.000000e+00 3.518911e+00
         vertex 7.582461e+00 0.000000e+00 3.067917e+00
         vertex 7.735593e+00 0.000000e+00 3.518911e+00
      endloop
   endfacet
   facet normal -9.821611e-01 0.000000e+00 1.880413e-01
      outer loop
         vertex 7.735593e+00 4.000000e+00 3.518911e+00
         vertex 7.735593e+00 0.000000e+00 3.518911e+00
         vertex 7.825154e+00 4.000000e+00 3.986698e+00
      endloop
   endfacet
   facet normal -9.821611e-01 0.000000e+00 1.880413e-01
      outer loop
         vertex 7.825154e+00 4.000000e+00 3.986698e+00
         vertex 7.735593e+00 0.000000e+00 3.518911e+00
         vertex 7.825154e+00 0.000000e+00 3.986698e+00
      endloop
   endfacet
   facet normal -9.986995e-01 0.000000e+00 5.098260e-02
      outer loop
         vertex 7.825154e+00 4.000000e+00 3.986698e+00
         vertex 7.825154e+00 0.000000e+00 3.986698e+00
         vertex 7.849436e+00 4.000000e+00 4.462361e+00
      endloop
   endfacet
   facet normal -9.986995e-01 0.000000e+00 5.098260e-02
      outer loop
         vertex 7.849436e+00 4.000000e+00 4.462361e+00
         vertex 7.825154e+00 0.000000e+00 3.986698e+00
         vertex 7.849436e+00 0.000000e+00 4.462361e+00
      endloop
   endfacet
   facet normal -9.962041e-01 -0.000000e+00 -8.704796e-02
      outer loop
         vertex 7.849436e+00 4.000000e+00 4.462361e+00
         vertex 7.849436e+00 0.000000e+00 4.462361e+00
         vertex 7.807977e+00 4.000000e+00 4.936836e+00
      endloop
   endfacet
   facet normal -9.962041e-01 -0.000000e+00 -8.704796e-02
      outer loop
         vertex 7.807977e+00 4.000000e+00 4.936836e+00
         vertex 7.849436e+00 0.000000e+00 4.462361e+00
         vertex 7.807977e+00 0.000000e+00 4.936836e+00
      endloop
   endfacet
   facet normal -9.747225e-01 -0.000000e+00 -2.234189e-01
      outer loop
         vertex 7.807977e+00 4.000000e+00 4.936836e+00
         vertex 7.807977e+00 0.000000e+00 4.936836e+00
         vertex 7.701566e+00 4.000000e+00 5.401080e+00
      endloop
   endfacet
   facet normal -9.747225e-01 -0.000000e+00 -2.234189e-01
      outer loop
         vertex 7.701566e+00 4.000000e+00 5.401080e+00
         vertex 7.807977e+00 0.000000e+00 4.936836e+00
         vertex 7.701566e+00 0.000000e+00 5.401080e+00
      endloop
   endfacet
   facet normal -9.346638e-01 -0.000000e+00 -3.555329e-01
      outer loop
         vertex 7.701566e+00 4.000000e+00 5.401080e+00
         vertex 7.701566e+00 0.000000e+00 5.401080e+00
         vertex 7.532232e+00 4.000000e+00 5.846244e+00
      endloop
   endfacet
   facet normal -9.346638e-01 -0.000000e+00 -3.555329e-01
      outer loop
         vertex 7.532232e+00 4.000000e+00 5.846244e+00
         vertex 7.701566e+00 0.000000e+00 5.401080e+00
         vertex 7.532232e+00 0.000000e+00 5.846244e+00
      endloop
   endfacet
   facet normal -8.767919e-01 -0.000000e+00 -4.808700e-01
      outer loop
         vertex 7.532232e+00 4.000000e+00 5.846244e+00
         vertex 7.532232e+00 0.000000e+00 5.846244e+00
         vertex 7.303202e+00 4.000000e+00 6.263845e+00
      endloop
   endfacet
   facet normal -8.767919e-01 -0.000000e+00 -4.808700e-01
      outer loop
         vertex 7.303202e+00 4.000000e+00 6.263845e+00
         vertex 7.532232e+00 0.000000e+00 5.846244e+00
         vertex 7.303202e+00 0.000000e+00 6.263845e+00
      endloop
   endfacet
   facet normal -8.022093e-01 -0.000000e+00 -5.970429e-01
      outer loop
         vertex 7.303202e+00 4.000000e+00 6.263845e+00
         vertex 7.303202e+00 0.000000e+00 6.263845e+00
         vertex 7.018840e+00 4.000000e+00 6.645924e+00
      endloop
   endfacet
   facet normal -8.022093e-01 -0.000000e+00 -5.970429e-01
      outer loop
         vertex 7.018840e+00 4.000000e+00 6.645924e+00
         vertex 7.303202e+00 0.000000e+00 6.263845e+00
         vertex 7.018840e+00 0.000000e+00 6.645924e+00
      endloop
   endfacet
   facet normal -7.123380e-01 -0.000000e+00 -7.018366e-01
      outer loop
         vertex 7.018840e+00 4.000000e+00 6.645924e+00
         vertex 7.018840e+00 0.000000e+00 6.645924e+00
         vertex 6.684568e+00 4.000000e+00 6.985198e+00
      endloop
   endfacet
   facet normal -7.123380e-01 -0.000000e+00 -7.018366e-01
      outer loop
         vertex 6.684568e+00 4.000000e+00 6.985198e+00
         vertex 7.018840e+00 0.000000e+00 6.645924e+00
         vertex 6.684568e+00 0.000000e+00 6.985198e+00
      endloop
   endfacet
   facet normal -6.088903e-01 -0.000000e+00 -7.932545e-01
      outer loop
         vertex 6.684568e+00 4.000000e+00 6.985198e+00
         vertex 6.684568e+00 0.000000e+00 6.985198e+00
         vertex 6.306754e+00 4.000000e+00 7.275202e+00
      endloop
   endfacet
   facet normal -6.088903e-01 -0.000000e+00 -7.932545e-01
      outer loop
         vertex 6.306754e+00 4.000000e+00 7.275202e+00
         vertex 6.684568e+00 0.000000e+00 6.985198e+00
         vertex 6.306754e+00 0.000000e+00 7.275202e+00
      endloop
   endfacet
   facet normal -4.938378e-01 -0.000000e+00 -8.695541e-01
      outer loop
         vertex 6.306754e+00 4.000000e+00 7.275202e+00
         vertex 6.306754e+00 0.000000e+00 7.275202e+00
         vertex 5.892601e+00 4.000000e+00 7.510409e+00
      endloop
   endfacet
   facet normal -4.938378e-01 -0.000000e+00 -8.695541e-01
      outer loop
         vertex 5.892601e+00 4.000000e+00 7.510409e+00
         vertex 6.306754e+00 0.000000e+00 7.275202e+00
         vertex 5.892601e+00 0.000000e+00 7.510409e+00
      endloop
   endfacet
   facet normal -3.693741e-01 -0.000000e+00 -9.292808e-01
      outer loop
         vertex 5.892601e+00 4.000000e+00 7.510409e+00
         vertex 5.892601e+00 0.000000e+00 7.510409e+00
         vertex 5.450000e+00 4.000000e+00 7.686335e+00
      endloop
   endfacet
   facet normal -3.693741e-01 -0.000000e+00 -9.292808e-01
      outer loop
         vertex 5.450000e+00 4.000000e+00 7.686335e+00
         vertex 5.892601e+00 0.000000e+00 7.510409e+00
         vertex 5.450000e+00 0.000000e+00 7.686335e+00
      endloop
   endfacet
   facet normal 0.000000e+00 1.000000e+00 0.000000e+00
      outer loop
         vertex 3.350000e+00 4.000000e+00 8.672880e+00
         vertex 3.350000e+00 4.000000e+00 7.686335e+00
         vertex 2.831920e+00 4.000000e+00 8.511098e+00
      endloop
   endfacet
   facet normal 0.000000e+00 1.000000e+00 0.000000e+00
      outer loop
         vertex 2.831920e+00 4.000000e+00 8.511098e+00
         vertex 3.350000e+00 4.000000e+00 7.686335e+00
         vertex 2.907399e+00 4.000000e+00 7.510409e+00
      endloop
   endfacet
   facet normal 0.000000e+00 1.000000e+00 0.000000e+00
      outer loop
         vertex 5.450000e+00 4.000000e+00 7.686335e+00
         vertex 5.450000e+00 4.000000e+00 8.672880e+00
         vertex 5.968080e+00 4.000000e+00 8.511098e+00
      endloop
   endfacet
   facet normal -0.000000e+00 1.000000e+00 0.000000e+00
      outer loop
         vertex 5.450000e+00 4.000000e+00 7.686335e+00
         vertex 5.968080e+00 4.000000e+00 8.511098e+00
         vertex 5.892601e+00 4.000000e+00 7.510409e+00
      endloop
   endfacet
   facet normal 0.000000e+00 1.000000e+00 0.000000e+00
      outer loop
         vertex 5.892601e+00 4.000000e+00 7.510409e+00
         vertex 5.968080e+00 4.000000e+00 8.511098e+00
         vertex 6.462300e+00 4.000000e+00 8.286762e+00
      endloop
   endfacet
   facet normal -0.000000e+00 1.000000e+00 0.000000e+00
      outer loop
         vertex 5.892601e+00 4.000000e+00 7.510409e+00
         vertex 6.462300e+00 4.000000e+00 8.286762e+00
         vertex 6.306754e+00 4.000000e+00 7.275202e+00
      endloop
   endfacet
   facet normal 0.000000e+00 1.000000e+00 0.000000e+00
      outer loop
         vertex 6.306754e+00 4.000000e+00 7.275202e+00
         vertex 6.462300e+00 4.000000e+00 8.286762e+00
         vertex 6.925140e+00 4.000000e+00 8.003286e+00
      endloop
   endfacet
   facet normal -0.000000e+00 1.000000e+00 0.000000e+00
      outer loop
         vertex 6.306754e+00 4.000000e+00 7.275202e+00
         vertex 6.925140e+00 4.000000e+00 8.003286e+00
         vertex 6.684568e+00 4.000000e+00 6.985198e+00
      endloop
   endfacet
   facet normal 0.000000e+00 1.000000e+00 0.000000e+00
      outer loop
         vertex 6.684568e+00 4.000000e+00 6.985198e+00
         vertex 6.925140e+00 4.000000e+00 8.003286e+00
         vertex 7.349558e+00 4.000000e+00 7.664982e+00
      endloop
   endfacet
   facet normal -0.000000e+00 1.000000e+00 0.000000e+00
      outer loop
         vertex 6.684568e+00 4.000000e+00 6.985198e+00
         vertex 7.349558e+00 4.000000e+00 7.664982e+00
         vertex 7.018840e+00 4.000000e+00 6.645924e+00
      endloop
   endfacet
   facet normal 0.000000e+00 1.000000e+00 0.000000e+00
      outer loop
         vertex 7.018840e+00 4.000000e+00 6.645924e+00
         vertex 7.349558e+00 4.000000e+00 7.664982e+00
         vertex 7.729096e+00 4.000000e+00 7.276999e+00
      endloop
   endfacet
   facet normal -0.000000e+00 1.000000e+00 0.000000e+00
      outer loop
         vertex 7.018840e+00 4.000000e+00 6.645924e+00
         vertex 7.729096e+00 4.000000e+00 7.276999e+00
         vertex 7.303202e+00 4.000000e+00 6.263845e+00
      endloop
   endfacet
   facet normal 0.000000e+00 1.000000e+00 0.000000e+00
      outer loop
         vertex 7.303202e+00 4.000000e+00 6.263845e+00
         vertex 7.729096e+00 4.000000e+00 7.276999e+00
         vertex 8.057978e+00 4.000000e+00 6.845239e+00
      endloop
   endfacet
   facet normal -0.000000e+00 1.000000e+00 0.000000e+00
      outer loop
         vertex 7.303202e+00 4.000000e+00 6.263845e+00
         vertex 8.057978e+00 4.000000e+00 6.845239e+00
         vertex 7.532232e+00 4.000000e+00 5.846244e+00
      endloop
   endfacet
   facet normal 0.000000e+00 1.000000e+00 0.000000e+00
      outer loop
         vertex 7.532232e+00 4.000000e+00 5.846244e+00
         vertex 8.057978e+00 4.000000e+00 6.845239e+00
         vertex 8.331202e+00 4.000000e+00 6.376273e+00
      endloop
   endfacet
   facet normal -0.000000e+00 1.000000e+00 0.000000e+00
      outer loop
         vertex 7.532232e+00 4.000000e+00 5.846244e+00
         vertex 8.331202e+00 4.000000e+00 6.376273e+00
         vertex 7.701566e+00 4.000000e+00 5.401080e+00
      endloop
   endfacet
   facet normal 0.000000e+00 1.000000e+00 -0.000000e+00
      outer loop
         vertex 9.920232e-01 4.000000e+00 4.936836e+00
         vertex 1.050499e-01 4.000000e+00 5.355722e+00
         vertex 1.098434e+00 4.000000e+00 5.401080e+00
      endloop
   endfacet
   facet normal 0.000000e+00 1.000000e+00 0.000000e+00
      outer loop
         vertex 1.098434e+00 4.000000e+00 5.401080e+00
         vertex 1.050499e-01 4.000000e+00 5.355722e+00
         vertex 2.553924e-01 4.000000e+00 5.877236e+00
      endloop
   endfacet
   facet normal 0.000000e+00 1.000000e+00 -0.000000e+00
      outer loop
         vertex 1.098434e+00 4.000000e+00 5.401080e+00
         vertex 2.553924e-01 4.000000e+00 5.877236e+00
         vertex 1.267768e+00 4.000000e+00 5.846244e+00
      endloop
   endfacet
   facet normal 0.000000e+00 1.000000e+00 0.000000e+00
      outer loop
         vertex 1.267768e+00 4.000000e+00 5.846244e+00
         vertex 2.553924e-01 4.000000e+00 5.877236e+00
         vertex 4.687984e-01 4.000000e+00 6.376273e+00
      endloop
   endfacet
   facet normal 0.000000e+00 1.000000e+00 -0.000000e+00
      outer loop
         vertex 1.267768e+00 4.000000e+00 5.846244e+00
         vertex 4.687984e-01 4.000000e+00 6.376273e+00
         vertex 1.496798e+00 4.000000e+00 6.263845e+00
      endloop
   endfacet
   facet normal 0.000000e+00 1.000000e+00 0.000000e+00
      outer loop
         vertex 1.496798e+00 4.000000e+00 6.263845e+00
         vertex 4.687984e-01 4.000000e+00 6.376273e+00
         vertex 7.420217e-01 4.000000e+00 6.845239e+00
      endloop
   endfacet
   facet normal 0.000000e+00 1.000000e+00 -0.000000e+00
      outer loop
         vertex 1.496798e+00 4.000000e+00 6.263845e+00
         vertex 7.420217e-01 4.000000e+00 6.845239e+00
         vertex 1.781160e+00 4.000000e+00 6.645924e+00
      endloop
   endfacet
   facet normal 0.000000e+00 1.000000e+00 0.000000e+00
      outer loop
         vertex 1.781160e+00 4.000000e+00 6.645924e+00
         vertex 7.420217e-01 4.000000e+00 6.845239e+00
         vertex 1.070904e+00 4.000000e+00 7.276999e+00
      endloop
   endfacet
   facet normal 0.000000e+00 1.000000e+00 -0.000000e+00
      outer loop
         vertex 1.781160e+00 4.000000e+00 6.645924e+00
         vertex 1.070904e+00 4.000000e+00 7.276999e+00
         vertex 2.115432e+00 4.000000e+00 6.985198e+00
      endloop
   endfacet
   facet normal 0.000000e+00 1.000000e+00 0.000000e+00
      outer loop
         vertex 2.115432e+00 4.000000e+00 6.985198e+00
         vertex 1.070904e+00 4.000000e+00 7.276999e+00
         vertex 1.450442e+00 4.000000e+00 7.664982e+00
      endloop
   endfacet
   facet normal 0.000000e+00 1.000000e+00 -0.000000e+00
      outer loop
         vertex 2.115432e+00 4.000000e+00 6.985198e+00
         vertex 1.450442e+00 4.000000e+00 7.664982e+00
         vertex 2.493246e+00 4.000000e+00 7.275202e+00
      endloop
   endfacet
   facet normal 0.000000e+00 1.000000e+00 0.000000e+00
      outer loop
         vertex 2.493246e+00 4.000000e+00 7.275202e+00
         vertex 1.450442e+00 4.000000e+00 7.664982e+00
         vertex 1.874860e+00 4.000000e+00 8.003286e+00
      endloop
   endfacet
   facet normal 0.000000e+00 1.000000e+00 -0.000000e+00
      outer loop
         vertex 2.493246e+00 4.000000e+00 7.275202e+00
         vertex 1.874860e+00 4.000000e+00 8.003286e+00
         vertex 2.907399e+00 4.000000e+00 7.510409e+00
      endloop
   endfacet
   facet normal 0.000000e+00 1.000000e+00 0.000000e+00
      outer loop
         vertex 2.907399e+00 4.000000e+00 7.510409e+00
         vertex 1.874860e+00 4.000000e+00 8.003286e+00
         vertex 2.337700e+00 4.000000e+00 8.286762e+00
      endloop
   endfacet
   facet normal 0.000000e+00 1.000000e+00 0.000000e+00
      outer loop
         vertex 2.907399e+00 4.000000e+00 7.510409e+00
         vertex 2.337700e+00 4.000000e+00 8.286762e+00
         vertex 2.831920e+00 4.000000e+00 8.511098e+00
      endloop
   endfacet
   facet normal 0.000000e+00 1.000000e+00 0.000000e+00
      outer loop
         vertex 8.331202e+00 4.000000e+00 6.376273e+00
         vertex 8.544608e+00 4.000000e+00 5.877236e+00
         vertex 7.701566e+00 4.000000e+00 5.401080e+00
      endloop
   endfacet
   facet normal -0.000000e+00 1.000000e+00 0.000000e+00
      outer loop
         vertex 7.701566e+00 4.000000e+00 5.401080e+00
         vertex 8.544608e+00 4.000000e+00 5.877236e+00
         vertex 8.694950e+00 4.000000e+00 5.355722e+00
      endloop
   endfacet
   facet normal 0.000000e+00 1.000000e+00 0.000000e+00
      outer loop
         vertex 7.701566e+00 4.000000e+00 5.401080e+00
         vertex 8.694950e+00 4.000000e+00 5.355722e+00
         vertex 7.807977e+00 4.000000e+00 4.936836e+00
      endloop
   endfacet
   facet normal -0.000000e+00 1.000000e+00 0.000000e+00
      outer loop
         vertex 7.807977e+00 4.000000e+00 4.936836e+00
         vertex 8.694950e+00 4.000000e+00 5.355722e+00
         vertex 8.779941e+00 4.000000e+00 4.819666e+00
      endloop
   endfacet
   facet normal 0.000000e+00 1.000000e+00 0.000000e+00
      outer loop
         vertex 7.807977e+00 4.000000e+00 4.936836e+00
         vertex 8.779941e+00 4.000000e+00 4.819666e+00
         vertex 7.849436e+00 4.000000e+00 4.462361e+00
      endloop
   endfacet
   facet normal -0.000000e+00 1.000000e+00 0.000000e+00
      outer loop
         vertex 7.849436e+00 4.000000e+00 4.462361e+00
         vertex 8.779941e+00 4.000000e+00 4.819666e+00
         vertex 8.798287e+00 4.000000e+00 4.277224e+00
      endloop
   endfacet
   facet normal 0.000000e+00 1.000000e+00 0.000000e+00
      outer loop
         vertex 7.849436e+00 4.000000e+00 4.462361e+00
         vertex 8.798287e+00 4.000000e+00 4.277224e+00
         vertex 7.825154e+00 4.000000e+00 3.986698e+00
      endloop
   endfacet
   facet normal -0.000000e+00 1.000000e+00 0.000000e+00
      outer loop
         vertex 7.825154e+00 4.000000e+00 3.986698e+00
         vertex 8.798287e+00 4.000000e+00 4.277224e+00
         vertex 8.749709e+00 4.000000e+00 3.736650e+00
      endloop
   endfacet
   facet normal 0.000000e+00 1.000000e+00 0.000000e+00
      outer loop
         vertex 7.825154e+00 4.000000e+00 3.986698e+00
         vertex 8.749709e+00 4.000000e+00 3.736650e+00
         vertex 7.735593e+00 4.000000e+00 3.518911e+00
      endloop
   endfacet
   facet normal -0.000000e+00 1.000000e+00 0.000000e+00
      outer loop
         vertex 7.735593e+00 4.000000e+00 3.518911e+00
         vertex 8.749709e+00 4.000000e+00 3.736650e+00
         vertex 8.634946e+00 4.000000e+00 3.206169e+00
      endloop
   endfacet
   facet normal 0.000000e+00 1.000000e+00 0.000000e+00
      outer loop
         vertex 7.735593e+00 4.000000e+00 3.518911e+00
         vertex 8.634946e+00 4.000000e+00 3.206169e+00
         vertex 7.582461e+00 4.000000e+00 3.067917e+00
      endloop
   endfacet
   facet normal -0.000000e+00 1.000000e+00 0.000000e+00
      outer loop
         vertex 7.582461e+00 4.000000e+00 3.067917e+00
         vertex 8.634946e+00 4.000000e+00 3.206169e+00
         vertex 8.455745e+00 4.000000e+00 2.693854e+00
      endloop
   endfacet
   facet normal 0.000000e+00 1.000000e+00 0.000000e+00
      outer loop
         vertex 7.582461e+00 4.000000e+00 3.067917e+00
         vertex 8.455745e+00 4.000000e+00 2.693854e+00
         vertex 7.368675e+00 4.000000e+00 2.642311e+00
      endloop
   endfacet
   facet normal -0.000000e+00 1.000000e+00 0.000000e+00
      outer loop
         vertex 7.368675e+00 4.000000e+00 2.642311e+00
         vertex 8.455745e+00 4.000000e+00 2.693854e+00
         vertex 8.214832e+00 4.000000e+00 2.207499e+00
      endloop
   endfacet
   facet normal 0.000000e+00 1.000000e+00 0.000000e+00
      outer loop
         vertex 7.368675e+00 4.000000e+00 2.642311e+00
         vertex 8.214832e+00 4.000000e+00 2.207499e+00
         vertex 7.098309e+00 4.000000e+00 2.250203e+00
      endloop
   endfacet
   facet normal 0.000000e+00 1.000000e+00 0.000000e+00
      outer loop
         vertex 7.098309e+00 4.000000e+00 2.250203e+00
         vertex 8.214832e+00 4.000000e+00 2.207499e+00
         vertex 7.915872e+00 4.000000e+00 1.754506e+00
      endloop
   endfacet
   facet normal 0.000000e+00 1.000000e+00 0.000000e+00
      outer loop
         vertex 7.098309e+00 4.000000e+00 2.250203e+00
         vertex 7.915872e+00 4.000000e+00 1.754506e+00
         vertex 6.776518e+00 4.000000e+00 1.899068e+00
      endloop
   endfacet
   facet normal 0.000000e+00 1.000000e+00 0.000000e+00
      outer loop
         vertex 6.776518e+00 4.000000e+00 1.899068e+00
         vertex 7.915872e+00 4.000000e+00 1.754506e+00
         vertex 7.563416e+00 4.000000e+00 1.341765e+00
      endloop
   endfacet
   facet normal 0.000000e+00 1.000000e+00 0.000000e+00
      outer loop
         vertex 6.776518e+00 4.000000e+00 1.899068e+00
         vertex 7.563416e+00 4.000000e+00 1.341765e+00
         vertex 6.409434e+00 4.000000e+00 1.595597e+00
      endloop
   endfacet
   facet normal 0.000000e+00 1.000000e+00 0.000000e+00
      outer loop
         vertex 2.795947e+00 4.000000e+00 1.345575e+00
         vertex 2.079804e+00 4.000000e+00 6.614586e-01
         vertex 2.390566e+00 4.000000e+00 1.595597e+00
      endloop
   endfacet
   facet normal 0.000000e+00 1.000000e+00 0.000000e+00
      outer loop
         vertex 2.390566e+00 4.000000e+00 1.595597e+00
         vertex 2.079804e+00 4.000000e+00 6.614586e-01
         vertex 1.637175e+00 4.000000e+00 9.755590e-01
      endloop
   endfacet
   facet normal 0.000000e+00 1.000000e+00 0.000000e+00
      outer loop
         vertex 2.390566e+00 4.000000e+00 1.595597e+00
         vertex 1.637175e+00 4.000000e+00 9.755590e-01
         vertex 2.023482e+00 4.000000e+00 1.899068e+00
      endloop
   endfacet
   facet normal 0.000000e+00 1.000000e+00 0.000000e+00
      outer loop
         vertex 2.023482e+00 4.000000e+00 1.899068e+00
         vertex 1.637175e+00 4.000000e+00 9.755590e-01
         vertex 1.236584e+00 4.000000e+00 1.341765e+00
      endloop
   endfacet
   facet normal 0.000000e+00 1.000000e+00 0.000000e+00
      outer loop
         vertex 2.023482e+00 4.000000e+00 1.899068e+00
         vertex 1.236584e+00 4.000000e+00 1.341765e+00
         vertex 1.701690e+00 4.000000e+00 2.250203e+00
      endloop
   endfacet
   facet normal 0.000000e+00 1.000000e+00 0.000000e+00
      outer loop
         vertex 1.701690e+00 4.000000e+00 2.250203e+00
         vertex 1.236584e+00 4.000000e+00 1.341765e+00
         vertex 8.841276e-01 4.000000e+00 1.754506e+00
      endloop
   endfacet
   facet normal 0.000000e+00 1.000000e+00 0.000000e+00
      outer loop
         vertex 1.701690e+00 4.000000e+00 2.250203e+00
         vertex 8.841276e-01 4.000000e+00 1.754506e+00
         vertex 1.431325e+00 4.000000e+00 2.642311e+00
      endloop
   endfacet
   facet normal 0.000000e+00 1.000000e+00 0.000000e+00
      outer loop
         vertex 1.431325e+00 4.000000e+00 2.642311e+00
         vertex 8.841276e-01 4.000000e+00 1.754506e+00
         vertex 5.851684e-01 4.000000e+00 2.207499e+00
      endloop
   endfacet
   facet normal 0.000000e+00 1.000000e+00 0.000000e+00
      outer loop
         vertex 1.431325e+00 4.000000e+00 2.642311e+00
         vertex 5.851684e-01 4.000000e+00 2.207499e+00
         vertex 1.217539e+00 4.000000e+00 3.067917e+00
      endloop
   endfacet
   facet normal 0.000000e+00 1.000000e+00 0.000000e+00
      outer loop
         vertex 1.217539e+00 4.000000e+00 3.067917e+00
         vertex 5.851684e-01 4.000000e+00 2.207499e+00
         vertex 3.442550e-01 4.000000e+00 2.693854e+00
      endloop
   endfacet
   facet normal 0.000000e+00 1.000000e+00 0.000000e+00
      outer loop
         vertex 1.217539e+00 4.000000e+00 3.067917e+00
         vertex 3.442550e-01 4.000000e+00 2.693854e+00
         vertex 1.064407e+00 4.000000e+00 3.518911e+00
      endloop
   endfacet
   facet normal 0.000000e+00 1.000000e+00 0.000000e+00
      outer loop
         vertex 1.064407e+00 4.000000e+00 3.518911e+00
         vertex 3.442550e-01 4.000000e+00 2.693854e+00
         vertex 1.650541e-01 4.000000e+00 3.206169e+00
      endloop
   endfacet
   facet normal 0.000000e+00 1.000000e+00 0.000000e+00
      outer loop
         vertex 1.064407e+00 4.000000e+00 3.518911e+00
         vertex 1.650541e-01 4.000000e+00 3.206169e+00
         vertex 9.748458e-01 4.000000e+00 3.986698e+00
      endloop
   endfacet
   facet normal 0.000000e+00 1.000000e+00 0.000000e+00
      outer loop
         vertex 9.748458e-01 4.000000e+00 3.986698e+00
         vertex 1.650541e-01 4.000000e+00 3.206169e+00
         vertex 5.029142e-02 4.000000e+00 3.736650e+00
      endloop
   endfacet
   facet normal 0.000000e+00 1.000000e+00 0.000000e+00
      outer loop
         vertex 9.748458e-01 4.000000e+00 3.986698e+00
         vertex 5.029142e-02 4.000000e+00 3.736650e+00
         vertex 9.505637e-01 4.000000e+00 4.462361e+00
      endloop
   endfacet
   facet normal 0.000000e+00 1.000000e+00 0.000000e+00
      outer loop
         vertex 9.505637e-01 4.000000e+00 4.462361e+00
         vertex 5.029142e-02 4.000000e+00 3.736650e+00
         vertex 1.713168e-03 4.000000e+00 4.277224e+00
      endloop
   endfacet
   facet normal 0.000000e+00 1.000000e+00 -0.000000e+00
      outer loop
         vertex 9.505637e-01 4.000000e+00 4.462361e+00
         vertex 1.713168e-03 4.000000e+00 4.277224e+00
         vertex 9.920232e-01 4.000000e+00 4.936836e+00
      endloop
   endfacet
   facet normal 0.000000e+00 1.000000e+00 0.000000e+00
      outer loop
         vertex 9.920232e-01 4.000000e+00 4.936836e+00
         vertex 1.713168e-03 4.000000e+00 4.277224e+00
         vertex 2.005929e-02 4.000000e+00 4.819666e+00
      endloop
   endfacet
   facet normal 0.000000e+00 1.000000e+00 0.000000e+00
      outer loop
         vertex 9.920232e-01 4.000000e+00 4.936836e+00
         vertex 2.005929e-02 4.000000e+00 4.819666e+00
         vertex 1.050499e-01 4.000000e+00 5.355722e+00
      endloop
   endfacet
   facet normal 0.000000e+00 1.000000e+00 0.000000e+00
      outer loop
         vertex 7.563416e+00 4.000000e+00 1.341765e+00
         vertex 7.162825e+00 4.000000e+00 9.755590e-01
         vertex 6.409434e+00 4.000000e+00 1.595597e+00
      endloop
   endfacet
   facet normal 0.000000e+00 1.000000e+00 0.000000e+00
      outer loop
         vertex 6.409434e+00 4.000000e+00 1.595597e+00
         vertex 7.162825e+00 4.000000e+00 9.755590e-01
         vertex 6.720196e+00 4.000000e+00 6.614586e-01
      endloop
   endfacet
   facet normal 0.000000e+00 1.000000e+00 0.000000e+00
      outer loop
         vertex 6.409434e+00 4.000000e+00 1.595597e+00
         vertex 6.720196e+00 4.000000e+00 6.614586e-01
         vertex 6.004053e+00 4.000000e+00 1.345575e+00
      endloop
   endfacet
   facet normal 0.000000e+00 1.000000e+00 0.000000e+00
      outer loop
         vertex 6.004053e+00 4.000000e+00 1.345575e+00
         vertex 6.720196e+00 4.000000e+00 6.614586e-01
         vertex 6.242262e+00 4.000000e+00 4.042434e-01
      endloop
   endfacet
   facet normal 0.000000e+00 1.000000e+00 0.000000e+00
      outer loop
         vertex 6.004053e+00 4.000000e+00 1.345575e+00
         vertex 6.242262e+00 4.000000e+00 4.042434e-01
         vertex 5.568100e+00 4.000000e+00 1.153765e+00
      endloop
   endfacet
   facet normal 0.000000e+00 1.000000e+00 0.000000e+00
      outer loop
         vertex 5.568100e+00 4.000000e+00 1.153765e+00
         vertex 6.242262e+00 4.000000e+00 4.042434e-01
         vertex 5.736297e+00 4.000000e+00 2.078274e-01
      endloop
   endfacet
   facet normal 0.000000e+00 1.000000e+00 0.000000e+00
      outer loop
         vertex 5.568100e+00 4.000000e+00 1.153765e+00
         vertex 5.736297e+00 4.000000e+00 2.078274e-01
         vertex 5.109886e+00 4.000000e+00 1.023824e+00
      endloop
   endfacet
   facet normal 0.000000e+00 1.000000e+00 0.000000e+00
      outer loop
         vertex 5.109886e+00 4.000000e+00 1.023824e+00
         vertex 5.736297e+00 4.000000e+00 2.078274e-01
         vertex 5.209999e+00 4.000000e+00 7.519918e-02
      endloop
   endfacet
   facet normal 0.000000e+00 1.000000e+00 0.000000e+00
      outer loop
         vertex 5.109886e+00 4.000000e+00 1.023824e+00
         vertex 5.209999e+00 4.000000e+00 7.519918e-02
         vertex 4.638141e+00 4.000000e+00 9.582287e-01
      endloop
   endfacet
   facet normal 0.000000e+00 1.000000e+00 0.000000e+00
      outer loop
         vertex 4.638141e+00 4.000000e+00 9.582287e-01
         vertex 5.209999e+00 4.000000e+00 7.519918e-02
         vertex 4.671376e+00 4.000000e+00 8.376781e-03
      endloop
   endfacet
   facet normal 0.000000e+00 1.000000e+00 0.000000e+00
      outer loop
         vertex 4.638141e+00 4.000000e+00 9.582287e-01
         vertex 4.671376e+00 4.000000e+00 8.376781e-03
         vertex 4.161859e+00 4.000000e+00 9.582287e-01
      endloop
   endfacet
   facet normal 0.000000e+00 1.000000e+00 0.000000e+00
      outer loop
         vertex 4.161859e+00 4.000000e+00 9.582287e-01
         vertex 4.671376e+00 4.000000e+00 8.376781e-03
         vertex 4.128624e+00 4.000000e+00 8.376781e-03
      endloop
   endfacet
   facet normal 0.000000e+00 1.000000e+00 0.000000e+00
      outer loop
         vertex 4.161859e+00 4.000000e+00 9.582287e-01
         vertex 4.128624e+00 4.000000e+00 8.376781e-03
         vertex 3.690114e+00 4.000000e+00 1.023824e+00
      endloop
   endfacet
   facet normal 0.000000e+00 1.000000e+00 0.000000e+00
      outer loop
         vertex 3.690114e+00 4.000000e+00 1.023824e+00
         vertex 4.128624e+00 4.000000e+00 8.376781e-03
         vertex 3.590001e+00 4.000000e+00 7.519918e-02
      endloop
   endfacet
   facet normal 0.000000e+00 1.000000e+00 0.000000e+00
      outer loop
         vertex 3.690114e+00 4.000000e+00 1.023824e+00
         vertex 3.590001e+00 4.000000e+00 7.519918e-02
         vertex 3.231899e+00 4.000000e+00 1.153765e+00
      endloop
   endfacet
   facet normal 0.000000e+00 1.000000e+00 0.000000e+00
      outer loop
         vertex 3.231899e+00 4.000000e+00 1.153765e+00
         vertex 3.590001e+00 4.000000e+00 7.519918e-02
         vertex 3.063703e+00 4.000000e+00 2.078274e-01
      endloop
   endfacet
   facet normal 0.000000e+00 1.000000e+00 0.000000e+00
      outer loop
         vertex 3.231899e+00 4.000000e+00 1.153765e+00
         vertex 3.063703e+00 4.000000e+00 2.078274e-01
         vertex 2.795947e+00 4.000000e+00 1.345575e+00
      endloop
   endfacet
   facet normal 0.000000e+00 1.000000e+00 0.000000e+00
      outer loop
         vertex 2.795947e+00 4.000000e+00 1.345575e+00
         vertex 3.063703e+00 4.000000e+00 2.078274e-01
         vertex 2.557738e+00 4.000000e+00 4.042434e-01
      endloop
   endfacet
   facet normal 0.000000e+00 1.000000e+00 0.000000e+00
      outer loop
         vertex 2.795947e+00 4.000000e+00 1.345575e+00
         vertex 2.557738e+00 4.000000e+00 4.042434e-01
         vertex 2.079804e+00 4.000000e+00 6.614586e-01
      endloop
   endfacet
   facet normal -0.000000e+00 -1.000000e+00 0.000000e+00
      outer loop
         vertex 2.390566e+00 0.000000e+00 1.595597e+00
         vertex 2.023482e+00 0.000000e+00 1.899068e+00
         vertex 1.236584e+00 0.000000e+00 1.341765e+00
      endloop
   endfacet
   facet normal 0.000000e+00 -1.000000e+00 0.000000e+00
      outer loop
         vertex 5.450000e+00 0.000000e+00 8.672880e+00
         vertex 5.450000e+00 0.000000e+00 7.686335e+00
         vertex 5.968080e+00 0.000000e+00 8.511098e+00
      endloop
   endfacet
   facet normal 0.000000e+00 -1.000000e+00 0.000000e+00
      outer loop
         vertex 5.968080e+00 0.000000e+00 8.511098e+00
         vertex 5.450000e+00 0.000000e+00 7.686335e+00
         vertex 5.892601e+00 0.000000e+00 7.510409e+00
      endloop
   endfacet
   facet normal 0.000000e+00 -1.000000e+00 0.000000e+00
      outer loop
         vertex 1.236584e+00 0.000000e+00 1.341765e+00
         vertex 2.023482e+00 0.000000e+00 1.899068e+00
         vertex 8.841276e-01 0.000000e+00 1.754506e+00
      endloop
   endfacet
   facet normal 0.000000e+00 -1.000000e+00 0.000000e+00
      outer loop
         vertex 8.841276e-01 0.000000e+00 1.754506e+00
         vertex 2.023482e+00 0.000000e+00 1.899068e+00
         vertex 1.701690e+00 0.000000e+00 2.250203e+00
      endloop
   endfacet
   facet normal 0.000000e+00 -1.000000e+00 0.000000e+00
      outer loop
         vertex 8.841276e-01 0.000000e+00 1.754506e+00
         vertex 1.701690e+00 0.000000e+00 2.250203e+00
         vertex 5.851684e-01 0.000000e+00 2.207499e+00
      endloop
   endfacet
   facet normal 0.000000e+00 -1.000000e+00 0.000000e+00
      outer loop
         vertex 5.851684e-01 0.000000e+00 2.207499e+00
         vertex 1.701690e+00 0.000000e+00 2.250203e+00
         vertex 1.431325e+00 0.000000e+00 2.642311e+00
      endloop
   endfacet
   facet normal 0.000000e+00 -1.000000e+00 0.000000e+00
      outer loop
         vertex 5.851684e-01 0.000000e+00 2.207499e+00
         vertex 1.431325e+00 0.000000e+00 2.642311e+00
         vertex 3.442550e-01 0.000000e+00 2.693854e+00
      endloop
   endfacet
   facet normal 0.000000e+00 -1.000000e+00 0.000000e+00
      outer loop
         vertex 3.442550e-01 0.000000e+00 2.693854e+00
         vertex 1.431325e+00 0.000000e+00 2.642311e+00
         vertex 1.217539e+00 0.000000e+00 3.067917e+00
      endloop
   endfacet
   facet normal 0.000000e+00 -1.000000e+00 0.000000e+00
      outer loop
         vertex 3.442550e-01 0.000000e+00 2.693854e+00
         vertex 1.217539e+00 0.000000e+00 3.067917e+00
         vertex 1.650541e-01 0.000000e+00 3.206169e+00
      endloop
   endfacet
   facet normal 0.000000e+00 -1.000000e+00 0.000000e+00
      outer loop
         vertex 1.650541e-01 0.000000e+00 3.206169e+00
         vertex 1.217539e+00 0.000000e+00 3.067917e+00
         vertex 1.064407e+00 0.000000e+00 3.518911e+00
      endloop
   endfacet
   facet normal 0.000000e+00 -1.000000e+00 0.000000e+00
      outer loop
         vertex 1.650541e-01 0.000000e+00 3.206169e+00
         vertex 1.064407e+00 0.000000e+00 3.518911e+00
         vertex 5.029142e-02 0.000000e+00 3.736650e+00
      endloop
   endfacet
   facet normal 0.000000e+00 -1.000000e+00 0.000000e+00
      outer loop
         vertex 5.029142e-02 0.000000e+00 3.736650e+00
         vertex 1.064407e+00 0.000000e+00 3.518911e+00
         vertex 9.748458e-01 0.000000e+00 3.986698e+00
      endloop
   endfacet
   facet normal 0.000000e+00 -1.000000e+00 0.000000e+00
      outer loop
         vertex 5.029142e-02 0.000000e+00 3.736650e+00
         vertex 9.748458e-01 0.000000e+00 3.986698e+00
         vertex 1.713168e-03 0.000000e+00 4.277224e+00
      endloop
   endfacet
   facet normal 0.000000e+00 -1.000000e+00 0.000000e+00
      outer loop
         vertex 1.713168e-03 0.000000e+00 4.277224e+00
         vertex 9.748458e-01 0.000000e+00 3.986698e+00
         vertex 9.505637e-01 0.000000e+00 4.462361e+00
      endloop
   endfacet
   facet normal 0.000000e+00 -1.000000e+00 0.000000e+00
      outer loop
         vertex 1.713168e-03 0.000000e+00 4.277224e+00
         vertex 9.505637e-01 0.000000e+00 4.462361e+00
         vertex 2.005929e-02 0.000000e+00 4.819666e+00
      endloop
   endfacet
   facet normal 0.000000e+00 -1.000000e+00 0.000000e+00
      outer loop
         vertex 2.005929e-02 0.000000e+00 4.819666e+00
         vertex 9.505637e-01 0.000000e+00 4.462361e+00
         vertex 9.920232e-01 0.000000e+00 4.936836e+00
      endloop
   endfacet
   facet normal 0.000000e+00 -1.000000e+00 0.000000e+00
      outer loop
         vertex 2.005929e-02 0.000000e+00 4.819666e+00
         vertex 9.920232e-01 0.000000e+00 4.936836e+00
         vertex 1.050499e-01 0.000000e+00 5.355722e+00
      endloop
   endfacet
   facet normal 0.000000e+00 -1.000000e+00 0.000000e+00
      outer loop
         vertex 1.050499e-01 0.000000e+00 5.355722e+00
         vertex 9.920232e-01 0.000000e+00 4.936836e+00
         vertex 1.098434e+00 0.000000e+00 5.401080e+00
      endloop
   endfacet
   facet normal 0.000000e+00 -1.000000e+00 0.000000e+00
      outer loop
         vertex 1.050499e-01 0.000000e+00 5.355722e+00
         vertex 1.098434e+00 0.000000e+00 5.401080e+00
         vertex 2.553924e-01 0.000000e+00 5.877236e+00
      endloop
   endfacet
   facet normal 0.000000e+00 -1.000000e+00 0.000000e+00
      outer loop
         vertex 2.553924e-01 0.000000e+00 5.877236e+00
         vertex 1.098434e+00 0.000000e+00 5.401080e+00
         vertex 4.687984e-01 0.000000e+00 6.376273e+00
      endloop
   endfacet
   facet normal 0.000000e+00 -1.000000e+00 0.000000e+00
      outer loop
         vertex 4.687984e-01 0.000000e+00 6.376273e+00
         vertex 1.098434e+00 0.000000e+00 5.401080e+00
         vertex 1.267768e+00 0.000000e+00 5.846244e+00
      endloop
   endfacet
   facet normal 0.000000e+00 -1.000000e+00 0.000000e+00
      outer loop
         vertex 4.687984e-01 0.000000e+00 6.376273e+00
         vertex 1.267768e+00 0.000000e+00 5.846244e+00
         vertex 7.420217e-01 0.000000e+00 6.845239e+00
      endloop
   endfacet
   facet normal 0.000000e+00 -1.000000e+00 0.000000e+00
      outer loop
         vertex 7.420217e-01 0.000000e+00 6.845239e+00
         vertex 1.267768e+00 0.000000e+00 5.846244e+00
         vertex 1.496798e+00 0.000000e+00 6.263845e+00
      endloop
   endfacet
   facet normal 0.000000e+00 -1.000000e+00 0.000000e+00
      outer loop
         vertex 7.420217e-01 0.000000e+00 6.845239e+00
         vertex 1.496798e+00 0.000000e+00 6.263845e+00
         vertex 1.070904e+00 0.000000e+00 7.276999e+00
      endloop
   endfacet
   facet normal 0.000000e+00 -1.000000e+00 0.000000e+00
      outer loop
         vertex 1.070904e+00 0.000000e+00 7.276999e+00
         vertex 1.496798e+00 0.000000e+00 6.263845e+00
         vertex 1.781160e+00 0.000000e+00 6.645924e+00
      endloop
   endfacet
   facet normal 0.000000e+00 -1.000000e+00 0.000000e+00
      outer loop
         vertex 1.070904e+00 0.000000e+00 7.276999e+00
         vertex 1.781160e+00 0.000000e+00 6.645924e+00
         vertex 1.450442e+00 0.000000e+00 7.664982e+00
      endloop
   endfacet
   facet normal 0.000000e+00 -1.000000e+00 0.000000e+00
      outer loop
         vertex 1.450442e+00 0.000000e+00 7.664982e+00
         vertex 1.781160e+00 0.000000e+00 6.645924e+00
         vertex 2.115432e+00 0.000000e+00 6.985198e+00
      endloop
   endfacet
   facet normal 0.000000e+00 -1.000000e+00 0.000000e+00
      outer loop
         vertex 1.450442e+00 0.000000e+00 7.664982e+00
         vertex 2.115432e+00 0.000000e+00 6.985198e+00
         vertex 1.874860e+00 0.000000e+00 8.003286e+00
      endloop
   endfacet
   facet normal 0.000000e+00 -1.000000e+00 0.000000e+00
      outer loop
         vertex 1.874860e+00 0.000000e+00 8.003286e+00
         vertex 2.115432e+00 0.000000e+00 6.985198e+00
         vertex 2.493246e+00 0.000000e+00 7.275202e+00
      endloop
   endfacet
   facet normal 0.000000e+00 -1.000000e+00 0.000000e+00
      outer loop
         vertex 1.874860e+00 0.000000e+00 8.003286e+00
         vertex 2.493246e+00 0.000000e+00 7.275202e+00
         vertex 2.337700e+00 0.000000e+00 8.286762e+00
      endloop
   endfacet
   facet normal 0.000000e+00 -1.000000e+00 0.000000e+00
      outer loop
         vertex 2.337700e+00 0.000000e+00 8.286762e+00
         vertex 2.493246e+00 0.000000e+00 7.275202e+00
         vertex 2.907399e+00 0.000000e+00 7.510409e+00
      endloop
   endfacet
   facet normal 0.000000e+00 -1.000000e+00 0.000000e+00
      outer loop
         vertex 2.337700e+00 0.000000e+00 8.286762e+00
         vertex 2.907399e+00 0.000000e+00 7.510409e+00
         vertex 2.831920e+00 0.000000e+00 8.511098e+00
      endloop
   endfacet
   facet normal 0.000000e+00 -1.000000e+00 0.000000e+00
      outer loop
         vertex 2.831920e+00 0.000000e+00 8.511098e+00
         vertex 2.907399e+00 0.000000e+00 7.510409e+00
         vertex 3.350000e+00 0.000000e+00 7.686335e+00
      endloop
   endfacet
   facet normal 0.000000e+00 -1.000000e+00 0.000000e+00
      outer loop
         vertex 2.831920e+00 0.000000e+00 8.511098e+00
         vertex 3.350000e+00 0.000000e+00 7.686335e+00
         vertex 3.350000e+00 0.000000e+00 8.672880e+00
      endloop
   endfacet
   facet normal 0.000000e+00 -1.000000e+00 0.000000e+00
      outer loop
         vertex 7.807977e+00 0.000000e+00 4.936836e+00
         vertex 8.694950e+00 0.000000e+00 5.355722e+00
         vertex 7.701566e+00 0.000000e+00 5.401080e+00
      endloop
   endfacet
   facet normal 0.000000e+00 -1.000000e+00 0.000000e+00
      outer loop
         vertex 7.701566e+00 0.000000e+00 5.401080e+00
         vertex 8.694950e+00 0.000000e+00 5.355722e+00
         vertex 8.544608e+00 0.000000e+00 5.877236e+00
      endloop
   endfacet
   facet normal 0.000000e+00 -1.000000e+00 0.000000e+00
      outer loop
         vertex 7.701566e+00 0.000000e+00 5.401080e+00
         vertex 8.544608e+00 0.000000e+00 5.877236e+00
         vertex 7.532232e+00 0.000000e+00 5.846244e+00
      endloop
   endfacet
   facet normal 0.000000e+00 -1.000000e+00 0.000000e+00
      outer loop
         vertex 7.532232e+00 0.000000e+00 5.846244e+00
         vertex 8.544608e+00 0.000000e+00 5.877236e+00
         vertex 8.331202e+00 0.000000e+00 6.376273e+00
      endloop
   endfacet
   facet normal 0.000000e+00 -1.000000e+00 0.000000e+00
      outer loop
         vertex 7.532232e+00 0.000000e+00 5.846244e+00
         vertex 8.331202e+00 0.000000e+00 6.376273e+00
         vertex 7.303202e+00 0.000000e+00 6.263845e+00
      endloop
   endfacet
   facet normal 0.000000e+00 -1.000000e+00 0.000000e+00
      outer loop
         vertex 7.303202e+00 0.000000e+00 6.263845e+00
         vertex 8.331202e+00 0.000000e+00 6.376273e+00
         vertex 8.057978e+00 0.000000e+00 6.845239e+00
      endloop
   endfacet
   facet normal 0.000000e+00 -1.000000e+00 0.000000e+00
      outer loop
         vertex 7.303202e+00 0.000000e+00 6.263845e+00
         vertex 8.057978e+00 0.000000e+00 6.845239e+00
         vertex 7.018840e+00 0.000000e+00 6.645924e+00
      endloop
   endfacet
   facet normal 0.000000e+00 -1.000000e+00 0.000000e+00
      outer loop
         vertex 7.018840e+00 0.000000e+00 6.645924e+00
         vertex 8.057978e+00 0.000000e+00 6.845239e+00
         vertex 7.729096e+00 0.000000e+00 7.276999e+00
      endloop
   endfacet
   facet normal 0.000000e+00 -1.000000e+00 0.000000e+00
      outer loop
         vertex 7.018840e+00 0.000000e+00 6.645924e+00
         vertex 7.729096e+00 0.000000e+00 7.276999e+00
         vertex 6.684568e+00 0.000000e+00 6.985198e+00
      endloop
   endfacet
   facet normal 0.000000e+00 -1.000000e+00 0.000000e+00
      outer loop
         vertex 6.684568e+00 0.000000e+00 6.985198e+00
         vertex 7.729096e+00 0.000000e+00 7.276999e+00
         vertex 7.349558e+00 0.000000e+00 7.664982e+00
      endloop
   endfacet
   facet normal 0.000000e+00 -1.000000e+00 0.000000e+00
      outer loop
         vertex 6.684568e+00 0.000000e+00 6.985198e+00
         vertex 7.349558e+00 0.000000e+00 7.664982e+00
         vertex 6.306754e+00 0.000000e+00 7.275202e+00
      endloop
   endfacet
   facet normal 0.000000e+00 -1.000000e+00 0.000000e+00
      outer loop
         vertex 6.306754e+00 0.000000e+00 7.275202e+00
         vertex 7.349558e+00 0.000000e+00 7.664982e+00
         vertex 6.925140e+00 0.000000e+00 8.003286e+00
      endloop
   endfacet
   facet normal 0.000000e+00 -1.000000e+00 0.000000e+00
      outer loop
         vertex 6.306754e+00 0.000000e+00 7.275202e+00
         vertex 6.925140e+00 0.000000e+00 8.003286e+00
         vertex 5.892601e+00 0.000000e+00 7.510409e+00
      endloop
   endfacet
   facet normal 0.000000e+00 -1.000000e+00 0.000000e+00
      outer loop
         vertex 5.892601e+00 0.000000e+00 7.510409e+00
         vertex 6.925140e+00 0.000000e+00 8.003286e+00
         vertex 6.462300e+00 0.000000e+00 8.286762e+00
      endloop
   endfacet
   facet normal 0.000000e+00 -1.000000e+00 0.000000e+00
      outer loop
         vertex 5.892601e+00 0.000000e+00 7.510409e+00
         vertex 6.462300e+00 0.000000e+00 8.286762e+00
         vertex 5.968080e+00 0.000000e+00 8.511098e+00
      endloop
   endfacet
   facet normal 0.000000e+00 -1.000000e+00 0.000000e+00
      outer loop
         vertex 6.004053e+00 0.000000e+00 1.345575e+00
         vertex 6.720196e+00 0.000000e+00 6.614586e-01
         vertex 6.409434e+00 0.000000e+00 1.595597e+00
      endloop
   endfacet
   facet normal 0.000000e+00 -1.000000e+00 0.000000e+00
      outer loop
         vertex 6.409434e+00 0.000000e+00 1.595597e+00
         vertex 6.720196e+00 0.000000e+00 6.614586e-01
         vertex 7.162825e+00 0.000000e+00 9.755590e-01
      endloop
   endfacet
   facet normal 0.000000e+00 -1.000000e+00 0.000000e+00
      outer loop
         vertex 6.409434e+00 0.000000e+00 1.595597e+00
         vertex 7.162825e+00 0.000000e+00 9.755590e-01
         vertex 6.776518e+00 0.000000e+00 1.899068e+00
      endloop
   endfacet
   facet normal 0.000000e+00 -1.000000e+00 0.000000e+00
      outer loop
         vertex 6.776518e+00 0.000000e+00 1.899068e+00
         vertex 7.162825e+00 0.000000e+00 9.755590e-01
         vertex 7.563416e+00 0.000000e+00 1.341765e+00
      endloop
   endfacet
   facet normal 0.000000e+00 -1.000000e+00 0.000000e+00
      outer loop
         vertex 6.776518e+00 0.000000e+00 1.899068e+00
         vertex 7.563416e+00 0.000000e+00 1.341765e+00
         vertex 7.098309e+00 0.000000e+00 2.250203e+00
      endloop
   endfacet
   facet normal 0.000000e+00 -1.000000e+00 0.000000e+00
      outer loop
         vertex 7.098309e+00 0.000000e+00 2.250203e+00
         vertex 7.563416e+00 0.000000e+00 1.341765e+00
         vertex 7.915872e+00 0.000000e+00 1.754506e+00
      endloop
   endfacet
   facet normal 0.000000e+00 -1.000000e+00 0.000000e+00
      outer loop
         vertex 7.098309e+00 0.000000e+00 2.250203e+00
         vertex 7.915872e+00 0.000000e+00 1.754506e+00
         vertex 7.368675e+00 0.000000e+00 2.642311e+00
      endloop
   endfacet
   facet normal 0.000000e+00 -1.000000e+00 0.000000e+00
      outer loop
         vertex 7.368675e+00 0.000000e+00 2.642311e+00
         vertex 7.915872e+00 0.000000e+00 1.754506e+00
         vertex 8.214832e+00 0.000000e+00 2.207499e+00
      endloop
   endfacet
   facet normal 0.000000e+00 -1.000000e+00 0.000000e+00
      outer loop
         vertex 7.368675e+00 0.000000e+00 2.642311e+00
         vertex 8.214832e+00 0.000000e+00 2.207499e+00
         vertex 7.582461e+00 0.000000e+00 3.067917e+00
      endloop
   endfacet
   facet normal 0.000000e+00 -1.000000e+00 0.000000e+00
      outer loop
         vertex 7.582461e+00 0.000000e+00 3.067917e+00
         vertex 8.214832e+00 0.000000e+00 2.207499e+00
         vertex 8.455745e+00 0.000000e+00 2.693854e+00
      endloop
   endfacet
   facet normal 0.000000e+00 -1.000000e+00 0.000000e+00
      outer loop
         vertex 7.582461e+00 0.000000e+00 3.067917e+00
         vertex 8.455745e+00 0.000000e+00 2.693854e+00
         vertex 7.735593e+00 0.000000e+00 3.518911e+00
      endloop
   endfacet
   facet normal 0.000000e+00 -1.000000e+00 0.000000e+00
      outer loop
         vertex 7.735593e+00 0.000000e+00 3.518911e+00
         vertex 8.455745e+00 0.000000e+00 2.693854e+00
         vertex 8.634946e+00 0.000000e+00 3.206169e+00
      endloop
   endfacet
   facet normal 0.000000e+00 -1.000000e+00 0.000000e+00
      outer loop
         vertex 7.735593e+00 0.000000e+00 3.518911e+00
         vertex 8.634946e+00 0.000000e+00 3.206169e+00
         vertex 7.825154e+00 0.000000e+00 3.986698e+00
      endloop
   endfacet
   facet normal 0.000000e+00 -1.000000e+00 0.000000e+00
      outer loop
         vertex 7.825154e+00 0.000000e+00 3.986698e+00
         vertex 8.634946e+00 0.000000e+00 3.206169e+00
         vertex 8.749709e+00 0.000000e+00 3.736650e+00
      endloop
   endfacet
   facet normal 0.000000e+00 -1.000000e+00 0.000000e+00
      outer loop
         vertex 7.825154e+00 0.000000e+00 3.986698e+00
         vertex 8.749709e+00 0.000000e+00 3.736650e+00
         vertex 7.849436e+00 0.000000e+00 4.462361e+00
      endloop
   endfacet
   facet normal 0.000000e+00 -1.000000e+00 0.000000e+00
      outer loop
         vertex 7.849436e+00 0.000000e+00 4.462361e+00
         vertex 8.749709e+00 0.000000e+00 3.736650e+00
         vertex 8.798287e+00 0.000000e+00 4.277224e+00
      endloop
   endfacet
   facet normal 0.000000e+00 -1.000000e+00 0.000000e+00
      outer loop
         vertex 7.849436e+00 0.000000e+00 4.462361e+00
         vertex 8.798287e+00 0.000000e+00 4.277224e+00
         vertex 7.807977e+00 0.000000e+00 4.936836e+00
      endloop
   endfacet
   facet normal 0.000000e+00 -1.000000e+00 0.000000e+00
      outer loop
         vertex 7.807977e+00 0.000000e+00 4.936836e+00
         vertex 8.798287e+00 0.000000e+00 4.277224e+00
         vertex 8.779941e+00 0.000000e+00 4.819666e+00
      endloop
   endfacet
   facet normal 0.000000e+00 -1.000000e+00 0.000000e+00
      outer loop
         vertex 7.807977e+00 0.000000e+00 4.936836e+00
         vertex 8.779941e+00 0.000000e+00 4.819666e+00
         vertex 8.694950e+00 0.000000e+00 5.355722e+00
      endloop
   endfacet
   facet normal 0.000000e+00 -1.000000e+00 0.000000e+00
      outer loop
         vertex 1.236584e+00 0.000000e+00 1.341765e+00
         vertex 1.637175e+00 0.000000e+00 9.755590e-01
         vertex 2.390566e+00 0.000000e+00 1.595597e+00
      endloop
   endfacet
   facet normal 0.000000e+00 -1.000000e+00 0.000000e+00
      outer loop
         vertex 2.390566e+00 0.000000e+00 1.595597e+00
         vertex 1.637175e+00 0.000000e+00 9.755590e-01
         vertex 2.079804e+00 0.000000e+00 6.614586e-01
      endloop
   endfacet
   facet normal 0.000000e+00 -1.000000e+00 -0.000000e+00
      outer loop
         vertex 2.390566e+00 0.000000e+00 1.595597e+00
         vertex 2.079804e+00 0.000000e+00 6.614586e-01
         vertex 2.795947e+00 0.000000e+00 1.345575e+00
      endloop
   endfacet
   facet normal 0.000000e+00 -1.000000e+00 0.000000e+00
      outer loop
         vertex 2.795947e+00 0.000000e+00 1.345575e+00
         vertex 2.079804e+00 0.000000e+00 6.614586e-01
         vertex 2.557738e+00 0.000000e+00 4.042434e-01
      endloop
   endfacet
   facet normal 0.000000e+00 -1.000000e+00 -0.000000e+00
      outer loop
         vertex 2.795947e+00 0.000000e+00 1.345575e+00
         vertex 2.557738e+00 0.000000e+00 4.042434e-01
         vertex 3.231899e+00 0.000000e+00 1.153765e+00
      endloop
   endfacet
   facet normal 0.000000e+00 -1.000000e+00 0.000000e+00
      outer loop
         vertex 3.231899e+00 0.000000e+00 1.153765e+00
         vertex 2.557738e+00 0.000000e+00 4.042434e-01
         vertex 3.063703e+00 0.000000e+00 2.078274e-01
      endloop
   endfacet
   facet normal 0.000000e+00 -1.000000e+00 -0.000000e+00
      outer loop
         vertex 3.231899e+00 0.000000e+00 1.153765e+00
         vertex 3.063703e+00 0.000000e+00 2.078274e-01
         vertex 3.690114e+00 0.000000e+00 1.023824e+00
      endloop
   endfacet
   facet normal 0.000000e+00 -1.000000e+00 0.000000e+00
      outer loop
         vertex 3.690114e+00 0.000000e+00 1.023824e+00
         vertex 3.063703e+00 0.000000e+00 2.078274e-01
         vertex 3.590001e+00 0.000000e+00 7.519918e-02
      endloop
   endfacet
   facet normal 0.000000e+00 -1.000000e+00 -0.000000e+00
      outer loop
         vertex 3.690114e+00 0.000000e+00 1.023824e+00
         vertex 3.590001e+00 0.000000e+00 7.519918e-02
         vertex 4.161859e+00 0.000000e+00 9.582287e-01
      endloop
   endfacet
   facet normal 0.000000e+00 -1.000000e+00 0.000000e+00
      outer loop
         vertex 4.161859e+00 0.000000e+00 9.582287e-01
         vertex 3.590001e+00 0.000000e+00 7.519918e-02
         vertex 4.128624e+00 0.000000e+00 8.376781e-03
      endloop
   endfacet
   facet normal 0.000000e+00 -1.000000e+00 -0.000000e+00
      outer loop
         vertex 4.161859e+00 0.000000e+00 9.582287e-01
         vertex 4.128624e+00 0.000000e+00 8.376781e-03
         vertex 4.638141e+00 0.000000e+00 9.582287e-01
      endloop
   endfacet
   facet normal 0.000000e+00 -1.000000e+00 -0.000000e+00
      outer loop
         vertex 4.638141e+00 0.000000e+00 9.582287e-01
         vertex 4.128624e+00 0.000000e+00 8.376781e-03
         vertex 4.671376e+00 0.000000e+00 8.376781e-03
      endloop
   endfacet
   facet normal 0.000000e+00 -1.000000e+00 0.000000e+00
      outer loop
         vertex 4.638141e+00 0.000000e+00 9.582287e-01
         vertex 4.671376e+00 0.000000e+00 8.376781e-03
         vertex 5.109886e+00 0.000000e+00 1.023824e+00
      endloop
   endfacet
   facet normal 0.000000e+00 -1.000000e+00 -0.000000e+00
      outer loop
         vertex 5.109886e+00 0.000000e+00 1.023824e+00
         vertex 4.671376e+00 0.000000e+00 8.376781e-03
         vertex 5.209999e+00 0.000000e+00 7.519918e-02
      endloop
   endfacet
   facet normal 0.000000e+00 -1.000000e+00 0.000000e+00
      outer loop
         vertex 5.109886e+00 0.000000e+00 1.023824e+00
         vertex 5.209999e+00 0.000000e+00 7.519918e-02
         vertex 5.568100e+00 0.000000e+00 1.153765e+00
      endloop
   endfacet
   facet normal 0.000000e+00 -1.000000e+00 -0.000000e+00
      outer loop
         vertex 5.568100e+00 0.000000e+00 1.153765e+00
         vertex 5.209999e+00 0.000000e+00 7.519918e-02
         vertex 5.736297e+00 0.000000e+00 2.078274e-01
      endloop
   endfacet
   facet normal 0.000000e+00 -1.000000e+00 0.000000e+00
      outer loop
         vertex 5.568100e+00 0.000000e+00 1.153765e+00
         vertex 5.736297e+00 0.000000e+00 2.078274e-01
         vertex 6.004053e+00 0.000000e+00 1.345575e+00
      endloop
   endfacet
   facet normal 0.000000e+00 -1.000000e+00 -0.000000e+00
      outer loop
         vertex 6.004053e+00 0.000000e+00 1.345575e+00
         vertex 5.736297e+00 0.000000e+00 2.078274e-01
         vertex 6.242262e+00 0.000000e+00 4.042434e-01
      endloop
   endfacet
   facet normal 0.000000e+00 -1.000000e+00 0.000000e+00
      outer loop
         vertex 6.004053e+00 0.000000e+00 1.345575e+00
         vertex 6.242262e+00 0.000000e+00 4.042434e-01
         vertex 6.720196e+00 0.000000e+00 6.614586e-01
      endloop
   endfacet
endsolid